<mxfile host="app.diagrams.net" agent="Mozilla/5.0 (Windows NT 10.0; Win64; x64) AppleWebKit/537.36 (KHTML, like Gecko) Chrome/132.0.0.0 Safari/537.36" version="27.0.6">
  <diagram name="第 1 页" id="HtpPqPpdtCKr3j5uXZgR">
    <mxGraphModel dx="6407" dy="2560" grid="1" gridSize="10" guides="1" tooltips="1" connect="1" arrows="1" fold="1" page="1" pageScale="1" pageWidth="1654" pageHeight="2339" math="0" shadow="0">
      <root>
        <mxCell id="0" />
        <mxCell id="1" parent="0" />
        <mxCell id="F6-qjhK5z2D8PZceFWj1-79" value="" style="rounded=0;whiteSpace=wrap;html=1;fillColor=#ffffff;strokeColor=#FFFFFF;fontColor=#000000;strokeWidth=2;container=0;" vertex="1" parent="1">
          <mxGeometry x="-1653" y="1" width="1643" height="899" as="geometry" />
        </mxCell>
        <mxCell id="F6-qjhK5z2D8PZceFWj1-80" value="" style="rounded=0;whiteSpace=wrap;html=1;strokeColor=#3700CC;fillColor=#6a00ff;strokeWidth=2;fontColor=#ffffff;rotation=0;container=0;" vertex="1" parent="1">
          <mxGeometry x="-1653" y="1320" width="1643" height="590" as="geometry" />
        </mxCell>
        <mxCell id="F6-qjhK5z2D8PZceFWj1-81" value="" style="rounded=0;whiteSpace=wrap;html=1;fillColor=#333;strokeColor=#333;strokeWidth=2;rotation=0;container=0;" vertex="1" parent="1">
          <mxGeometry x="-1653" y="1865" width="1643" height="473.02" as="geometry" />
        </mxCell>
        <mxCell id="F6-qjhK5z2D8PZceFWj1-93" value="&lt;div style=&quot;line-height: 160%;&quot;&gt;&lt;div&gt;&lt;div&gt;&lt;font&gt;&lt;span&gt;目前校内有常驻学生开&lt;/span&gt;&lt;span&gt;发者10人，&lt;/span&gt;&lt;/font&gt;&lt;/div&gt;&lt;div&gt;&lt;font&gt;&lt;span&gt;已毕业学长每一位都是杰出的核心贡献者，&lt;/span&gt;&lt;/font&gt;&lt;/div&gt;&lt;div&gt;&lt;font&gt;&lt;span&gt;在不同大厂承担核心开发业务。&lt;/span&gt;&lt;/font&gt;&lt;/div&gt;&lt;/div&gt;&lt;/div&gt;" style="text;resizable=0;points=[];autosize=1;align=left;verticalAlign=top;spacingTop=-7.874;fontSize=40;fontFamily=Verdana;fontColor=#CCCCCC;html=1;container=0;" vertex="1" parent="1">
          <mxGeometry x="-1550" y="2041.5123417021975" width="780" height="200" as="geometry" />
        </mxCell>
        <mxCell id="F6-qjhK5z2D8PZceFWj1-87" value="Who are DragonOS" style="text;html=1;resizable=0;points=[];autosize=1;align=left;verticalAlign=top;spacingTop=-4;fontSize=60;fontFamily=Verdana;fontColor=#BBBBBB;fontStyle=1;container=0;" vertex="1" parent="1">
          <mxGeometry x="-1550" y="1951.5079496825895" width="570" height="80" as="geometry" />
        </mxCell>
        <mxCell id="F6-qjhK5z2D8PZceFWj1-111" value="&lt;div style=&quot;line-height: 150%;&quot;&gt;&lt;div&gt;&lt;div&gt;&amp;nbsp;· 固态硬盘&lt;/div&gt;&lt;div&gt;&amp;nbsp;· 文创周边&lt;/div&gt;&lt;div&gt;&amp;nbsp;· 创新分讲座票&lt;/div&gt;&lt;/div&gt;&lt;/div&gt;" style="text;html=1;resizable=0;points=[];autosize=1;align=left;verticalAlign=top;spacingTop=0;fontSize=60;fontFamily=Verdana;fontColor=#FFFFFF;container=0;fontStyle=1" vertex="1" parent="1">
          <mxGeometry x="-1550" y="1520" width="430" height="280" as="geometry" />
        </mxCell>
        <mxCell id="F6-qjhK5z2D8PZceFWj1-114" value="" style="shape=image;verticalLabelPosition=bottom;labelBackgroundColor=default;verticalAlign=top;aspect=fixed;imageAspect=0;editableCssRules=.*;image=data:image/svg+xml,PHN2ZyB4bWxuczp4bGluaz0iaHR0cDovL3d3dy53My5vcmcvMTk5OS94bGluayIgeG1sbnM9Imh0dHA6Ly93d3cudzMub3JnLzIwMDAvc3ZnIiB2aWV3Qm94PSIwIDAgNTIwIDUyMCIgaGVpZ2h0PSI1MjAiIHdpZHRoPSI1MjAiPiYjeGE7PHJlY3QgZmlsbD0iI2ZmZmZmZiIgaGVpZ2h0PSI1MjAiIHdpZHRoPSI1MjAiIHk9IjAiIHg9IjAiLz4mI3hhOzxkZWZzPiYjeGE7PHJlY3QgaGVpZ2h0PSI4IiB3aWR0aD0iOCIgaWQ9InAiLz4mI3hhOzwvZGVmcz4mI3hhOzxnIGZpbGw9IiMwMDAwMDAiPiYjeGE7PHVzZSB5PSIzMiIgeD0iMzIiIHhsaW5rOmhyZWY9IiNwIi8+JiN4YTs8dXNlIHk9IjQwIiB4PSIzMiIgeGxpbms6aHJlZj0iI3AiLz4mI3hhOzx1c2UgeT0iNDgiIHg9IjMyIiB4bGluazpocmVmPSIjcCIvPiYjeGE7PHVzZSB5PSI1NiIgeD0iMzIiIHhsaW5rOmhyZWY9IiNwIi8+JiN4YTs8dXNlIHk9IjY0IiB4PSIzMiIgeGxpbms6aHJlZj0iI3AiLz4mI3hhOzx1c2UgeT0iNzIiIHg9IjMyIiB4bGluazpocmVmPSIjcCIvPiYjeGE7PHVzZSB5PSI4MCIgeD0iMzIiIHhsaW5rOmhyZWY9IiNwIi8+JiN4YTs8dXNlIHk9IjEyMCIgeD0iMzIiIHhsaW5rOmhyZWY9IiNwIi8+JiN4YTs8dXNlIHk9IjEyOCIgeD0iMzIiIHhsaW5rOmhyZWY9IiNwIi8+JiN4YTs8dXNlIHk9IjEzNiIgeD0iMzIiIHhsaW5rOmhyZWY9IiNwIi8+JiN4YTs8dXNlIHk9IjE0NCIgeD0iMzIiIHhsaW5rOmhyZWY9IiNwIi8+JiN4YTs8dXNlIHk9IjE2MCIgeD0iMzIiIHhsaW5rOmhyZWY9IiNwIi8+JiN4YTs8dXNlIHk9IjE2OCIgeD0iMzIiIHhsaW5rOmhyZWY9IiNwIi8+JiN4YTs8dXNlIHk9IjE3NiIgeD0iMzIiIHhsaW5rOmhyZWY9IiNwIi8+JiN4YTs8dXNlIHk9IjIzMiIgeD0iMzIiIHhsaW5rOmhyZWY9IiNwIi8+JiN4YTs8dXNlIHk9IjI0OCIgeD0iMzIiIHhsaW5rOmhyZWY9IiNwIi8+JiN4YTs8dXNlIHk9IjI4MCIgeD0iMzIiIHhsaW5rOmhyZWY9IiNwIi8+JiN4YTs8dXNlIHk9IjI4OCIgeD0iMzIiIHhsaW5rOmhyZWY9IiNwIi8+JiN4YTs8dXNlIHk9IjMxMiIgeD0iMzIiIHhsaW5rOmhyZWY9IiNwIi8+JiN4YTs8dXNlIHk9IjMyOCIgeD0iMzIiIHhsaW5rOmhyZWY9IiNwIi8+JiN4YTs8dXNlIHk9IjMzNiIgeD0iMzIiIHhsaW5rOmhyZWY9IiNwIi8+JiN4YTs8dXNlIHk9IjM2MCIgeD0iMzIiIHhsaW5rOmhyZWY9IiNwIi8+JiN4YTs8dXNlIHk9IjM4NCIgeD0iMzIiIHhsaW5rOmhyZWY9IiNwIi8+JiN4YTs8dXNlIHk9IjQwMCIgeD0iMzIiIHhsaW5rOmhyZWY9IiNwIi8+JiN4YTs8dXNlIHk9IjQwOCIgeD0iMzIiIHhsaW5rOmhyZWY9IiNwIi8+JiN4YTs8dXNlIHk9IjQzMiIgeD0iMzIiIHhsaW5rOmhyZWY9IiNwIi8+JiN4YTs8dXNlIHk9IjQ0MCIgeD0iMzIiIHhsaW5rOmhyZWY9IiNwIi8+JiN4YTs8dXNlIHk9IjQ0OCIgeD0iMzIiIHhsaW5rOmhyZWY9IiNwIi8+JiN4YTs8dXNlIHk9IjQ1NiIgeD0iMzIiIHhsaW5rOmhyZWY9IiNwIi8+JiN4YTs8dXNlIHk9IjQ2NCIgeD0iMzIiIHhsaW5rOmhyZWY9IiNwIi8+JiN4YTs8dXNlIHk9IjQ3MiIgeD0iMzIiIHhsaW5rOmhyZWY9IiNwIi8+JiN4YTs8dXNlIHk9IjQ4MCIgeD0iMzIiIHhsaW5rOmhyZWY9IiNwIi8+JiN4YTs8dXNlIHk9IjMyIiB4PSI0MCIgeGxpbms6aHJlZj0iI3AiLz4mI3hhOzx1c2UgeT0iODAiIHg9IjQwIiB4bGluazpocmVmPSIjcCIvPiYjeGE7PHVzZSB5PSIxMTIiIHg9IjQwIiB4bGluazpocmVmPSIjcCIvPiYjeGE7PHVzZSB5PSIxMjgiIHg9IjQwIiB4bGluazpocmVmPSIjcCIvPiYjeGE7PHVzZSB5PSIxMzYiIHg9IjQwIiB4bGluazpocmVmPSIjcCIvPiYjeGE7PHVzZSB5PSIxNjAiIHg9IjQwIiB4bGluazpocmVmPSIjcCIvPiYjeGE7PHVzZSB5PSIxNzYiIHg9IjQwIiB4bGluazpocmVmPSIjcCIvPiYjeGE7PHVzZSB5PSIxODQiIHg9IjQwIiB4bGluazpocmVmPSIjcCIvPiYjeGE7PHVzZSB5PSIyMDAiIHg9IjQwIiB4bGluazpocmVmPSIjcCIvPiYjeGE7PHVzZSB5PSIyMzIiIHg9IjQwIiB4bGluazpocmVmPSIjcCIvPiYjeGE7PHVzZSB5PSIyNDAiIHg9IjQwIiB4bGluazpocmVmPSIjcCIvPiYjeGE7PHVzZSB5PSIyNjQiIHg9IjQwIiB4bGluazpocmVmPSIjcCIvPiYjeGE7PHVzZSB5PSIyODAiIHg9IjQwIiB4bGluazpocmVmPSIjcCIvPiYjeGE7PHVzZSB5PSIyODgiIHg9IjQwIiB4bGluazpocmVmPSIjcCIvPiYjeGE7PHVzZSB5PSIyOTYiIHg9IjQwIiB4bGluazpocmVmPSIjcCIvPiYjeGE7PHVzZSB5PSIzMjAiIHg9IjQwIiB4bGluazpocmVmPSIjcCIvPiYjeGE7PHVzZSB5PSIzMjgiIHg9IjQwIiB4bGluazpocmVmPSIjcCIvPiYjeGE7PHVzZSB5PSIzMzYiIHg9IjQwIiB4bGluazpocmVmPSIjcCIvPiYjeGE7PHVzZSB5PSIzNDQiIHg9IjQwIiB4bGluazpocmVmPSIjcCIvPiYjeGE7PHVzZSB5PSIzNjAiIHg9IjQwIiB4bGluazpocmVmPSIjcCIvPiYjeGE7PHVzZSB5PSIzOTIiIHg9IjQwIiB4bGluazpocmVmPSIjcCIvPiYjeGE7PHVzZSB5PSI0MDgiIHg9IjQwIiB4bGluazpocmVmPSIjcCIvPiYjeGE7PHVzZSB5PSI0MzIiIHg9IjQwIiB4bGluazpocmVmPSIjcCIvPiYjeGE7PHVzZSB5PSI0ODAiIHg9IjQwIiB4bGluazpocmVmPSIjcCIvPiYjeGE7PHVzZSB5PSIzMiIgeD0iNDgiIHhsaW5rOmhyZWY9IiNwIi8+JiN4YTs8dXNlIHk9IjQ4IiB4PSI0OCIgeGxpbms6aHJlZj0iI3AiLz4mI3hhOzx1c2UgeT0iNTYiIHg9IjQ4IiB4bGluazpocmVmPSIjcCIvPiYjeGE7PHVzZSB5PSI2NCIgeD0iNDgiIHhsaW5rOmhyZWY9IiNwIi8+JiN4YTs8dXNlIHk9IjgwIiB4PSI0OCIgeGxpbms6aHJlZj0iI3AiLz4mI3hhOzx1c2UgeT0iMTUyIiB4PSI0OCIgeGxpbms6aHJlZj0iI3AiLz4mI3hhOzx1c2UgeT0iMTYwIiB4PSI0OCIgeGxpbms6aHJlZj0iI3AiLz4mI3hhOzx1c2UgeT0iMTY4IiB4PSI0OCIgeGxpbms6aHJlZj0iI3AiLz4mI3hhOzx1c2UgeT0iMTkyIiB4PSI0OCIgeGxpbms6aHJlZj0iI3AiLz4mI3hhOzx1c2UgeT0iMjAwIiB4PSI0OCIgeGxpbms6aHJlZj0iI3AiLz4mI3hhOzx1c2UgeT0iMjI0IiB4PSI0OCIgeGxpbms6aHJlZj0iI3AiLz4mI3hhOzx1c2UgeT0iMjY0IiB4PSI0OCIgeGxpbms6aHJlZj0iI3AiLz4mI3hhOzx1c2UgeT0iMjgwIiB4PSI0OCIgeGxpbms6aHJlZj0iI3AiLz4mI3hhOzx1c2UgeT0iMjg4IiB4PSI0OCIgeGxpbms6aHJlZj0iI3AiLz4mI3hhOzx1c2UgeT0iMjk2IiB4PSI0OCIgeGxpbms6aHJlZj0iI3AiLz4mI3hhOzx1c2UgeT0iMzA0IiB4PSI0OCIgeGxpbms6aHJlZj0iI3AiLz4mI3hhOzx1c2UgeT0iMzEyIiB4PSI0OCIgeGxpbms6aHJlZj0iI3AiLz4mI3hhOzx1c2UgeT0iMzI4IiB4PSI0OCIgeGxpbms6aHJlZj0iI3AiLz4mI3hhOzx1c2UgeT0iMzM2IiB4PSI0OCIgeGxpbms6aHJlZj0iI3AiLz4mI3hhOzx1c2UgeT0iMzQ0IiB4PSI0OCIgeGxpbms6aHJlZj0iI3AiLz4mI3hhOzx1c2UgeT0iMzUyIiB4PSI0OCIgeGxpbms6aHJlZj0iI3AiLz4mI3hhOzx1c2UgeT0iMzg0IiB4PSI0OCIgeGxpbms6aHJlZj0iI3AiLz4mI3hhOzx1c2UgeT0iMzkyIiB4PSI0OCIgeGxpbms6aHJlZj0iI3AiLz4mI3hhOzx1c2UgeT0iNDAwIiB4PSI0OCIgeGxpbms6aHJlZj0iI3AiLz4mI3hhOzx1c2UgeT0iNDA4IiB4PSI0OCIgeGxpbms6aHJlZj0iI3AiLz4mI3hhOzx1c2UgeT0iNDMyIiB4PSI0OCIgeGxpbms6aHJlZj0iI3AiLz4mI3hhOzx1c2UgeT0iNDQ4IiB4PSI0OCIgeGxpbms6aHJlZj0iI3AiLz4mI3hhOzx1c2UgeT0iNDU2IiB4PSI0OCIgeGxpbms6aHJlZj0iI3AiLz4mI3hhOzx1c2UgeT0iNDY0IiB4PSI0OCIgeGxpbms6aHJlZj0iI3AiLz4mI3hhOzx1c2UgeT0iNDgwIiB4PSI0OCIgeGxpbms6aHJlZj0iI3AiLz4mI3hhOzx1c2UgeT0iMzIiIHg9IjU2IiB4bGluazpocmVmPSIjcCIvPiYjeGE7PHVzZSB5PSI0OCIgeD0iNTYiIHhsaW5rOmhyZWY9IiNwIi8+JiN4YTs8dXNlIHk9IjU2IiB4PSI1NiIgeGxpbms6aHJlZj0iI3AiLz4mI3hhOzx1c2UgeT0iNjQiIHg9IjU2IiB4bGluazpocmVmPSIjcCIvPiYjeGE7PHVzZSB5PSI4MCIgeD0iNTYiIHhsaW5rOmhyZWY9IiNwIi8+JiN4YTs8dXNlIHk9Ijk2IiB4PSI1NiIgeGxpbms6aHJlZj0iI3AiLz4mI3hhOzx1c2UgeT0iMTA0IiB4PSI1NiIgeGxpbms6aHJlZj0iI3AiLz4mI3hhOzx1c2UgeT0iMTEyIiB4PSI1NiIgeGxpbms6aHJlZj0iI3AiLz4mI3hhOzx1c2UgeT0iMTIwIiB4PSI1NiIgeGxpbms6aHJlZj0iI3AiLz4mI3hhOzx1c2UgeT0iMTQ0IiB4PSI1NiIgeGxpbms6aHJlZj0iI3AiLz4mI3hhOzx1c2UgeT0iMTUyIiB4PSI1NiIgeGxpbms6aHJlZj0iI3AiLz4mI3hhOzx1c2UgeT0iMTYwIiB4PSI1NiIgeGxpbms6aHJlZj0iI3AiLz4mI3hhOzx1c2UgeT0iMTY4IiB4PSI1NiIgeGxpbms6aHJlZj0iI3AiLz4mI3hhOzx1c2UgeT0iMTc2IiB4PSI1NiIgeGxpbms6aHJlZj0iI3AiLz4mI3hhOzx1c2UgeT0iMTg0IiB4PSI1NiIgeGxpbms6aHJlZj0iI3AiLz4mI3hhOzx1c2UgeT0iMTkyIiB4PSI1NiIgeGxpbms6aHJlZj0iI3AiLz4mI3hhOzx1c2UgeT0iMjAwIiB4PSI1NiIgeGxpbms6aHJlZj0iI3AiLz4mI3hhOzx1c2UgeT0iMjMyIiB4PSI1NiIgeGxpbms6aHJlZj0iI3AiLz4mI3hhOzx1c2UgeT0iMjQ4IiB4PSI1NiIgeGxpbms6aHJlZj0iI3AiLz4mI3hhOzx1c2UgeT0iMjU2IiB4PSI1NiIgeGxpbms6aHJlZj0iI3AiLz4mI3hhOzx1c2UgeT0iMjcyIiB4PSI1NiIgeGxpbms6aHJlZj0iI3AiLz4mI3hhOzx1c2UgeT0iMjk2IiB4PSI1NiIgeGxpbms6aHJlZj0iI3AiLz4mI3hhOzx1c2UgeT0iMzIwIiB4PSI1NiIgeGxpbms6aHJlZj0iI3AiLz4mI3hhOzx1c2UgeT0iMzI4IiB4PSI1NiIgeGxpbms6aHJlZj0iI3AiLz4mI3hhOzx1c2UgeT0iMzM2IiB4PSI1NiIgeGxpbms6aHJlZj0iI3AiLz4mI3hhOzx1c2UgeT0iMzUyIiB4PSI1NiIgeGxpbms6aHJlZj0iI3AiLz4mI3hhOzx1c2UgeT0iMzYwIiB4PSI1NiIgeGxpbms6aHJlZj0iI3AiLz4mI3hhOzx1c2UgeT0iMzY4IiB4PSI1NiIgeGxpbms6aHJlZj0iI3AiLz4mI3hhOzx1c2UgeT0iMzc2IiB4PSI1NiIgeGxpbms6aHJlZj0iI3AiLz4mI3hhOzx1c2UgeT0iNDA4IiB4PSI1NiIgeGxpbms6aHJlZj0iI3AiLz4mI3hhOzx1c2UgeT0iNDMyIiB4PSI1NiIgeGxpbms6aHJlZj0iI3AiLz4mI3hhOzx1c2UgeT0iNDQ4IiB4PSI1NiIgeGxpbms6aHJlZj0iI3AiLz4mI3hhOzx1c2UgeT0iNDU2IiB4PSI1NiIgeGxpbms6aHJlZj0iI3AiLz4mI3hhOzx1c2UgeT0iNDY0IiB4PSI1NiIgeGxpbms6aHJlZj0iI3AiLz4mI3hhOzx1c2UgeT0iNDgwIiB4PSI1NiIgeGxpbms6aHJlZj0iI3AiLz4mI3hhOzx1c2UgeT0iMzIiIHg9IjY0IiB4bGluazpocmVmPSIjcCIvPiYjeGE7PHVzZSB5PSI0OCIgeD0iNjQiIHhsaW5rOmhyZWY9IiNwIi8+JiN4YTs8dXNlIHk9IjU2IiB4PSI2NCIgeGxpbms6aHJlZj0iI3AiLz4mI3hhOzx1c2UgeT0iNjQiIHg9IjY0IiB4bGluazpocmVmPSIjcCIvPiYjeGE7PHVzZSB5PSI4MCIgeD0iNjQiIHhsaW5rOmhyZWY9IiNwIi8+JiN4YTs8dXNlIHk9Ijk2IiB4PSI2NCIgeGxpbms6aHJlZj0iI3AiLz4mI3hhOzx1c2UgeT0iMTA0IiB4PSI2NCIgeGxpbms6aHJlZj0iI3AiLz4mI3hhOzx1c2UgeT0iMTYwIiB4PSI2NCIgeGxpbms6aHJlZj0iI3AiLz4mI3hhOzx1c2UgeT0iMTkyIiB4PSI2NCIgeGxpbms6aHJlZj0iI3AiLz4mI3hhOzx1c2UgeT0iMjAwIiB4PSI2NCIgeGxpbms6aHJlZj0iI3AiLz4mI3hhOzx1c2UgeT0iMjA4IiB4PSI2NCIgeGxpbms6aHJlZj0iI3AiLz4mI3hhOzx1c2UgeT0iMjE2IiB4PSI2NCIgeGxpbms6aHJlZj0iI3AiLz4mI3hhOzx1c2UgeT0iMjI0IiB4PSI2NCIgeGxpbms6aHJlZj0iI3AiLz4mI3hhOzx1c2UgeT0iMjQwIiB4PSI2NCIgeGxpbms6aHJlZj0iI3AiLz4mI3hhOzx1c2UgeT0iMjQ4IiB4PSI2NCIgeGxpbms6aHJlZj0iI3AiLz4mI3hhOzx1c2UgeT0iMjU2IiB4PSI2NCIgeGxpbms6aHJlZj0iI3AiLz4mI3hhOzx1c2UgeT0iMjY0IiB4PSI2NCIgeGxpbms6aHJlZj0iI3AiLz4mI3hhOzx1c2UgeT0iMjcyIiB4PSI2NCIgeGxpbms6aHJlZj0iI3AiLz4mI3hhOzx1c2UgeT0iMjgwIiB4PSI2NCIgeGxpbms6aHJlZj0iI3AiLz4mI3hhOzx1c2UgeT0iMjk2IiB4PSI2NCIgeGxpbms6aHJlZj0iI3AiLz4mI3hhOzx1c2UgeT0iMzA0IiB4PSI2NCIgeGxpbms6aHJlZj0iI3AiLz4mI3hhOzx1c2UgeT0iMzEyIiB4PSI2NCIgeGxpbms6aHJlZj0iI3AiLz4mI3hhOzx1c2UgeT0iMzIwIiB4PSI2NCIgeGxpbms6aHJlZj0iI3AiLz4mI3hhOzx1c2UgeT0iMzY4IiB4PSI2NCIgeGxpbms6aHJlZj0iI3AiLz4mI3hhOzx1c2UgeT0iMzg0IiB4PSI2NCIgeGxpbms6aHJlZj0iI3AiLz4mI3hhOzx1c2UgeT0iMzkyIiB4PSI2NCIgeGxpbms6aHJlZj0iI3AiLz4mI3hhOzx1c2UgeT0iNDA4IiB4PSI2NCIgeGxpbms6aHJlZj0iI3AiLz4mI3hhOzx1c2UgeT0iNDMyIiB4PSI2NCIgeGxpbms6aHJlZj0iI3AiLz4mI3hhOzx1c2UgeT0iNDQ4IiB4PSI2NCIgeGxpbms6aHJlZj0iI3AiLz4mI3hhOzx1c2UgeT0iNDU2IiB4PSI2NCIgeGxpbms6aHJlZj0iI3AiLz4mI3hhOzx1c2UgeT0iNDY0IiB4PSI2NCIgeGxpbms6aHJlZj0iI3AiLz4mI3hhOzx1c2UgeT0iNDgwIiB4PSI2NCIgeGxpbms6aHJlZj0iI3AiLz4mI3hhOzx1c2UgeT0iMzIiIHg9IjcyIiB4bGluazpocmVmPSIjcCIvPiYjeGE7PHVzZSB5PSI4MCIgeD0iNzIiIHhsaW5rOmhyZWY9IiNwIi8+JiN4YTs8dXNlIHk9IjEwNCIgeD0iNzIiIHhsaW5rOmhyZWY9IiNwIi8+JiN4YTs8dXNlIHk9IjExMiIgeD0iNzIiIHhsaW5rOmhyZWY9IiNwIi8+JiN4YTs8dXNlIHk9IjE1MiIgeD0iNzIiIHhsaW5rOmhyZWY9IiNwIi8+JiN4YTs8dXNlIHk9IjE2MCIgeD0iNzIiIHhsaW5rOmhyZWY9IiNwIi8+JiN4YTs8dXNlIHk9IjE2OCIgeD0iNzIiIHhsaW5rOmhyZWY9IiNwIi8+JiN4YTs8dXNlIHk9IjE3NiIgeD0iNzIiIHhsaW5rOmhyZWY9IiNwIi8+JiN4YTs8dXNlIHk9IjE5MiIgeD0iNzIiIHhsaW5rOmhyZWY9IiNwIi8+JiN4YTs8dXNlIHk9IjIwMCIgeD0iNzIiIHhsaW5rOmhyZWY9IiNwIi8+JiN4YTs8dXNlIHk9IjIwOCIgeD0iNzIiIHhsaW5rOmhyZWY9IiNwIi8+JiN4YTs8dXNlIHk9IjIyNCIgeD0iNzIiIHhsaW5rOmhyZWY9IiNwIi8+JiN4YTs8dXNlIHk9IjIzMiIgeD0iNzIiIHhsaW5rOmhyZWY9IiNwIi8+JiN4YTs8dXNlIHk9IjI0MCIgeD0iNzIiIHhsaW5rOmhyZWY9IiNwIi8+JiN4YTs8dXNlIHk9IjI3MiIgeD0iNzIiIHhsaW5rOmhyZWY9IiNwIi8+JiN4YTs8dXNlIHk9IjI5NiIgeD0iNzIiIHhsaW5rOmhyZWY9IiNwIi8+JiN4YTs8dXNlIHk9IjMxMiIgeD0iNzIiIHhsaW5rOmhyZWY9IiNwIi8+JiN4YTs8dXNlIHk9IjMyMCIgeD0iNzIiIHhsaW5rOmhyZWY9IiNwIi8+JiN4YTs8dXNlIHk9IjMzNiIgeD0iNzIiIHhsaW5rOmhyZWY9IiNwIi8+JiN4YTs8dXNlIHk9IjM0NCIgeD0iNzIiIHhsaW5rOmhyZWY9IiNwIi8+JiN4YTs8dXNlIHk9IjM1MiIgeD0iNzIiIHhsaW5rOmhyZWY9IiNwIi8+JiN4YTs8dXNlIHk9IjM2MCIgeD0iNzIiIHhsaW5rOmhyZWY9IiNwIi8+JiN4YTs8dXNlIHk9IjM3NiIgeD0iNzIiIHhsaW5rOmhyZWY9IiNwIi8+JiN4YTs8dXNlIHk9IjM4NCIgeD0iNzIiIHhsaW5rOmhyZWY9IiNwIi8+JiN4YTs8dXNlIHk9IjQwMCIgeD0iNzIiIHhsaW5rOmhyZWY9IiNwIi8+JiN4YTs8dXNlIHk9IjQzMiIgeD0iNzIiIHhsaW5rOmhyZWY9IiNwIi8+JiN4YTs8dXNlIHk9IjQ4MCIgeD0iNzIiIHhsaW5rOmhyZWY9IiNwIi8+JiN4YTs8dXNlIHk9IjMyIiB4PSI4MCIgeGxpbms6aHJlZj0iI3AiLz4mI3hhOzx1c2UgeT0iNDAiIHg9IjgwIiB4bGluazpocmVmPSIjcCIvPiYjeGE7PHVzZSB5PSI0OCIgeD0iODAiIHhsaW5rOmhyZWY9IiNwIi8+JiN4YTs8dXNlIHk9IjU2IiB4PSI4MCIgeGxpbms6aHJlZj0iI3AiLz4mI3hhOzx1c2UgeT0iNjQiIHg9IjgwIiB4bGluazpocmVmPSIjcCIvPiYjeGE7PHVzZSB5PSI3MiIgeD0iODAiIHhsaW5rOmhyZWY9IiNwIi8+JiN4YTs8dXNlIHk9IjgwIiB4PSI4MCIgeGxpbms6aHJlZj0iI3AiLz4mI3hhOzx1c2UgeT0iOTYiIHg9IjgwIiB4bGluazpocmVmPSIjcCIvPiYjeGE7PHVzZSB5PSIxMTIiIHg9IjgwIiB4bGluazpocmVmPSIjcCIvPiYjeGE7PHVzZSB5PSIxMjgiIHg9IjgwIiB4bGluazpocmVmPSIjcCIvPiYjeGE7PHVzZSB5PSIxNDQiIHg9IjgwIiB4bGluazpocmVmPSIjcCIvPiYjeGE7PHVzZSB5PSIxNjAiIHg9IjgwIiB4bGluazpocmVmPSIjcCIvPiYjeGE7PHVzZSB5PSIxNzYiIHg9IjgwIiB4bGluazpocmVmPSIjcCIvPiYjeGE7PHVzZSB5PSIxOTIiIHg9IjgwIiB4bGluazpocmVmPSIjcCIvPiYjeGE7PHVzZSB5PSIyMDgiIHg9IjgwIiB4bGluazpocmVmPSIjcCIvPiYjeGE7PHVzZSB5PSIyMjQiIHg9IjgwIiB4bGluazpocmVmPSIjcCIvPiYjeGE7PHVzZSB5PSIyNDAiIHg9IjgwIiB4bGluazpocmVmPSIjcCIvPiYjeGE7PHVzZSB5PSIyNTYiIHg9IjgwIiB4bGluazpocmVmPSIjcCIvPiYjeGE7PHVzZSB5PSIyNzIiIHg9IjgwIiB4bGluazpocmVmPSIjcCIvPiYjeGE7PHVzZSB5PSIyODgiIHg9IjgwIiB4bGluazpocmVmPSIjcCIvPiYjeGE7PHVzZSB5PSIzMDQiIHg9IjgwIiB4bGluazpocmVmPSIjcCIvPiYjeGE7PHVzZSB5PSIzMjAiIHg9IjgwIiB4bGluazpocmVmPSIjcCIvPiYjeGE7PHVzZSB5PSIzMzYiIHg9IjgwIiB4bGluazpocmVmPSIjcCIvPiYjeGE7PHVzZSB5PSIzNTIiIHg9IjgwIiB4bGluazpocmVmPSIjcCIvPiYjeGE7PHVzZSB5PSIzNjgiIHg9IjgwIiB4bGluazpocmVmPSIjcCIvPiYjeGE7PHVzZSB5PSIzODQiIHg9IjgwIiB4bGluazpocmVmPSIjcCIvPiYjeGE7PHVzZSB5PSI0MDAiIHg9IjgwIiB4bGluazpocmVmPSIjcCIvPiYjeGE7PHVzZSB5PSI0MTYiIHg9IjgwIiB4bGluazpocmVmPSIjcCIvPiYjeGE7PHVzZSB5PSI0MzIiIHg9IjgwIiB4bGluazpocmVmPSIjcCIvPiYjeGE7PHVzZSB5PSI0NDAiIHg9IjgwIiB4bGluazpocmVmPSIjcCIvPiYjeGE7PHVzZSB5PSI0NDgiIHg9IjgwIiB4bGluazpocmVmPSIjcCIvPiYjeGE7PHVzZSB5PSI0NTYiIHg9IjgwIiB4bGluazpocmVmPSIjcCIvPiYjeGE7PHVzZSB5PSI0NjQiIHg9IjgwIiB4bGluazpocmVmPSIjcCIvPiYjeGE7PHVzZSB5PSI0NzIiIHg9IjgwIiB4bGluazpocmVmPSIjcCIvPiYjeGE7PHVzZSB5PSI0ODAiIHg9IjgwIiB4bGluazpocmVmPSIjcCIvPiYjeGE7PHVzZSB5PSI5NiIgeD0iODgiIHhsaW5rOmhyZWY9IiNwIi8+JiN4YTs8dXNlIHk9IjExMiIgeD0iODgiIHhsaW5rOmhyZWY9IiNwIi8+JiN4YTs8dXNlIHk9IjEyOCIgeD0iODgiIHhsaW5rOmhyZWY9IiNwIi8+JiN4YTs8dXNlIHk9IjE2MCIgeD0iODgiIHhsaW5rOmhyZWY9IiNwIi8+JiN4YTs8dXNlIHk9IjE2OCIgeD0iODgiIHhsaW5rOmhyZWY9IiNwIi8+JiN4YTs8dXNlIHk9IjE3NiIgeD0iODgiIHhsaW5rOmhyZWY9IiNwIi8+JiN4YTs8dXNlIHk9IjE5MiIgeD0iODgiIHhsaW5rOmhyZWY9IiNwIi8+JiN4YTs8dXNlIHk9IjIwMCIgeD0iODgiIHhsaW5rOmhyZWY9IiNwIi8+JiN4YTs8dXNlIHk9IjIwOCIgeD0iODgiIHhsaW5rOmhyZWY9IiNwIi8+JiN4YTs8dXNlIHk9IjIxNiIgeD0iODgiIHhsaW5rOmhyZWY9IiNwIi8+JiN4YTs8dXNlIHk9IjI0MCIgeD0iODgiIHhsaW5rOmhyZWY9IiNwIi8+JiN4YTs8dXNlIHk9IjI3MiIgeD0iODgiIHhsaW5rOmhyZWY9IiNwIi8+JiN4YTs8dXNlIHk9IjI5NiIgeD0iODgiIHhsaW5rOmhyZWY9IiNwIi8+JiN4YTs8dXNlIHk9IjMwNCIgeD0iODgiIHhsaW5rOmhyZWY9IiNwIi8+JiN4YTs8dXNlIHk9IjMxMiIgeD0iODgiIHhsaW5rOmhyZWY9IiNwIi8+JiN4YTs8dXNlIHk9IjMyMCIgeD0iODgiIHhsaW5rOmhyZWY9IiNwIi8+JiN4YTs8dXNlIHk9IjMyOCIgeD0iODgiIHhsaW5rOmhyZWY9IiNwIi8+JiN4YTs8dXNlIHk9IjM1MiIgeD0iODgiIHhsaW5rOmhyZWY9IiNwIi8+JiN4YTs8dXNlIHk9IjM2MCIgeD0iODgiIHhsaW5rOmhyZWY9IiNwIi8+JiN4YTs8dXNlIHk9IjM2OCIgeD0iODgiIHhsaW5rOmhyZWY9IiNwIi8+JiN4YTs8dXNlIHk9IjM4NCIgeD0iODgiIHhsaW5rOmhyZWY9IiNwIi8+JiN4YTs8dXNlIHk9IjQwOCIgeD0iODgiIHhsaW5rOmhyZWY9IiNwIi8+JiN4YTs8dXNlIHk9IjQ4IiB4PSI5NiIgeGxpbms6aHJlZj0iI3AiLz4mI3hhOzx1c2UgeT0iNTYiIHg9Ijk2IiB4bGluazpocmVmPSIjcCIvPiYjeGE7PHVzZSB5PSI4MCIgeD0iOTYiIHhsaW5rOmhyZWY9IiNwIi8+JiN4YTs8dXNlIHk9IjEwNCIgeD0iOTYiIHhsaW5rOmhyZWY9IiNwIi8+JiN4YTs8dXNlIHk9IjEyMCIgeD0iOTYiIHhsaW5rOmhyZWY9IiNwIi8+JiN4YTs8dXNlIHk9IjEyOCIgeD0iOTYiIHhsaW5rOmhyZWY9IiNwIi8+JiN4YTs8dXNlIHk9IjE1MiIgeD0iOTYiIHhsaW5rOmhyZWY9IiNwIi8+JiN4YTs8dXNlIHk9IjE3NiIgeD0iOTYiIHhsaW5rOmhyZWY9IiNwIi8+JiN4YTs8dXNlIHk9IjE4NCIgeD0iOTYiIHhsaW5rOmhyZWY9IiNwIi8+JiN4YTs8dXNlIHk9IjE5MiIgeD0iOTYiIHhsaW5rOmhyZWY9IiNwIi8+JiN4YTs8dXNlIHk9IjIwMCIgeD0iOTYiIHhsaW5rOmhyZWY9IiNwIi8+JiN4YTs8dXNlIHk9IjIwOCIgeD0iOTYiIHhsaW5rOmhyZWY9IiNwIi8+JiN4YTs8dXNlIHk9IjIyNCIgeD0iOTYiIHhsaW5rOmhyZWY9IiNwIi8+JiN4YTs8dXNlIHk9IjI0MCIgeD0iOTYiIHhsaW5rOmhyZWY9IiNwIi8+JiN4YTs8dXNlIHk9IjI0OCIgeD0iOTYiIHhsaW5rOmhyZWY9IiNwIi8+JiN4YTs8dXNlIHk9IjI1NiIgeD0iOTYiIHhsaW5rOmhyZWY9IiNwIi8+JiN4YTs8dXNlIHk9IjI2NCIgeD0iOTYiIHhsaW5rOmhyZWY9IiNwIi8+JiN4YTs8dXNlIHk9IjI3MiIgeD0iOTYiIHhsaW5rOmhyZWY9IiNwIi8+JiN4YTs8dXNlIHk9IjI4OCIgeD0iOTYiIHhsaW5rOmhyZWY9IiNwIi8+JiN4YTs8dXNlIHk9IjMwNCIgeD0iOTYiIHhsaW5rOmhyZWY9IiNwIi8+JiN4YTs8dXNlIHk9IjMyOCIgeD0iOTYiIHhsaW5rOmhyZWY9IiNwIi8+JiN4YTs8dXNlIHk9IjM3NiIgeD0iOTYiIHhsaW5rOmhyZWY9IiNwIi8+JiN4YTs8dXNlIHk9IjM4NCIgeD0iOTYiIHhsaW5rOmhyZWY9IiNwIi8+JiN4YTs8dXNlIHk9IjM5MiIgeD0iOTYiIHhsaW5rOmhyZWY9IiNwIi8+JiN4YTs8dXNlIHk9IjQwOCIgeD0iOTYiIHhsaW5rOmhyZWY9IiNwIi8+JiN4YTs8dXNlIHk9IjQyNCIgeD0iOTYiIHhsaW5rOmhyZWY9IiNwIi8+JiN4YTs8dXNlIHk9IjQzMiIgeD0iOTYiIHhsaW5rOmhyZWY9IiNwIi8+JiN4YTs8dXNlIHk9IjQ0OCIgeD0iOTYiIHhsaW5rOmhyZWY9IiNwIi8+JiN4YTs8dXNlIHk9IjQ1NiIgeD0iOTYiIHhsaW5rOmhyZWY9IiNwIi8+JiN4YTs8dXNlIHk9IjMyIiB4PSIxMDQiIHhsaW5rOmhyZWY9IiNwIi8+JiN4YTs8dXNlIHk9IjQ4IiB4PSIxMDQiIHhsaW5rOmhyZWY9IiNwIi8+JiN4YTs8dXNlIHk9IjcyIiB4PSIxMDQiIHhsaW5rOmhyZWY9IiNwIi8+JiN4YTs8dXNlIHk9Ijk2IiB4PSIxMDQiIHhsaW5rOmhyZWY9IiNwIi8+JiN4YTs8dXNlIHk9IjEyOCIgeD0iMTA0IiB4bGluazpocmVmPSIjcCIvPiYjeGE7PHVzZSB5PSIxNjAiIHg9IjEwNCIgeGxpbms6aHJlZj0iI3AiLz4mI3hhOzx1c2UgeT0iMTY4IiB4PSIxMDQiIHhsaW5rOmhyZWY9IiNwIi8+JiN4YTs8dXNlIHk9IjE3NiIgeD0iMTA0IiB4bGluazpocmVmPSIjcCIvPiYjeGE7PHVzZSB5PSIxODQiIHg9IjEwNCIgeGxpbms6aHJlZj0iI3AiLz4mI3hhOzx1c2UgeT0iMjAwIiB4PSIxMDQiIHhsaW5rOmhyZWY9IiNwIi8+JiN4YTs8dXNlIHk9IjIyNCIgeD0iMTA0IiB4bGluazpocmVmPSIjcCIvPiYjeGE7PHVzZSB5PSIyMzIiIHg9IjEwNCIgeGxpbms6aHJlZj0iI3AiLz4mI3hhOzx1c2UgeT0iMjQwIiB4PSIxMDQiIHhsaW5rOmhyZWY9IiNwIi8+JiN4YTs8dXNlIHk9IjI0OCIgeD0iMTA0IiB4bGluazpocmVmPSIjcCIvPiYjeGE7PHVzZSB5PSIyNzIiIHg9IjEwNCIgeGxpbms6aHJlZj0iI3AiLz4mI3hhOzx1c2UgeT0iMjgwIiB4PSIxMDQiIHhsaW5rOmhyZWY9IiNwIi8+JiN4YTs8dXNlIHk9IjI4OCIgeD0iMTA0IiB4bGluazpocmVmPSIjcCIvPiYjeGE7PHVzZSB5PSIyOTYiIHg9IjEwNCIgeGxpbms6aHJlZj0iI3AiLz4mI3hhOzx1c2UgeT0iMzIwIiB4PSIxMDQiIHhsaW5rOmhyZWY9IiNwIi8+JiN4YTs8dXNlIHk9IjM0NCIgeD0iMTA0IiB4bGluazpocmVmPSIjcCIvPiYjeGE7PHVzZSB5PSIzNTIiIHg9IjEwNCIgeGxpbms6aHJlZj0iI3AiLz4mI3hhOzx1c2UgeT0iMzc2IiB4PSIxMDQiIHhsaW5rOmhyZWY9IiNwIi8+JiN4YTs8dXNlIHk9IjM5MiIgeD0iMTA0IiB4bGluazpocmVmPSIjcCIvPiYjeGE7PHVzZSB5PSI0MjQiIHg9IjEwNCIgeGxpbms6aHJlZj0iI3AiLz4mI3hhOzx1c2UgeT0iNDMyIiB4PSIxMDQiIHhsaW5rOmhyZWY9IiNwIi8+JiN4YTs8dXNlIHk9IjQ1NiIgeD0iMTA0IiB4bGluazpocmVmPSIjcCIvPiYjeGE7PHVzZSB5PSI0NzIiIHg9IjEwNCIgeGxpbms6aHJlZj0iI3AiLz4mI3hhOzx1c2UgeT0iMzIiIHg9IjExMiIgeGxpbms6aHJlZj0iI3AiLz4mI3hhOzx1c2UgeT0iNTYiIHg9IjExMiIgeGxpbms6aHJlZj0iI3AiLz4mI3hhOzx1c2UgeT0iNjQiIHg9IjExMiIgeGxpbms6aHJlZj0iI3AiLz4mI3hhOzx1c2UgeT0iNzIiIHg9IjExMiIgeGxpbms6aHJlZj0iI3AiLz4mI3hhOzx1c2UgeT0iODAiIHg9IjExMiIgeGxpbms6aHJlZj0iI3AiLz4mI3hhOzx1c2UgeT0iMTIwIiB4PSIxMTIiIHhsaW5rOmhyZWY9IiNwIi8+JiN4YTs8dXNlIHk9IjEzNiIgeD0iMTEyIiB4bGluazpocmVmPSIjcCIvPiYjeGE7PHVzZSB5PSIxNDQiIHg9IjExMiIgeGxpbms6aHJlZj0iI3AiLz4mI3hhOzx1c2UgeT0iMTg0IiB4PSIxMTIiIHhsaW5rOmhyZWY9IiNwIi8+JiN4YTs8dXNlIHk9IjIwMCIgeD0iMTEyIiB4bGluazpocmVmPSIjcCIvPiYjeGE7PHVzZSB5PSIyMDgiIHg9IjExMiIgeGxpbms6aHJlZj0iI3AiLz4mI3hhOzx1c2UgeT0iMjQwIiB4PSIxMTIiIHhsaW5rOmhyZWY9IiNwIi8+JiN4YTs8dXNlIHk9IjI0OCIgeD0iMTEyIiB4bGluazpocmVmPSIjcCIvPiYjeGE7PHVzZSB5PSIyNzIiIHg9IjExMiIgeGxpbms6aHJlZj0iI3AiLz4mI3hhOzx1c2UgeT0iMjgwIiB4PSIxMTIiIHhsaW5rOmhyZWY9IiNwIi8+JiN4YTs8dXNlIHk9IjI4OCIgeD0iMTEyIiB4bGluazpocmVmPSIjcCIvPiYjeGE7PHVzZSB5PSIzMDQiIHg9IjExMiIgeGxpbms6aHJlZj0iI3AiLz4mI3hhOzx1c2UgeT0iMzM2IiB4PSIxMTIiIHhsaW5rOmhyZWY9IiNwIi8+JiN4YTs8dXNlIHk9IjM1MiIgeD0iMTEyIiB4bGluazpocmVmPSIjcCIvPiYjeGE7PHVzZSB5PSIzNjAiIHg9IjExMiIgeGxpbms6aHJlZj0iI3AiLz4mI3hhOzx1c2UgeT0iNDE2IiB4PSIxMTIiIHhsaW5rOmhyZWY9IiNwIi8+JiN4YTs8dXNlIHk9IjQzMiIgeD0iMTEyIiB4bGluazpocmVmPSIjcCIvPiYjeGE7PHVzZSB5PSI0NDgiIHg9IjExMiIgeGxpbms6aHJlZj0iI3AiLz4mI3hhOzx1c2UgeT0iNDU2IiB4PSIxMTIiIHhsaW5rOmhyZWY9IiNwIi8+JiN4YTs8dXNlIHk9IjQ2NCIgeD0iMTEyIiB4bGluazpocmVmPSIjcCIvPiYjeGE7PHVzZSB5PSI0MCIgeD0iMTIwIiB4bGluazpocmVmPSIjcCIvPiYjeGE7PHVzZSB5PSI0OCIgeD0iMTIwIiB4bGluazpocmVmPSIjcCIvPiYjeGE7PHVzZSB5PSI2NCIgeD0iMTIwIiB4bGluazpocmVmPSIjcCIvPiYjeGE7PHVzZSB5PSI3MiIgeD0iMTIwIiB4bGluazpocmVmPSIjcCIvPiYjeGE7PHVzZSB5PSI5NiIgeD0iMTIwIiB4bGluazpocmVmPSIjcCIvPiYjeGE7PHVzZSB5PSIxMDQiIHg9IjEyMCIgeGxpbms6aHJlZj0iI3AiLz4mI3hhOzx1c2UgeT0iMTEyIiB4PSIxMjAiIHhsaW5rOmhyZWY9IiNwIi8+JiN4YTs8dXNlIHk9IjEyMCIgeD0iMTIwIiB4bGluazpocmVmPSIjcCIvPiYjeGE7PHVzZSB5PSIxNDQiIHg9IjEyMCIgeGxpbms6aHJlZj0iI3AiLz4mI3hhOzx1c2UgeT0iMTc2IiB4PSIxMjAiIHhsaW5rOmhyZWY9IiNwIi8+JiN4YTs8dXNlIHk9IjE5MiIgeD0iMTIwIiB4bGluazpocmVmPSIjcCIvPiYjeGE7PHVzZSB5PSIyMzIiIHg9IjEyMCIgeGxpbms6aHJlZj0iI3AiLz4mI3hhOzx1c2UgeT0iMjU2IiB4PSIxMjAiIHhsaW5rOmhyZWY9IiNwIi8+JiN4YTs8dXNlIHk9IjI2NCIgeD0iMTIwIiB4bGluazpocmVmPSIjcCIvPiYjeGE7PHVzZSB5PSIyNzIiIHg9IjEyMCIgeGxpbms6aHJlZj0iI3AiLz4mI3hhOzx1c2UgeT0iMjg4IiB4PSIxMjAiIHhsaW5rOmhyZWY9IiNwIi8+JiN4YTs8dXNlIHk9IjMyMCIgeD0iMTIwIiB4bGluazpocmVmPSIjcCIvPiYjeGE7PHVzZSB5PSIzNjAiIHg9IjEyMCIgeGxpbms6aHJlZj0iI3AiLz4mI3hhOzx1c2UgeT0iMzg0IiB4PSIxMjAiIHhsaW5rOmhyZWY9IiNwIi8+JiN4YTs8dXNlIHk9IjQwOCIgeD0iMTIwIiB4bGluazpocmVmPSIjcCIvPiYjeGE7PHVzZSB5PSI0MjQiIHg9IjEyMCIgeGxpbms6aHJlZj0iI3AiLz4mI3hhOzx1c2UgeT0iNDMyIiB4PSIxMjAiIHhsaW5rOmhyZWY9IiNwIi8+JiN4YTs8dXNlIHk9IjQ0MCIgeD0iMTIwIiB4bGluazpocmVmPSIjcCIvPiYjeGE7PHVzZSB5PSI0NjQiIHg9IjEyMCIgeGxpbms6aHJlZj0iI3AiLz4mI3hhOzx1c2UgeT0iNDcyIiB4PSIxMjAiIHhsaW5rOmhyZWY9IiNwIi8+JiN4YTs8dXNlIHk9IjQ4IiB4PSIxMjgiIHhsaW5rOmhyZWY9IiNwIi8+JiN4YTs8dXNlIHk9IjY0IiB4PSIxMjgiIHhsaW5rOmhyZWY9IiNwIi8+JiN4YTs8dXNlIHk9IjcyIiB4PSIxMjgiIHhsaW5rOmhyZWY9IiNwIi8+JiN4YTs8dXNlIHk9IjgwIiB4PSIxMjgiIHhsaW5rOmhyZWY9IiNwIi8+JiN4YTs8dXNlIHk9Ijg4IiB4PSIxMjgiIHhsaW5rOmhyZWY9IiNwIi8+JiN4YTs8dXNlIHk9IjEyMCIgeD0iMTI4IiB4bGluazpocmVmPSIjcCIvPiYjeGE7PHVzZSB5PSIxNDQiIHg9IjEyOCIgeGxpbms6aHJlZj0iI3AiLz4mI3hhOzx1c2UgeT0iMTYwIiB4PSIxMjgiIHhsaW5rOmhyZWY9IiNwIi8+JiN4YTs8dXNlIHk9IjE2OCIgeD0iMTI4IiB4bGluazpocmVmPSIjcCIvPiYjeGE7PHVzZSB5PSIxNzYiIHg9IjEyOCIgeGxpbms6aHJlZj0iI3AiLz4mI3hhOzx1c2UgeT0iMTkyIiB4PSIxMjgiIHhsaW5rOmhyZWY9IiNwIi8+JiN4YTs8dXNlIHk9IjIwMCIgeD0iMTI4IiB4bGluazpocmVmPSIjcCIvPiYjeGE7PHVzZSB5PSIyMDgiIHg9IjEyOCIgeGxpbms6aHJlZj0iI3AiLz4mI3hhOzx1c2UgeT0iMjI0IiB4PSIxMjgiIHhsaW5rOmhyZWY9IiNwIi8+JiN4YTs8dXNlIHk9IjIzMiIgeD0iMTI4IiB4bGluazpocmVmPSIjcCIvPiYjeGE7PHVzZSB5PSIyNDgiIHg9IjEyOCIgeGxpbms6aHJlZj0iI3AiLz4mI3hhOzx1c2UgeT0iMjk2IiB4PSIxMjgiIHhsaW5rOmhyZWY9IiNwIi8+JiN4YTs8dXNlIHk9IjMxMiIgeD0iMTI4IiB4bGluazpocmVmPSIjcCIvPiYjeGE7PHVzZSB5PSIzMjAiIHg9IjEyOCIgeGxpbms6aHJlZj0iI3AiLz4mI3hhOzx1c2UgeT0iMzQ0IiB4PSIxMjgiIHhsaW5rOmhyZWY9IiNwIi8+JiN4YTs8dXNlIHk9IjM2OCIgeD0iMTI4IiB4bGluazpocmVmPSIjcCIvPiYjeGE7PHVzZSB5PSIzODQiIHg9IjEyOCIgeGxpbms6aHJlZj0iI3AiLz4mI3hhOzx1c2UgeT0iNDAwIiB4PSIxMjgiIHhsaW5rOmhyZWY9IiNwIi8+JiN4YTs8dXNlIHk9IjQxNiIgeD0iMTI4IiB4bGluazpocmVmPSIjcCIvPiYjeGE7PHVzZSB5PSI0MjQiIHg9IjEyOCIgeGxpbms6aHJlZj0iI3AiLz4mI3hhOzx1c2UgeT0iNDQwIiB4PSIxMjgiIHhsaW5rOmhyZWY9IiNwIi8+JiN4YTs8dXNlIHk9IjQ0OCIgeD0iMTI4IiB4bGluazpocmVmPSIjcCIvPiYjeGE7PHVzZSB5PSI0NTYiIHg9IjEyOCIgeGxpbms6aHJlZj0iI3AiLz4mI3hhOzx1c2UgeT0iNDgwIiB4PSIxMjgiIHhsaW5rOmhyZWY9IiNwIi8+JiN4YTs8dXNlIHk9IjU2IiB4PSIxMzYiIHhsaW5rOmhyZWY9IiNwIi8+JiN4YTs8dXNlIHk9Ijg4IiB4PSIxMzYiIHhsaW5rOmhyZWY9IiNwIi8+JiN4YTs8dXNlIHk9Ijk2IiB4PSIxMzYiIHhsaW5rOmhyZWY9IiNwIi8+JiN4YTs8dXNlIHk9IjEwNCIgeD0iMTM2IiB4bGluazpocmVmPSIjcCIvPiYjeGE7PHVzZSB5PSIxMTIiIHg9IjEzNiIgeGxpbms6aHJlZj0iI3AiLz4mI3hhOzx1c2UgeT0iMTIwIiB4PSIxMzYiIHhsaW5rOmhyZWY9IiNwIi8+JiN4YTs8dXNlIHk9IjEyOCIgeD0iMTM2IiB4bGluazpocmVmPSIjcCIvPiYjeGE7PHVzZSB5PSIxMzYiIHg9IjEzNiIgeGxpbms6aHJlZj0iI3AiLz4mI3hhOzx1c2UgeT0iMTUyIiB4PSIxMzYiIHhsaW5rOmhyZWY9IiNwIi8+JiN4YTs8dXNlIHk9IjE2MCIgeD0iMTM2IiB4bGluazpocmVmPSIjcCIvPiYjeGE7PHVzZSB5PSIxNzYiIHg9IjEzNiIgeGxpbms6aHJlZj0iI3AiLz4mI3hhOzx1c2UgeT0iMTg0IiB4PSIxMzYiIHhsaW5rOmhyZWY9IiNwIi8+JiN4YTs8dXNlIHk9IjIwMCIgeD0iMTM2IiB4bGluazpocmVmPSIjcCIvPiYjeGE7PHVzZSB5PSIyNDAiIHg9IjEzNiIgeGxpbms6aHJlZj0iI3AiLz4mI3hhOzx1c2UgeT0iMjQ4IiB4PSIxMzYiIHhsaW5rOmhyZWY9IiNwIi8+JiN4YTs8dXNlIHk9IjI2NCIgeD0iMTM2IiB4bGluazpocmVmPSIjcCIvPiYjeGE7PHVzZSB5PSIyODAiIHg9IjEzNiIgeGxpbms6aHJlZj0iI3AiLz4mI3hhOzx1c2UgeT0iMjg4IiB4PSIxMzYiIHhsaW5rOmhyZWY9IiNwIi8+JiN4YTs8dXNlIHk9IjI5NiIgeD0iMTM2IiB4bGluazpocmVmPSIjcCIvPiYjeGE7PHVzZSB5PSIzMDQiIHg9IjEzNiIgeGxpbms6aHJlZj0iI3AiLz4mI3hhOzx1c2UgeT0iMzI4IiB4PSIxMzYiIHhsaW5rOmhyZWY9IiNwIi8+JiN4YTs8dXNlIHk9IjMzNiIgeD0iMTM2IiB4bGluazpocmVmPSIjcCIvPiYjeGE7PHVzZSB5PSIzNDQiIHg9IjEzNiIgeGxpbms6aHJlZj0iI3AiLz4mI3hhOzx1c2UgeT0iMzg0IiB4PSIxMzYiIHhsaW5rOmhyZWY9IiNwIi8+JiN4YTs8dXNlIHk9IjQxNiIgeD0iMTM2IiB4bGluazpocmVmPSIjcCIvPiYjeGE7PHVzZSB5PSI0MzIiIHg9IjEzNiIgeGxpbms6aHJlZj0iI3AiLz4mI3hhOzx1c2UgeT0iNDQwIiB4PSIxMzYiIHhsaW5rOmhyZWY9IiNwIi8+JiN4YTs8dXNlIHk9IjQ1NiIgeD0iMTM2IiB4bGluazpocmVmPSIjcCIvPiYjeGE7PHVzZSB5PSI0NjQiIHg9IjEzNiIgeGxpbms6aHJlZj0iI3AiLz4mI3hhOzx1c2UgeT0iMzIiIHg9IjE0NCIgeGxpbms6aHJlZj0iI3AiLz4mI3hhOzx1c2UgeT0iNDAiIHg9IjE0NCIgeGxpbms6aHJlZj0iI3AiLz4mI3hhOzx1c2UgeT0iNDgiIHg9IjE0NCIgeGxpbms6aHJlZj0iI3AiLz4mI3hhOzx1c2UgeT0iNjQiIHg9IjE0NCIgeGxpbms6aHJlZj0iI3AiLz4mI3hhOzx1c2UgeT0iNzIiIHg9IjE0NCIgeGxpbms6aHJlZj0iI3AiLz4mI3hhOzx1c2UgeT0iODAiIHg9IjE0NCIgeGxpbms6aHJlZj0iI3AiLz4mI3hhOzx1c2UgeT0iOTYiIHg9IjE0NCIgeGxpbms6aHJlZj0iI3AiLz4mI3hhOzx1c2UgeT0iMTEyIiB4PSIxNDQiIHhsaW5rOmhyZWY9IiNwIi8+JiN4YTs8dXNlIHk9IjEyMCIgeD0iMTQ0IiB4bGluazpocmVmPSIjcCIvPiYjeGE7PHVzZSB5PSIxNDQiIHg9IjE0NCIgeGxpbms6aHJlZj0iI3AiLz4mI3hhOzx1c2UgeT0iMjA4IiB4PSIxNDQiIHhsaW5rOmhyZWY9IiNwIi8+JiN4YTs8dXNlIHk9IjIzMiIgeD0iMTQ0IiB4bGluazpocmVmPSIjcCIvPiYjeGE7PHVzZSB5PSIyNDgiIHg9IjE0NCIgeGxpbms6aHJlZj0iI3AiLz4mI3hhOzx1c2UgeT0iMjY0IiB4PSIxNDQiIHhsaW5rOmhyZWY9IiNwIi8+JiN4YTs8dXNlIHk9IjI4MCIgeD0iMTQ0IiB4bGluazpocmVmPSIjcCIvPiYjeGE7PHVzZSB5PSIzMDQiIHg9IjE0NCIgeGxpbms6aHJlZj0iI3AiLz4mI3hhOzx1c2UgeT0iMzIwIiB4PSIxNDQiIHhsaW5rOmhyZWY9IiNwIi8+JiN4YTs8dXNlIHk9IjMzNiIgeD0iMTQ0IiB4bGluazpocmVmPSIjcCIvPiYjeGE7PHVzZSB5PSIzNDQiIHg9IjE0NCIgeGxpbms6aHJlZj0iI3AiLz4mI3hhOzx1c2UgeT0iMzUyIiB4PSIxNDQiIHhsaW5rOmhyZWY9IiNwIi8+JiN4YTs8dXNlIHk9IjM3NiIgeD0iMTQ0IiB4bGluazpocmVmPSIjcCIvPiYjeGE7PHVzZSB5PSI0MDAiIHg9IjE0NCIgeGxpbms6aHJlZj0iI3AiLz4mI3hhOzx1c2UgeT0iNDE2IiB4PSIxNDQiIHhsaW5rOmhyZWY9IiNwIi8+JiN4YTs8dXNlIHk9IjQzMiIgeD0iMTQ0IiB4bGluazpocmVmPSIjcCIvPiYjeGE7PHVzZSB5PSI0NDAiIHg9IjE0NCIgeGxpbms6aHJlZj0iI3AiLz4mI3hhOzx1c2UgeT0iNDQ4IiB4PSIxNDQiIHhsaW5rOmhyZWY9IiNwIi8+JiN4YTs8dXNlIHk9IjQ3MiIgeD0iMTQ0IiB4bGluazpocmVmPSIjcCIvPiYjeGE7PHVzZSB5PSI0ODAiIHg9IjE0NCIgeGxpbms6aHJlZj0iI3AiLz4mI3hhOzx1c2UgeT0iMzIiIHg9IjE1MiIgeGxpbms6aHJlZj0iI3AiLz4mI3hhOzx1c2UgeT0iNDgiIHg9IjE1MiIgeGxpbms6aHJlZj0iI3AiLz4mI3hhOzx1c2UgeT0iNzIiIHg9IjE1MiIgeGxpbms6aHJlZj0iI3AiLz4mI3hhOzx1c2UgeT0iMTUyIiB4PSIxNTIiIHhsaW5rOmhyZWY9IiNwIi8+JiN4YTs8dXNlIHk9IjE2MCIgeD0iMTUyIiB4bGluazpocmVmPSIjcCIvPiYjeGE7PHVzZSB5PSIxNjgiIHg9IjE1MiIgeGxpbms6aHJlZj0iI3AiLz4mI3hhOzx1c2UgeT0iMTg0IiB4PSIxNTIiIHhsaW5rOmhyZWY9IiNwIi8+JiN4YTs8dXNlIHk9IjIxNiIgeD0iMTUyIiB4bGluazpocmVmPSIjcCIvPiYjeGE7PHVzZSB5PSIyMjQiIHg9IjE1MiIgeGxpbms6aHJlZj0iI3AiLz4mI3hhOzx1c2UgeT0iMjMyIiB4PSIxNTIiIHhsaW5rOmhyZWY9IiNwIi8+JiN4YTs8dXNlIHk9IjI1NiIgeD0iMTUyIiB4bGluazpocmVmPSIjcCIvPiYjeGE7PHVzZSB5PSIyNjQiIHg9IjE1MiIgeGxpbms6aHJlZj0iI3AiLz4mI3hhOzx1c2UgeT0iMjcyIiB4PSIxNTIiIHhsaW5rOmhyZWY9IiNwIi8+JiN4YTs8dXNlIHk9IjI4OCIgeD0iMTUyIiB4bGluazpocmVmPSIjcCIvPiYjeGE7PHVzZSB5PSIzMDQiIHg9IjE1MiIgeGxpbms6aHJlZj0iI3AiLz4mI3hhOzx1c2UgeT0iMzEyIiB4PSIxNTIiIHhsaW5rOmhyZWY9IiNwIi8+JiN4YTs8dXNlIHk9IjMyOCIgeD0iMTUyIiB4bGluazpocmVmPSIjcCIvPiYjeGE7PHVzZSB5PSIzMzYiIHg9IjE1MiIgeGxpbms6aHJlZj0iI3AiLz4mI3hhOzx1c2UgeT0iMzYwIiB4PSIxNTIiIHhsaW5rOmhyZWY9IiNwIi8+JiN4YTs8dXNlIHk9IjM3NiIgeD0iMTUyIiB4bGluazpocmVmPSIjcCIvPiYjeGE7PHVzZSB5PSIzODQiIHg9IjE1MiIgeGxpbms6aHJlZj0iI3AiLz4mI3hhOzx1c2UgeT0iNDE2IiB4PSIxNTIiIHhsaW5rOmhyZWY9IiNwIi8+JiN4YTs8dXNlIHk9IjQyNCIgeD0iMTUyIiB4bGluazpocmVmPSIjcCIvPiYjeGE7PHVzZSB5PSI0MzIiIHg9IjE1MiIgeGxpbms6aHJlZj0iI3AiLz4mI3hhOzx1c2UgeT0iNDQwIiB4PSIxNTIiIHhsaW5rOmhyZWY9IiNwIi8+JiN4YTs8dXNlIHk9IjQ2NCIgeD0iMTUyIiB4bGluazpocmVmPSIjcCIvPiYjeGE7PHVzZSB5PSI0NzIiIHg9IjE1MiIgeGxpbms6aHJlZj0iI3AiLz4mI3hhOzx1c2UgeT0iNDgwIiB4PSIxNTIiIHhsaW5rOmhyZWY9IiNwIi8+JiN4YTs8dXNlIHk9IjMyIiB4PSIxNjAiIHhsaW5rOmhyZWY9IiNwIi8+JiN4YTs8dXNlIHk9IjQwIiB4PSIxNjAiIHhsaW5rOmhyZWY9IiNwIi8+JiN4YTs8dXNlIHk9IjQ4IiB4PSIxNjAiIHhsaW5rOmhyZWY9IiNwIi8+JiN4YTs8dXNlIHk9IjY0IiB4PSIxNjAiIHhsaW5rOmhyZWY9IiNwIi8+JiN4YTs8dXNlIHk9IjcyIiB4PSIxNjAiIHhsaW5rOmhyZWY9IiNwIi8+JiN4YTs8dXNlIHk9IjgwIiB4PSIxNjAiIHhsaW5rOmhyZWY9IiNwIi8+JiN4YTs8dXNlIHk9Ijg4IiB4PSIxNjAiIHhsaW5rOmhyZWY9IiNwIi8+JiN4YTs8dXNlIHk9IjExMiIgeD0iMTYwIiB4bGluazpocmVmPSIjcCIvPiYjeGE7PHVzZSB5PSIxMjgiIHg9IjE2MCIgeGxpbms6aHJlZj0iI3AiLz4mI3hhOzx1c2UgeT0iMTM2IiB4PSIxNjAiIHhsaW5rOmhyZWY9IiNwIi8+JiN4YTs8dXNlIHk9IjE3NiIgeD0iMTYwIiB4bGluazpocmVmPSIjcCIvPiYjeGE7PHVzZSB5PSIyMDgiIHg9IjE2MCIgeGxpbms6aHJlZj0iI3AiLz4mI3hhOzx1c2UgeT0iMjE2IiB4PSIxNjAiIHhsaW5rOmhyZWY9IiNwIi8+JiN4YTs8dXNlIHk9IjIyNCIgeD0iMTYwIiB4bGluazpocmVmPSIjcCIvPiYjeGE7PHVzZSB5PSIyMzIiIHg9IjE2MCIgeGxpbms6aHJlZj0iI3AiLz4mI3hhOzx1c2UgeT0iMjU2IiB4PSIxNjAiIHhsaW5rOmhyZWY9IiNwIi8+JiN4YTs8dXNlIHk9IjI3MiIgeD0iMTYwIiB4bGluazpocmVmPSIjcCIvPiYjeGE7PHVzZSB5PSIyOTYiIHg9IjE2MCIgeGxpbms6aHJlZj0iI3AiLz4mI3hhOzx1c2UgeT0iMzA0IiB4PSIxNjAiIHhsaW5rOmhyZWY9IiNwIi8+JiN4YTs8dXNlIHk9IjMyMCIgeD0iMTYwIiB4bGluazpocmVmPSIjcCIvPiYjeGE7PHVzZSB5PSIzMjgiIHg9IjE2MCIgeGxpbms6aHJlZj0iI3AiLz4mI3hhOzx1c2UgeT0iMzUyIiB4PSIxNjAiIHhsaW5rOmhyZWY9IiNwIi8+JiN4YTs8dXNlIHk9IjM2MCIgeD0iMTYwIiB4bGluazpocmVmPSIjcCIvPiYjeGE7PHVzZSB5PSIzNjgiIHg9IjE2MCIgeGxpbms6aHJlZj0iI3AiLz4mI3hhOzx1c2UgeT0iMzg0IiB4PSIxNjAiIHhsaW5rOmhyZWY9IiNwIi8+JiN4YTs8dXNlIHk9IjQ0MCIgeD0iMTYwIiB4bGluazpocmVmPSIjcCIvPiYjeGE7PHVzZSB5PSI0ODAiIHg9IjE2MCIgeGxpbms6aHJlZj0iI3AiLz4mI3hhOzx1c2UgeT0iNDgiIHg9IjE2OCIgeGxpbms6aHJlZj0iI3AiLz4mI3hhOzx1c2UgeT0iNzIiIHg9IjE2OCIgeGxpbms6aHJlZj0iI3AiLz4mI3hhOzx1c2UgeT0iODgiIHg9IjE2OCIgeGxpbms6aHJlZj0iI3AiLz4mI3hhOzx1c2UgeT0iOTYiIHg9IjE2OCIgeGxpbms6aHJlZj0iI3AiLz4mI3hhOzx1c2UgeT0iMTEyIiB4PSIxNjgiIHhsaW5rOmhyZWY9IiNwIi8+JiN4YTs8dXNlIHk9IjEyMCIgeD0iMTY4IiB4bGluazpocmVmPSIjcCIvPiYjeGE7PHVzZSB5PSIxODQiIHg9IjE2OCIgeGxpbms6aHJlZj0iI3AiLz4mI3hhOzx1c2UgeT0iMTkyIiB4PSIxNjgiIHhsaW5rOmhyZWY9IiNwIi8+JiN4YTs8dXNlIHk9IjIwOCIgeD0iMTY4IiB4bGluazpocmVmPSIjcCIvPiYjeGE7PHVzZSB5PSIyMTYiIHg9IjE2OCIgeGxpbms6aHJlZj0iI3AiLz4mI3hhOzx1c2UgeT0iMjMyIiB4PSIxNjgiIHhsaW5rOmhyZWY9IiNwIi8+JiN4YTs8dXNlIHk9IjI0MCIgeD0iMTY4IiB4bGluazpocmVmPSIjcCIvPiYjeGE7PHVzZSB5PSIyNDgiIHg9IjE2OCIgeGxpbms6aHJlZj0iI3AiLz4mI3hhOzx1c2UgeT0iMjU2IiB4PSIxNjgiIHhsaW5rOmhyZWY9IiNwIi8+JiN4YTs8dXNlIHk9IjI2NCIgeD0iMTY4IiB4bGluazpocmVmPSIjcCIvPiYjeGE7PHVzZSB5PSIyNzIiIHg9IjE2OCIgeGxpbms6aHJlZj0iI3AiLz4mI3hhOzx1c2UgeT0iMjk2IiB4PSIxNjgiIHhsaW5rOmhyZWY9IiNwIi8+JiN4YTs8dXNlIHk9IjMwNCIgeD0iMTY4IiB4bGluazpocmVmPSIjcCIvPiYjeGE7PHVzZSB5PSIzMjgiIHg9IjE2OCIgeGxpbms6aHJlZj0iI3AiLz4mI3hhOzx1c2UgeT0iMzM2IiB4PSIxNjgiIHhsaW5rOmhyZWY9IiNwIi8+JiN4YTs8dXNlIHk9IjM2MCIgeD0iMTY4IiB4bGluazpocmVmPSIjcCIvPiYjeGE7PHVzZSB5PSIzNzYiIHg9IjE2OCIgeGxpbms6aHJlZj0iI3AiLz4mI3hhOzx1c2UgeT0iMzg0IiB4PSIxNjgiIHhsaW5rOmhyZWY9IiNwIi8+JiN4YTs8dXNlIHk9IjM5MiIgeD0iMTY4IiB4bGluazpocmVmPSIjcCIvPiYjeGE7PHVzZSB5PSI0MDAiIHg9IjE2OCIgeGxpbms6aHJlZj0iI3AiLz4mI3hhOzx1c2UgeT0iNDA4IiB4PSIxNjgiIHhsaW5rOmhyZWY9IiNwIi8+JiN4YTs8dXNlIHk9IjQ1NiIgeD0iMTY4IiB4bGluazpocmVmPSIjcCIvPiYjeGE7PHVzZSB5PSI0NzIiIHg9IjE2OCIgeGxpbms6aHJlZj0iI3AiLz4mI3hhOzx1c2UgeT0iNDgwIiB4PSIxNjgiIHhsaW5rOmhyZWY9IiNwIi8+JiN4YTs8dXNlIHk9IjQ4IiB4PSIxNzYiIHhsaW5rOmhyZWY9IiNwIi8+JiN4YTs8dXNlIHk9IjU2IiB4PSIxNzYiIHhsaW5rOmhyZWY9IiNwIi8+JiN4YTs8dXNlIHk9IjgwIiB4PSIxNzYiIHhsaW5rOmhyZWY9IiNwIi8+JiN4YTs8dXNlIHk9IjEwNCIgeD0iMTc2IiB4bGluazpocmVmPSIjcCIvPiYjeGE7PHVzZSB5PSIxMzYiIHg9IjE3NiIgeGxpbms6aHJlZj0iI3AiLz4mI3hhOzx1c2UgeT0iMTQ0IiB4PSIxNzYiIHhsaW5rOmhyZWY9IiNwIi8+JiN4YTs8dXNlIHk9IjE1MiIgeD0iMTc2IiB4bGluazpocmVmPSIjcCIvPiYjeGE7PHVzZSB5PSIxNjAiIHg9IjE3NiIgeGxpbms6aHJlZj0iI3AiLz4mI3hhOzx1c2UgeT0iMTY4IiB4PSIxNzYiIHhsaW5rOmhyZWY9IiNwIi8+JiN4YTs8dXNlIHk9IjE4NCIgeD0iMTc2IiB4bGluazpocmVmPSIjcCIvPiYjeGE7PHVzZSB5PSIyMDAiIHg9IjE3NiIgeGxpbms6aHJlZj0iI3AiLz4mI3hhOzx1c2UgeT0iMjA4IiB4PSIxNzYiIHhsaW5rOmhyZWY9IiNwIi8+JiN4YTs8dXNlIHk9IjIxNiIgeD0iMTc2IiB4bGluazpocmVmPSIjcCIvPiYjeGE7PHVzZSB5PSIyMjQiIHg9IjE3NiIgeGxpbms6aHJlZj0iI3AiLz4mI3hhOzx1c2UgeT0iMjQwIiB4PSIxNzYiIHhsaW5rOmhyZWY9IiNwIi8+JiN4YTs8dXNlIHk9IjI2NCIgeD0iMTc2IiB4bGluazpocmVmPSIjcCIvPiYjeGE7PHVzZSB5PSIyODAiIHg9IjE3NiIgeGxpbms6aHJlZj0iI3AiLz4mI3hhOzx1c2UgeT0iMjk2IiB4PSIxNzYiIHhsaW5rOmhyZWY9IiNwIi8+JiN4YTs8dXNlIHk9IjMwNCIgeD0iMTc2IiB4bGluazpocmVmPSIjcCIvPiYjeGE7PHVzZSB5PSIzMjgiIHg9IjE3NiIgeGxpbms6aHJlZj0iI3AiLz4mI3hhOzx1c2UgeT0iMzM2IiB4PSIxNzYiIHhsaW5rOmhyZWY9IiNwIi8+JiN4YTs8dXNlIHk9IjM2OCIgeD0iMTc2IiB4bGluazpocmVmPSIjcCIvPiYjeGE7PHVzZSB5PSIzOTIiIHg9IjE3NiIgeGxpbms6aHJlZj0iI3AiLz4mI3hhOzx1c2UgeT0iNDAwIiB4PSIxNzYiIHhsaW5rOmhyZWY9IiNwIi8+JiN4YTs8dXNlIHk9IjQxNiIgeD0iMTc2IiB4bGluazpocmVmPSIjcCIvPiYjeGE7PHVzZSB5PSI0MjQiIHg9IjE3NiIgeGxpbms6aHJlZj0iI3AiLz4mI3hhOzx1c2UgeT0iNDMyIiB4PSIxNzYiIHhsaW5rOmhyZWY9IiNwIi8+JiN4YTs8dXNlIHk9IjQ0MCIgeD0iMTc2IiB4bGluazpocmVmPSIjcCIvPiYjeGE7PHVzZSB5PSI0NDgiIHg9IjE3NiIgeGxpbms6aHJlZj0iI3AiLz4mI3hhOzx1c2UgeT0iNDY0IiB4PSIxNzYiIHhsaW5rOmhyZWY9IiNwIi8+JiN4YTs8dXNlIHk9IjMyIiB4PSIxODQiIHhsaW5rOmhyZWY9IiNwIi8+JiN4YTs8dXNlIHk9IjQwIiB4PSIxODQiIHhsaW5rOmhyZWY9IiNwIi8+JiN4YTs8dXNlIHk9IjExMiIgeD0iMTg0IiB4bGluazpocmVmPSIjcCIvPiYjeGE7PHVzZSB5PSIxMzYiIHg9IjE4NCIgeGxpbms6aHJlZj0iI3AiLz4mI3hhOzx1c2UgeT0iMTQ0IiB4PSIxODQiIHhsaW5rOmhyZWY9IiNwIi8+JiN4YTs8dXNlIHk9IjE4NCIgeD0iMTg0IiB4bGluazpocmVmPSIjcCIvPiYjeGE7PHVzZSB5PSIxOTIiIHg9IjE4NCIgeGxpbms6aHJlZj0iI3AiLz4mI3hhOzx1c2UgeT0iMjAwIiB4PSIxODQiIHhsaW5rOmhyZWY9IiNwIi8+JiN4YTs8dXNlIHk9IjIxNiIgeD0iMTg0IiB4bGluazpocmVmPSIjcCIvPiYjeGE7PHVzZSB5PSIyMjQiIHg9IjE4NCIgeGxpbms6aHJlZj0iI3AiLz4mI3hhOzx1c2UgeT0iMjMyIiB4PSIxODQiIHhsaW5rOmhyZWY9IiNwIi8+JiN4YTs8dXNlIHk9IjI0MCIgeD0iMTg0IiB4bGluazpocmVmPSIjcCIvPiYjeGE7PHVzZSB5PSIyNDgiIHg9IjE4NCIgeGxpbms6aHJlZj0iI3AiLz4mI3hhOzx1c2UgeT0iMjY0IiB4PSIxODQiIHhsaW5rOmhyZWY9IiNwIi8+JiN4YTs8dXNlIHk9IjI4MCIgeD0iMTg0IiB4bGluazpocmVmPSIjcCIvPiYjeGE7PHVzZSB5PSIyOTYiIHg9IjE4NCIgeGxpbms6aHJlZj0iI3AiLz4mI3hhOzx1c2UgeT0iMzI4IiB4PSIxODQiIHhsaW5rOmhyZWY9IiNwIi8+JiN4YTs8dXNlIHk9IjMzNiIgeD0iMTg0IiB4bGluazpocmVmPSIjcCIvPiYjeGE7PHVzZSB5PSIzNjAiIHg9IjE4NCIgeGxpbms6aHJlZj0iI3AiLz4mI3hhOzx1c2UgeT0iMzY4IiB4PSIxODQiIHhsaW5rOmhyZWY9IiNwIi8+JiN4YTs8dXNlIHk9IjQwOCIgeD0iMTg0IiB4bGluazpocmVmPSIjcCIvPiYjeGE7PHVzZSB5PSI0MTYiIHg9IjE4NCIgeGxpbms6aHJlZj0iI3AiLz4mI3hhOzx1c2UgeT0iNDQ4IiB4PSIxODQiIHhsaW5rOmhyZWY9IiNwIi8+JiN4YTs8dXNlIHk9IjQ2NCIgeD0iMTg0IiB4bGluazpocmVmPSIjcCIvPiYjeGE7PHVzZSB5PSI0NzIiIHg9IjE4NCIgeGxpbms6aHJlZj0iI3AiLz4mI3hhOzx1c2UgeT0iNDAiIHg9IjE5MiIgeGxpbms6aHJlZj0iI3AiLz4mI3hhOzx1c2UgeT0iNTYiIHg9IjE5MiIgeGxpbms6aHJlZj0iI3AiLz4mI3hhOzx1c2UgeT0iNjQiIHg9IjE5MiIgeGxpbms6aHJlZj0iI3AiLz4mI3hhOzx1c2UgeT0iNzIiIHg9IjE5MiIgeGxpbms6aHJlZj0iI3AiLz4mI3hhOzx1c2UgeT0iODAiIHg9IjE5MiIgeGxpbms6aHJlZj0iI3AiLz4mI3hhOzx1c2UgeT0iMTA0IiB4PSIxOTIiIHhsaW5rOmhyZWY9IiNwIi8+JiN4YTs8dXNlIHk9IjEyMCIgeD0iMTkyIiB4bGluazpocmVmPSIjcCIvPiYjeGE7PHVzZSB5PSIxMzYiIHg9IjE5MiIgeGxpbms6aHJlZj0iI3AiLz4mI3hhOzx1c2UgeT0iMTYwIiB4PSIxOTIiIHhsaW5rOmhyZWY9IiNwIi8+JiN4YTs8dXNlIHk9IjE5MiIgeD0iMTkyIiB4bGluazpocmVmPSIjcCIvPiYjeGE7PHVzZSB5PSIyMDAiIHg9IjE5MiIgeGxpbms6aHJlZj0iI3AiLz4mI3hhOzx1c2UgeT0iMjA4IiB4PSIxOTIiIHhsaW5rOmhyZWY9IiNwIi8+JiN4YTs8dXNlIHk9IjIyNCIgeD0iMTkyIiB4bGluazpocmVmPSIjcCIvPiYjeGE7PHVzZSB5PSIyNDAiIHg9IjE5MiIgeGxpbms6aHJlZj0iI3AiLz4mI3hhOzx1c2UgeT0iMjQ4IiB4PSIxOTIiIHhsaW5rOmhyZWY9IiNwIi8+JiN4YTs8dXNlIHk9IjI2NCIgeD0iMTkyIiB4bGluazpocmVmPSIjcCIvPiYjeGE7PHVzZSB5PSIzMDQiIHg9IjE5MiIgeGxpbms6aHJlZj0iI3AiLz4mI3hhOzx1c2UgeT0iMzEyIiB4PSIxOTIiIHhsaW5rOmhyZWY9IiNwIi8+JiN4YTs8dXNlIHk9IjMyMCIgeD0iMTkyIiB4bGluazpocmVmPSIjcCIvPiYjeGE7PHVzZSB5PSIzMjgiIHg9IjE5MiIgeGxpbms6aHJlZj0iI3AiLz4mI3hhOzx1c2UgeT0iMzQ0IiB4PSIxOTIiIHhsaW5rOmhyZWY9IiNwIi8+JiN4YTs8dXNlIHk9IjM1MiIgeD0iMTkyIiB4bGluazpocmVmPSIjcCIvPiYjeGE7PHVzZSB5PSIzNjAiIHg9IjE5MiIgeGxpbms6aHJlZj0iI3AiLz4mI3hhOzx1c2UgeT0iMzY4IiB4PSIxOTIiIHhsaW5rOmhyZWY9IiNwIi8+JiN4YTs8dXNlIHk9IjM3NiIgeD0iMTkyIiB4bGluazpocmVmPSIjcCIvPiYjeGE7PHVzZSB5PSI0MDAiIHg9IjE5MiIgeGxpbms6aHJlZj0iI3AiLz4mI3hhOzx1c2UgeT0iNDQwIiB4PSIxOTIiIHhsaW5rOmhyZWY9IiNwIi8+JiN4YTs8dXNlIHk9IjQ1NiIgeD0iMTkyIiB4bGluazpocmVmPSIjcCIvPiYjeGE7PHVzZSB5PSI0ODAiIHg9IjE5MiIgeGxpbms6aHJlZj0iI3AiLz4mI3hhOzx1c2UgeT0iNDAiIHg9IjIwMCIgeGxpbms6aHJlZj0iI3AiLz4mI3hhOzx1c2UgeT0iNDgiIHg9IjIwMCIgeGxpbms6aHJlZj0iI3AiLz4mI3hhOzx1c2UgeT0iNTYiIHg9IjIwMCIgeGxpbms6aHJlZj0iI3AiLz4mI3hhOzx1c2UgeT0iNjQiIHg9IjIwMCIgeGxpbms6aHJlZj0iI3AiLz4mI3hhOzx1c2UgeT0iNzIiIHg9IjIwMCIgeGxpbms6aHJlZj0iI3AiLz4mI3hhOzx1c2UgeT0iMTIwIiB4PSIyMDAiIHhsaW5rOmhyZWY9IiNwIi8+JiN4YTs8dXNlIHk9IjEyOCIgeD0iMjAwIiB4bGluazpocmVmPSIjcCIvPiYjeGE7PHVzZSB5PSIxNTIiIHg9IjIwMCIgeGxpbms6aHJlZj0iI3AiLz4mI3hhOzx1c2UgeT0iMTkyIiB4PSIyMDAiIHhsaW5rOmhyZWY9IiNwIi8+JiN4YTs8dXNlIHk9IjIwMCIgeD0iMjAwIiB4bGluazpocmVmPSIjcCIvPiYjeGE7PHVzZSB5PSIyMDgiIHg9IjIwMCIgeGxpbms6aHJlZj0iI3AiLz4mI3hhOzx1c2UgeT0iMjE2IiB4PSIyMDAiIHhsaW5rOmhyZWY9IiNwIi8+JiN4YTs8dXNlIHk9IjI0MCIgeD0iMjAwIiB4bGluazpocmVmPSIjcCIvPiYjeGE7PHVzZSB5PSIyNDgiIHg9IjIwMCIgeGxpbms6aHJlZj0iI3AiLz4mI3hhOzx1c2UgeT0iMjY0IiB4PSIyMDAiIHhsaW5rOmhyZWY9IiNwIi8+JiN4YTs8dXNlIHk9IjMxMiIgeD0iMjAwIiB4bGluazpocmVmPSIjcCIvPiYjeGE7PHVzZSB5PSIzMjAiIHg9IjIwMCIgeGxpbms6aHJlZj0iI3AiLz4mI3hhOzx1c2UgeT0iMzI4IiB4PSIyMDAiIHhsaW5rOmhyZWY9IiNwIi8+JiN4YTs8dXNlIHk9IjMzNiIgeD0iMjAwIiB4bGluazpocmVmPSIjcCIvPiYjeGE7PHVzZSB5PSIzNTIiIHg9IjIwMCIgeGxpbms6aHJlZj0iI3AiLz4mI3hhOzx1c2UgeT0iMzY4IiB4PSIyMDAiIHhsaW5rOmhyZWY9IiNwIi8+JiN4YTs8dXNlIHk9IjM3NiIgeD0iMjAwIiB4bGluazpocmVmPSIjcCIvPiYjeGE7PHVzZSB5PSI0MDgiIHg9IjIwMCIgeGxpbms6aHJlZj0iI3AiLz4mI3hhOzx1c2UgeT0iNDE2IiB4PSIyMDAiIHhsaW5rOmhyZWY9IiNwIi8+JiN4YTs8dXNlIHk9IjQzMiIgeD0iMjAwIiB4bGluazpocmVmPSIjcCIvPiYjeGE7PHVzZSB5PSI0NDAiIHg9IjIwMCIgeGxpbms6aHJlZj0iI3AiLz4mI3hhOzx1c2UgeT0iNDU2IiB4PSIyMDAiIHhsaW5rOmhyZWY9IiNwIi8+JiN4YTs8dXNlIHk9IjQ2NCIgeD0iMjAwIiB4bGluazpocmVmPSIjcCIvPiYjeGE7PHVzZSB5PSI0NzIiIHg9IjIwMCIgeGxpbms6aHJlZj0iI3AiLz4mI3hhOzx1c2UgeT0iNDgwIiB4PSIyMDAiIHhsaW5rOmhyZWY9IiNwIi8+JiN4YTs8dXNlIHk9IjgwIiB4PSIyMDgiIHhsaW5rOmhyZWY9IiNwIi8+JiN4YTs8dXNlIHk9IjEwNCIgeD0iMjA4IiB4bGluazpocmVmPSIjcCIvPiYjeGE7PHVzZSB5PSIxMjAiIHg9IjIwOCIgeGxpbms6aHJlZj0iI3AiLz4mI3hhOzx1c2UgeT0iMTI4IiB4PSIyMDgiIHhsaW5rOmhyZWY9IiNwIi8+JiN4YTs8dXNlIHk9IjEzNiIgeD0iMjA4IiB4bGluazpocmVmPSIjcCIvPiYjeGE7PHVzZSB5PSIxNDQiIHg9IjIwOCIgeGxpbms6aHJlZj0iI3AiLz4mI3hhOzx1c2UgeT0iMTYwIiB4PSIyMDgiIHhsaW5rOmhyZWY9IiNwIi8+JiN4YTs8dXNlIHk9IjE4NCIgeD0iMjA4IiB4bGluazpocmVmPSIjcCIvPiYjeGE7PHVzZSB5PSIxOTIiIHg9IjIwOCIgeGxpbms6aHJlZj0iI3AiLz4mI3hhOzx1c2UgeT0iMjAwIiB4PSIyMDgiIHhsaW5rOmhyZWY9IiNwIi8+JiN4YTs8dXNlIHk9IjIyNCIgeD0iMjA4IiB4bGluazpocmVmPSIjcCIvPiYjeGE7PHVzZSB5PSIyMzIiIHg9IjIwOCIgeGxpbms6aHJlZj0iI3AiLz4mI3hhOzx1c2UgeT0iMjQwIiB4PSIyMDgiIHhsaW5rOmhyZWY9IiNwIi8+JiN4YTs8dXNlIHk9IjI0OCIgeD0iMjA4IiB4bGluazpocmVmPSIjcCIvPiYjeGE7PHVzZSB5PSIyNTYiIHg9IjIwOCIgeGxpbms6aHJlZj0iI3AiLz4mI3hhOzx1c2UgeT0iMjg4IiB4PSIyMDgiIHhsaW5rOmhyZWY9IiNwIi8+JiN4YTs8dXNlIHk9IjMyOCIgeD0iMjA4IiB4bGluazpocmVmPSIjcCIvPiYjeGE7PHVzZSB5PSIzNDQiIHg9IjIwOCIgeGxpbms6aHJlZj0iI3AiLz4mI3hhOzx1c2UgeT0iNDE2IiB4PSIyMDgiIHhsaW5rOmhyZWY9IiNwIi8+JiN4YTs8dXNlIHk9IjQzMiIgeD0iMjA4IiB4bGluazpocmVmPSIjcCIvPiYjeGE7PHVzZSB5PSI0NjQiIHg9IjIwOCIgeGxpbms6aHJlZj0iI3AiLz4mI3hhOzx1c2UgeT0iMzIiIHg9IjIxNiIgeGxpbms6aHJlZj0iI3AiLz4mI3hhOzx1c2UgeT0iNTYiIHg9IjIxNiIgeGxpbms6aHJlZj0iI3AiLz4mI3hhOzx1c2UgeT0iNjQiIHg9IjIxNiIgeGxpbms6aHJlZj0iI3AiLz4mI3hhOzx1c2UgeT0iOTYiIHg9IjIxNiIgeGxpbms6aHJlZj0iI3AiLz4mI3hhOzx1c2UgeT0iMTA0IiB4PSIyMTYiIHhsaW5rOmhyZWY9IiNwIi8+JiN4YTs8dXNlIHk9IjExMiIgeD0iMjE2IiB4bGluazpocmVmPSIjcCIvPiYjeGE7PHVzZSB5PSIxMjAiIHg9IjIxNiIgeGxpbms6aHJlZj0iI3AiLz4mI3hhOzx1c2UgeT0iMTI4IiB4PSIyMTYiIHhsaW5rOmhyZWY9IiNwIi8+JiN4YTs8dXNlIHk9IjEzNiIgeD0iMjE2IiB4bGluazpocmVmPSIjcCIvPiYjeGE7PHVzZSB5PSIxNDQiIHg9IjIxNiIgeGxpbms6aHJlZj0iI3AiLz4mI3hhOzx1c2UgeT0iMTUyIiB4PSIyMTYiIHhsaW5rOmhyZWY9IiNwIi8+JiN4YTs8dXNlIHk9IjE2OCIgeD0iMjE2IiB4bGluazpocmVmPSIjcCIvPiYjeGE7PHVzZSB5PSIxNzYiIHg9IjIxNiIgeGxpbms6aHJlZj0iI3AiLz4mI3hhOzx1c2UgeT0iMjAwIiB4PSIyMTYiIHhsaW5rOmhyZWY9IiNwIi8+JiN4YTs8dXNlIHk9IjIwOCIgeD0iMjE2IiB4bGluazpocmVmPSIjcCIvPiYjeGE7PHVzZSB5PSIyNDAiIHg9IjIxNiIgeGxpbms6aHJlZj0iI3AiLz4mI3hhOzx1c2UgeT0iMjQ4IiB4PSIyMTYiIHhsaW5rOmhyZWY9IiNwIi8+JiN4YTs8dXNlIHk9IjI1NiIgeD0iMjE2IiB4bGluazpocmVmPSIjcCIvPiYjeGE7PHVzZSB5PSIyNzIiIHg9IjIxNiIgeGxpbms6aHJlZj0iI3AiLz4mI3hhOzx1c2UgeT0iMjgwIiB4PSIyMTYiIHhsaW5rOmhyZWY9IiNwIi8+JiN4YTs8dXNlIHk9IjI4OCIgeD0iMjE2IiB4bGluazpocmVmPSIjcCIvPiYjeGE7PHVzZSB5PSIzMjgiIHg9IjIxNiIgeGxpbms6aHJlZj0iI3AiLz4mI3hhOzx1c2UgeT0iMzM2IiB4PSIyMTYiIHhsaW5rOmhyZWY9IiNwIi8+JiN4YTs8dXNlIHk9IjM0NCIgeD0iMjE2IiB4bGluazpocmVmPSIjcCIvPiYjeGE7PHVzZSB5PSIzNjgiIHg9IjIxNiIgeGxpbms6aHJlZj0iI3AiLz4mI3hhOzx1c2UgeT0iMzc2IiB4PSIyMTYiIHhsaW5rOmhyZWY9IiNwIi8+JiN4YTs8dXNlIHk9IjM5MiIgeD0iMjE2IiB4bGluazpocmVmPSIjcCIvPiYjeGE7PHVzZSB5PSI0MDgiIHg9IjIxNiIgeGxpbms6aHJlZj0iI3AiLz4mI3hhOzx1c2UgeT0iNDE2IiB4PSIyMTYiIHhsaW5rOmhyZWY9IiNwIi8+JiN4YTs8dXNlIHk9IjQyNCIgeD0iMjE2IiB4bGluazpocmVmPSIjcCIvPiYjeGE7PHVzZSB5PSI0MzIiIHg9IjIxNiIgeGxpbms6aHJlZj0iI3AiLz4mI3hhOzx1c2UgeT0iNDQwIiB4PSIyMTYiIHhsaW5rOmhyZWY9IiNwIi8+JiN4YTs8dXNlIHk9IjQ4MCIgeD0iMjE2IiB4bGluazpocmVmPSIjcCIvPiYjeGE7PHVzZSB5PSI1NiIgeD0iMjI0IiB4bGluazpocmVmPSIjcCIvPiYjeGE7PHVzZSB5PSI4MCIgeD0iMjI0IiB4bGluazpocmVmPSIjcCIvPiYjeGE7PHVzZSB5PSI4OCIgeD0iMjI0IiB4bGluazpocmVmPSIjcCIvPiYjeGE7PHVzZSB5PSI5NiIgeD0iMjI0IiB4bGluazpocmVmPSIjcCIvPiYjeGE7PHVzZSB5PSIxMDQiIHg9IjIyNCIgeGxpbms6aHJlZj0iI3AiLz4mI3hhOzx1c2UgeT0iMTI4IiB4PSIyMjQiIHhsaW5rOmhyZWY9IiNwIi8+JiN4YTs8dXNlIHk9IjE0NCIgeD0iMjI0IiB4bGluazpocmVmPSIjcCIvPiYjeGE7PHVzZSB5PSIxNTIiIHg9IjIyNCIgeGxpbms6aHJlZj0iI3AiLz4mI3hhOzx1c2UgeT0iMTYwIiB4PSIyMjQiIHhsaW5rOmhyZWY9IiNwIi8+JiN4YTs8dXNlIHk9IjE4NCIgeD0iMjI0IiB4bGluazpocmVmPSIjcCIvPiYjeGE7PHVzZSB5PSIxOTIiIHg9IjIyNCIgeGxpbms6aHJlZj0iI3AiLz4mI3hhOzx1c2UgeT0iMjI0IiB4PSIyMjQiIHhsaW5rOmhyZWY9IiNwIi8+JiN4YTs8dXNlIHk9IjIzMiIgeD0iMjI0IiB4bGluazpocmVmPSIjcCIvPiYjeGE7PHVzZSB5PSIyNTYiIHg9IjIyNCIgeGxpbms6aHJlZj0iI3AiLz4mI3hhOzx1c2UgeT0iMjY0IiB4PSIyMjQiIHhsaW5rOmhyZWY9IiNwIi8+JiN4YTs8dXNlIHk9IjI3MiIgeD0iMjI0IiB4bGluazpocmVmPSIjcCIvPiYjeGE7PHVzZSB5PSIzNjAiIHg9IjIyNCIgeGxpbms6aHJlZj0iI3AiLz4mI3hhOzx1c2UgeT0iMzkyIiB4PSIyMjQiIHhsaW5rOmhyZWY9IiNwIi8+JiN4YTs8dXNlIHk9IjQ0OCIgeD0iMjI0IiB4bGluazpocmVmPSIjcCIvPiYjeGE7PHVzZSB5PSI0NzIiIHg9IjIyNCIgeGxpbms6aHJlZj0iI3AiLz4mI3hhOzx1c2UgeT0iNDAiIHg9IjIzMiIgeGxpbms6aHJlZj0iI3AiLz4mI3hhOzx1c2UgeT0iNDgiIHg9IjIzMiIgeGxpbms6aHJlZj0iI3AiLz4mI3hhOzx1c2UgeT0iNjQiIHg9IjIzMiIgeGxpbms6aHJlZj0iI3AiLz4mI3hhOzx1c2UgeT0iODgiIHg9IjIzMiIgeGxpbms6aHJlZj0iI3AiLz4mI3hhOzx1c2UgeT0iMTA0IiB4PSIyMzIiIHhsaW5rOmhyZWY9IiNwIi8+JiN4YTs8dXNlIHk9IjExMiIgeD0iMjMyIiB4bGluazpocmVmPSIjcCIvPiYjeGE7PHVzZSB5PSIxMjAiIHg9IjIzMiIgeGxpbms6aHJlZj0iI3AiLz4mI3hhOzx1c2UgeT0iMTI4IiB4PSIyMzIiIHhsaW5rOmhyZWY9IiNwIi8+JiN4YTs8dXNlIHk9IjEzNiIgeD0iMjMyIiB4bGluazpocmVmPSIjcCIvPiYjeGE7PHVzZSB5PSIxNTIiIHg9IjIzMiIgeGxpbms6aHJlZj0iI3AiLz4mI3hhOzx1c2UgeT0iMTY4IiB4PSIyMzIiIHhsaW5rOmhyZWY9IiNwIi8+JiN4YTs8dXNlIHk9IjE3NiIgeD0iMjMyIiB4bGluazpocmVmPSIjcCIvPiYjeGE7PHVzZSB5PSIxOTIiIHg9IjIzMiIgeGxpbms6aHJlZj0iI3AiLz4mI3hhOzx1c2UgeT0iMjAwIiB4PSIyMzIiIHhsaW5rOmhyZWY9IiNwIi8+JiN4YTs8dXNlIHk9IjIxNiIgeD0iMjMyIiB4bGluazpocmVmPSIjcCIvPiYjeGE7PHVzZSB5PSIyNjQiIHg9IjIzMiIgeGxpbms6aHJlZj0iI3AiLz4mI3hhOzx1c2UgeT0iMjcyIiB4PSIyMzIiIHhsaW5rOmhyZWY9IiNwIi8+JiN4YTs8dXNlIHk9IjI4MCIgeD0iMjMyIiB4bGluazpocmVmPSIjcCIvPiYjeGE7PHVzZSB5PSIyODgiIHg9IjIzMiIgeGxpbms6aHJlZj0iI3AiLz4mI3hhOzx1c2UgeT0iMjk2IiB4PSIyMzIiIHhsaW5rOmhyZWY9IiNwIi8+JiN4YTs8dXNlIHk9IjMzNiIgeD0iMjMyIiB4bGluazpocmVmPSIjcCIvPiYjeGE7PHVzZSB5PSIzNjAiIHg9IjIzMiIgeGxpbms6aHJlZj0iI3AiLz4mI3hhOzx1c2UgeT0iMzY4IiB4PSIyMzIiIHhsaW5rOmhyZWY9IiNwIi8+JiN4YTs8dXNlIHk9IjQxNiIgeD0iMjMyIiB4bGluazpocmVmPSIjcCIvPiYjeGE7PHVzZSB5PSI0MjQiIHg9IjIzMiIgeGxpbms6aHJlZj0iI3AiLz4mI3hhOzx1c2UgeT0iNDQ4IiB4PSIyMzIiIHhsaW5rOmhyZWY9IiNwIi8+JiN4YTs8dXNlIHk9IjQ1NiIgeD0iMjMyIiB4bGluazpocmVmPSIjcCIvPiYjeGE7PHVzZSB5PSI0NjQiIHg9IjIzMiIgeGxpbms6aHJlZj0iI3AiLz4mI3hhOzx1c2UgeT0iNDgwIiB4PSIyMzIiIHhsaW5rOmhyZWY9IiNwIi8+JiN4YTs8dXNlIHk9IjMyIiB4PSIyNDAiIHhsaW5rOmhyZWY9IiNwIi8+JiN4YTs8dXNlIHk9IjQwIiB4PSIyNDAiIHhsaW5rOmhyZWY9IiNwIi8+JiN4YTs8dXNlIHk9IjQ4IiB4PSIyNDAiIHhsaW5rOmhyZWY9IiNwIi8+JiN4YTs8dXNlIHk9IjU2IiB4PSIyNDAiIHhsaW5rOmhyZWY9IiNwIi8+JiN4YTs8dXNlIHk9IjY0IiB4PSIyNDAiIHhsaW5rOmhyZWY9IiNwIi8+JiN4YTs8dXNlIHk9IjcyIiB4PSIyNDAiIHhsaW5rOmhyZWY9IiNwIi8+JiN4YTs8dXNlIHk9IjgwIiB4PSIyNDAiIHhsaW5rOmhyZWY9IiNwIi8+JiN4YTs8dXNlIHk9Ijg4IiB4PSIyNDAiIHhsaW5rOmhyZWY9IiNwIi8+JiN4YTs8dXNlIHk9Ijk2IiB4PSIyNDAiIHhsaW5rOmhyZWY9IiNwIi8+JiN4YTs8dXNlIHk9IjExMiIgeD0iMjQwIiB4bGluazpocmVmPSIjcCIvPiYjeGE7PHVzZSB5PSIxMjAiIHg9IjI0MCIgeGxpbms6aHJlZj0iI3AiLz4mI3hhOzx1c2UgeT0iMTM2IiB4PSIyNDAiIHhsaW5rOmhyZWY9IiNwIi8+JiN4YTs8dXNlIHk9IjE1MiIgeD0iMjQwIiB4bGluazpocmVmPSIjcCIvPiYjeGE7PHVzZSB5PSIxNjAiIHg9IjI0MCIgeGxpbms6aHJlZj0iI3AiLz4mI3hhOzx1c2UgeT0iMTY4IiB4PSIyNDAiIHhsaW5rOmhyZWY9IiNwIi8+JiN4YTs8dXNlIHk9IjE5MiIgeD0iMjQwIiB4bGluazpocmVmPSIjcCIvPiYjeGE7PHVzZSB5PSIyMDAiIHg9IjI0MCIgeGxpbms6aHJlZj0iI3AiLz4mI3hhOzx1c2UgeT0iMjQwIiB4PSIyNDAiIHhsaW5rOmhyZWY9IiNwIi8+JiN4YTs8dXNlIHk9IjI0OCIgeD0iMjQwIiB4bGluazpocmVmPSIjcCIvPiYjeGE7PHVzZSB5PSIyNTYiIHg9IjI0MCIgeGxpbms6aHJlZj0iI3AiLz4mI3hhOzx1c2UgeT0iMjY0IiB4PSIyNDAiIHhsaW5rOmhyZWY9IiNwIi8+JiN4YTs8dXNlIHk9IjI3MiIgeD0iMjQwIiB4bGluazpocmVmPSIjcCIvPiYjeGE7PHVzZSB5PSIzMTIiIHg9IjI0MCIgeGxpbms6aHJlZj0iI3AiLz4mI3hhOzx1c2UgeT0iMzIwIiB4PSIyNDAiIHhsaW5rOmhyZWY9IiNwIi8+JiN4YTs8dXNlIHk9IjM1MiIgeD0iMjQwIiB4bGluazpocmVmPSIjcCIvPiYjeGE7PHVzZSB5PSIzNzYiIHg9IjI0MCIgeGxpbms6aHJlZj0iI3AiLz4mI3hhOzx1c2UgeT0iMzg0IiB4PSIyNDAiIHhsaW5rOmhyZWY9IiNwIi8+JiN4YTs8dXNlIHk9IjM5MiIgeD0iMjQwIiB4bGluazpocmVmPSIjcCIvPiYjeGE7PHVzZSB5PSI0MDgiIHg9IjI0MCIgeGxpbms6aHJlZj0iI3AiLz4mI3hhOzx1c2UgeT0iNDE2IiB4PSIyNDAiIHhsaW5rOmhyZWY9IiNwIi8+JiN4YTs8dXNlIHk9IjQyNCIgeD0iMjQwIiB4bGluazpocmVmPSIjcCIvPiYjeGE7PHVzZSB5PSI0MzIiIHg9IjI0MCIgeGxpbms6aHJlZj0iI3AiLz4mI3hhOzx1c2UgeT0iNDQwIiB4PSIyNDAiIHhsaW5rOmhyZWY9IiNwIi8+JiN4YTs8dXNlIHk9IjQ0OCIgeD0iMjQwIiB4bGluazpocmVmPSIjcCIvPiYjeGE7PHVzZSB5PSI0NTYiIHg9IjI0MCIgeGxpbms6aHJlZj0iI3AiLz4mI3hhOzx1c2UgeT0iNDcyIiB4PSIyNDAiIHhsaW5rOmhyZWY9IiNwIi8+JiN4YTs8dXNlIHk9IjMyIiB4PSIyNDgiIHhsaW5rOmhyZWY9IiNwIi8+JiN4YTs8dXNlIHk9IjQwIiB4PSIyNDgiIHhsaW5rOmhyZWY9IiNwIi8+JiN4YTs8dXNlIHk9IjQ4IiB4PSIyNDgiIHhsaW5rOmhyZWY9IiNwIi8+JiN4YTs8dXNlIHk9IjY0IiB4PSIyNDgiIHhsaW5rOmhyZWY9IiNwIi8+JiN4YTs8dXNlIHk9Ijk2IiB4PSIyNDgiIHhsaW5rOmhyZWY9IiNwIi8+JiN4YTs8dXNlIHk9IjEwNCIgeD0iMjQ4IiB4bGluazpocmVmPSIjcCIvPiYjeGE7PHVzZSB5PSIxMjAiIHg9IjI0OCIgeGxpbms6aHJlZj0iI3AiLz4mI3hhOzx1c2UgeT0iMTM2IiB4PSIyNDgiIHhsaW5rOmhyZWY9IiNwIi8+JiN4YTs8dXNlIHk9IjE0NCIgeD0iMjQ4IiB4bGluazpocmVmPSIjcCIvPiYjeGE7PHVzZSB5PSIxNTIiIHg9IjI0OCIgeGxpbms6aHJlZj0iI3AiLz4mI3hhOzx1c2UgeT0iMTY4IiB4PSIyNDgiIHhsaW5rOmhyZWY9IiNwIi8+JiN4YTs8dXNlIHk9IjE5MiIgeD0iMjQ4IiB4bGluazpocmVmPSIjcCIvPiYjeGE7PHVzZSB5PSIyMDAiIHg9IjI0OCIgeGxpbms6aHJlZj0iI3AiLz4mI3hhOzx1c2UgeT0iMjA4IiB4PSIyNDgiIHhsaW5rOmhyZWY9IiNwIi8+JiN4YTs8dXNlIHk9IjIxNiIgeD0iMjQ4IiB4bGluazpocmVmPSIjcCIvPiYjeGE7PHVzZSB5PSIyMzIiIHg9IjI0OCIgeGxpbms6aHJlZj0iI3AiLz4mI3hhOzx1c2UgeT0iMjQwIiB4PSIyNDgiIHhsaW5rOmhyZWY9IiNwIi8+JiN4YTs8dXNlIHk9IjI3MiIgeD0iMjQ4IiB4bGluazpocmVmPSIjcCIvPiYjeGE7PHVzZSB5PSIyODAiIHg9IjI0OCIgeGxpbms6aHJlZj0iI3AiLz4mI3hhOzx1c2UgeT0iMjk2IiB4PSIyNDgiIHhsaW5rOmhyZWY9IiNwIi8+JiN4YTs8dXNlIHk9IjMwNCIgeD0iMjQ4IiB4bGluazpocmVmPSIjcCIvPiYjeGE7PHVzZSB5PSIzNDQiIHg9IjI0OCIgeGxpbms6aHJlZj0iI3AiLz4mI3hhOzx1c2UgeT0iMzc2IiB4PSIyNDgiIHhsaW5rOmhyZWY9IiNwIi8+JiN4YTs8dXNlIHk9IjQwMCIgeD0iMjQ4IiB4bGluazpocmVmPSIjcCIvPiYjeGE7PHVzZSB5PSI0MDgiIHg9IjI0OCIgeGxpbms6aHJlZj0iI3AiLz4mI3hhOzx1c2UgeT0iNDE2IiB4PSIyNDgiIHhsaW5rOmhyZWY9IiNwIi8+JiN4YTs8dXNlIHk9IjQ0OCIgeD0iMjQ4IiB4bGluazpocmVmPSIjcCIvPiYjeGE7PHVzZSB5PSI0NjQiIHg9IjI0OCIgeGxpbms6aHJlZj0iI3AiLz4mI3hhOzx1c2UgeT0iMzIiIHg9IjI1NiIgeGxpbms6aHJlZj0iI3AiLz4mI3hhOzx1c2UgeT0iNDAiIHg9IjI1NiIgeGxpbms6aHJlZj0iI3AiLz4mI3hhOzx1c2UgeT0iNTYiIHg9IjI1NiIgeGxpbms6aHJlZj0iI3AiLz4mI3hhOzx1c2UgeT0iNjQiIHg9IjI1NiIgeGxpbms6aHJlZj0iI3AiLz4mI3hhOzx1c2UgeT0iODAiIHg9IjI1NiIgeGxpbms6aHJlZj0iI3AiLz4mI3hhOzx1c2UgeT0iOTYiIHg9IjI1NiIgeGxpbms6aHJlZj0iI3AiLz4mI3hhOzx1c2UgeT0iMTEyIiB4PSIyNTYiIHhsaW5rOmhyZWY9IiNwIi8+JiN4YTs8dXNlIHk9IjE0NCIgeD0iMjU2IiB4bGluazpocmVmPSIjcCIvPiYjeGE7PHVzZSB5PSIxODQiIHg9IjI1NiIgeGxpbms6aHJlZj0iI3AiLz4mI3hhOzx1c2UgeT0iMTkyIiB4PSIyNTYiIHhsaW5rOmhyZWY9IiNwIi8+JiN4YTs8dXNlIHk9IjIxNiIgeD0iMjU2IiB4bGluazpocmVmPSIjcCIvPiYjeGE7PHVzZSB5PSIyNDAiIHg9IjI1NiIgeGxpbms6aHJlZj0iI3AiLz4mI3hhOzx1c2UgeT0iMjU2IiB4PSIyNTYiIHhsaW5rOmhyZWY9IiNwIi8+JiN4YTs8dXNlIHk9IjI3MiIgeD0iMjU2IiB4bGluazpocmVmPSIjcCIvPiYjeGE7PHVzZSB5PSIyODAiIHg9IjI1NiIgeGxpbms6aHJlZj0iI3AiLz4mI3hhOzx1c2UgeT0iMjg4IiB4PSIyNTYiIHhsaW5rOmhyZWY9IiNwIi8+JiN4YTs8dXNlIHk9IjI5NiIgeD0iMjU2IiB4bGluazpocmVmPSIjcCIvPiYjeGE7PHVzZSB5PSIzMDQiIHg9IjI1NiIgeGxpbms6aHJlZj0iI3AiLz4mI3hhOzx1c2UgeT0iMzIwIiB4PSIyNTYiIHhsaW5rOmhyZWY9IiNwIi8+JiN4YTs8dXNlIHk9IjMzNiIgeD0iMjU2IiB4bGluazpocmVmPSIjcCIvPiYjeGE7PHVzZSB5PSIzNTIiIHg9IjI1NiIgeGxpbms6aHJlZj0iI3AiLz4mI3hhOzx1c2UgeT0iMzY4IiB4PSIyNTYiIHhsaW5rOmhyZWY9IiNwIi8+JiN4YTs8dXNlIHk9IjM3NiIgeD0iMjU2IiB4bGluazpocmVmPSIjcCIvPiYjeGE7PHVzZSB5PSIzOTIiIHg9IjI1NiIgeGxpbms6aHJlZj0iI3AiLz4mI3hhOzx1c2UgeT0iNDE2IiB4PSIyNTYiIHhsaW5rOmhyZWY9IiNwIi8+JiN4YTs8dXNlIHk9IjQzMiIgeD0iMjU2IiB4bGluazpocmVmPSIjcCIvPiYjeGE7PHVzZSB5PSI0NDgiIHg9IjI1NiIgeGxpbms6aHJlZj0iI3AiLz4mI3hhOzx1c2UgeT0iNDU2IiB4PSIyNTYiIHhsaW5rOmhyZWY9IiNwIi8+JiN4YTs8dXNlIHk9IjQ3MiIgeD0iMjU2IiB4bGluazpocmVmPSIjcCIvPiYjeGE7PHVzZSB5PSI2NCIgeD0iMjY0IiB4bGluazpocmVmPSIjcCIvPiYjeGE7PHVzZSB5PSI5NiIgeD0iMjY0IiB4bGluazpocmVmPSIjcCIvPiYjeGE7PHVzZSB5PSIxMjAiIHg9IjI2NCIgeGxpbms6aHJlZj0iI3AiLz4mI3hhOzx1c2UgeT0iMTI4IiB4PSIyNjQiIHhsaW5rOmhyZWY9IiNwIi8+JiN4YTs8dXNlIHk9IjE3NiIgeD0iMjY0IiB4bGluazpocmVmPSIjcCIvPiYjeGE7PHVzZSB5PSIxOTIiIHg9IjI2NCIgeGxpbms6aHJlZj0iI3AiLz4mI3hhOzx1c2UgeT0iMjA4IiB4PSIyNjQiIHhsaW5rOmhyZWY9IiNwIi8+JiN4YTs8dXNlIHk9IjIyNCIgeD0iMjY0IiB4bGluazpocmVmPSIjcCIvPiYjeGE7PHVzZSB5PSIyNDAiIHg9IjI2NCIgeGxpbms6aHJlZj0iI3AiLz4mI3hhOzx1c2UgeT0iMjcyIiB4PSIyNjQiIHhsaW5rOmhyZWY9IiNwIi8+JiN4YTs8dXNlIHk9IjI4OCIgeD0iMjY0IiB4bGluazpocmVmPSIjcCIvPiYjeGE7PHVzZSB5PSIzMDQiIHg9IjI2NCIgeGxpbms6aHJlZj0iI3AiLz4mI3hhOzx1c2UgeT0iMzIwIiB4PSIyNjQiIHhsaW5rOmhyZWY9IiNwIi8+JiN4YTs8dXNlIHk9IjMzNiIgeD0iMjY0IiB4bGluazpocmVmPSIjcCIvPiYjeGE7PHVzZSB5PSIzNDQiIHg9IjI2NCIgeGxpbms6aHJlZj0iI3AiLz4mI3hhOzx1c2UgeT0iMzc2IiB4PSIyNjQiIHhsaW5rOmhyZWY9IiNwIi8+JiN4YTs8dXNlIHk9IjM4NCIgeD0iMjY0IiB4bGluazpocmVmPSIjcCIvPiYjeGE7PHVzZSB5PSI0MDgiIHg9IjI2NCIgeGxpbms6aHJlZj0iI3AiLz4mI3hhOzx1c2UgeT0iNDE2IiB4PSIyNjQiIHhsaW5rOmhyZWY9IiNwIi8+JiN4YTs8dXNlIHk9IjQ0OCIgeD0iMjY0IiB4bGluazpocmVmPSIjcCIvPiYjeGE7PHVzZSB5PSI0NjQiIHg9IjI2NCIgeGxpbms6aHJlZj0iI3AiLz4mI3hhOzx1c2UgeT0iNDgwIiB4PSIyNjQiIHhsaW5rOmhyZWY9IiNwIi8+JiN4YTs8dXNlIHk9IjQwIiB4PSIyNzIiIHhsaW5rOmhyZWY9IiNwIi8+JiN4YTs8dXNlIHk9IjQ4IiB4PSIyNzIiIHhsaW5rOmhyZWY9IiNwIi8+JiN4YTs8dXNlIHk9IjU2IiB4PSIyNzIiIHhsaW5rOmhyZWY9IiNwIi8+JiN4YTs8dXNlIHk9IjY0IiB4PSIyNzIiIHhsaW5rOmhyZWY9IiNwIi8+JiN4YTs8dXNlIHk9IjcyIiB4PSIyNzIiIHhsaW5rOmhyZWY9IiNwIi8+JiN4YTs8dXNlIHk9IjgwIiB4PSIyNzIiIHhsaW5rOmhyZWY9IiNwIi8+JiN4YTs8dXNlIHk9Ijg4IiB4PSIyNzIiIHhsaW5rOmhyZWY9IiNwIi8+JiN4YTs8dXNlIHk9Ijk2IiB4PSIyNzIiIHhsaW5rOmhyZWY9IiNwIi8+JiN4YTs8dXNlIHk9IjEwNCIgeD0iMjcyIiB4bGluazpocmVmPSIjcCIvPiYjeGE7PHVzZSB5PSIxMTIiIHg9IjI3MiIgeGxpbms6aHJlZj0iI3AiLz4mI3hhOzx1c2UgeT0iMTM2IiB4PSIyNzIiIHhsaW5rOmhyZWY9IiNwIi8+JiN4YTs8dXNlIHk9IjE1MiIgeD0iMjcyIiB4bGluazpocmVmPSIjcCIvPiYjeGE7PHVzZSB5PSIxNzYiIHg9IjI3MiIgeGxpbms6aHJlZj0iI3AiLz4mI3hhOzx1c2UgeT0iMTkyIiB4PSIyNzIiIHhsaW5rOmhyZWY9IiNwIi8+JiN4YTs8dXNlIHk9IjIwMCIgeD0iMjcyIiB4bGluazpocmVmPSIjcCIvPiYjeGE7PHVzZSB5PSIyMDgiIHg9IjI3MiIgeGxpbms6aHJlZj0iI3AiLz4mI3hhOzx1c2UgeT0iMjE2IiB4PSIyNzIiIHhsaW5rOmhyZWY9IiNwIi8+JiN4YTs8dXNlIHk9IjIyNCIgeD0iMjcyIiB4bGluazpocmVmPSIjcCIvPiYjeGE7PHVzZSB5PSIyNDAiIHg9IjI3MiIgeGxpbms6aHJlZj0iI3AiLz4mI3hhOzx1c2UgeT0iMjQ4IiB4PSIyNzIiIHhsaW5rOmhyZWY9IiNwIi8+JiN4YTs8dXNlIHk9IjI1NiIgeD0iMjcyIiB4bGluazpocmVmPSIjcCIvPiYjeGE7PHVzZSB5PSIyNjQiIHg9IjI3MiIgeGxpbms6aHJlZj0iI3AiLz4mI3hhOzx1c2UgeT0iMjcyIiB4PSIyNzIiIHhsaW5rOmhyZWY9IiNwIi8+JiN4YTs8dXNlIHk9IjI4OCIgeD0iMjcyIiB4bGluazpocmVmPSIjcCIvPiYjeGE7PHVzZSB5PSIyOTYiIHg9IjI3MiIgeGxpbms6aHJlZj0iI3AiLz4mI3hhOzx1c2UgeT0iMzI4IiB4PSIyNzIiIHhsaW5rOmhyZWY9IiNwIi8+JiN4YTs8dXNlIHk9IjMzNiIgeD0iMjcyIiB4bGluazpocmVmPSIjcCIvPiYjeGE7PHVzZSB5PSIzNDQiIHg9IjI3MiIgeGxpbms6aHJlZj0iI3AiLz4mI3hhOzx1c2UgeT0iMzUyIiB4PSIyNzIiIHhsaW5rOmhyZWY9IiNwIi8+JiN4YTs8dXNlIHk9IjM2MCIgeD0iMjcyIiB4bGluazpocmVmPSIjcCIvPiYjeGE7PHVzZSB5PSIzNzYiIHg9IjI3MiIgeGxpbms6aHJlZj0iI3AiLz4mI3hhOzx1c2UgeT0iMzg0IiB4PSIyNzIiIHhsaW5rOmhyZWY9IiNwIi8+JiN4YTs8dXNlIHk9IjQwMCIgeD0iMjcyIiB4bGluazpocmVmPSIjcCIvPiYjeGE7PHVzZSB5PSI0MDgiIHg9IjI3MiIgeGxpbms6aHJlZj0iI3AiLz4mI3hhOzx1c2UgeT0iNDE2IiB4PSIyNzIiIHhsaW5rOmhyZWY9IiNwIi8+JiN4YTs8dXNlIHk9IjQyNCIgeD0iMjcyIiB4bGluazpocmVmPSIjcCIvPiYjeGE7PHVzZSB5PSI0MzIiIHg9IjI3MiIgeGxpbms6aHJlZj0iI3AiLz4mI3hhOzx1c2UgeT0iNDQwIiB4PSIyNzIiIHhsaW5rOmhyZWY9IiNwIi8+JiN4YTs8dXNlIHk9IjQ0OCIgeD0iMjcyIiB4bGluazpocmVmPSIjcCIvPiYjeGE7PHVzZSB5PSI0NTYiIHg9IjI3MiIgeGxpbms6aHJlZj0iI3AiLz4mI3hhOzx1c2UgeT0iNDgwIiB4PSIyNzIiIHhsaW5rOmhyZWY9IiNwIi8+JiN4YTs8dXNlIHk9IjMyIiB4PSIyODAiIHhsaW5rOmhyZWY9IiNwIi8+JiN4YTs8dXNlIHk9IjQwIiB4PSIyODAiIHhsaW5rOmhyZWY9IiNwIi8+JiN4YTs8dXNlIHk9IjQ4IiB4PSIyODAiIHhsaW5rOmhyZWY9IiNwIi8+JiN4YTs8dXNlIHk9IjEyMCIgeD0iMjgwIiB4bGluazpocmVmPSIjcCIvPiYjeGE7PHVzZSB5PSIxMjgiIHg9IjI4MCIgeGxpbms6aHJlZj0iI3AiLz4mI3hhOzx1c2UgeT0iMTYwIiB4PSIyODAiIHhsaW5rOmhyZWY9IiNwIi8+JiN4YTs8dXNlIHk9IjE2OCIgeD0iMjgwIiB4bGluazpocmVmPSIjcCIvPiYjeGE7PHVzZSB5PSIxODQiIHg9IjI4MCIgeGxpbms6aHJlZj0iI3AiLz4mI3hhOzx1c2UgeT0iMTkyIiB4PSIyODAiIHhsaW5rOmhyZWY9IiNwIi8+JiN4YTs8dXNlIHk9IjIwOCIgeD0iMjgwIiB4bGluazpocmVmPSIjcCIvPiYjeGE7PHVzZSB5PSIyMzIiIHg9IjI4MCIgeGxpbms6aHJlZj0iI3AiLz4mI3hhOzx1c2UgeT0iMjQwIiB4PSIyODAiIHhsaW5rOmhyZWY9IiNwIi8+JiN4YTs8dXNlIHk9IjI0OCIgeD0iMjgwIiB4bGluazpocmVmPSIjcCIvPiYjeGE7PHVzZSB5PSIyNTYiIHg9IjI4MCIgeGxpbms6aHJlZj0iI3AiLz4mI3hhOzx1c2UgeT0iMjcyIiB4PSIyODAiIHhsaW5rOmhyZWY9IiNwIi8+JiN4YTs8dXNlIHk9IjI4MCIgeD0iMjgwIiB4bGluazpocmVmPSIjcCIvPiYjeGE7PHVzZSB5PSIyODgiIHg9IjI4MCIgeGxpbms6aHJlZj0iI3AiLz4mI3hhOzx1c2UgeT0iMzUyIiB4PSIyODAiIHhsaW5rOmhyZWY9IiNwIi8+JiN4YTs8dXNlIHk9IjM2MCIgeD0iMjgwIiB4bGluazpocmVmPSIjcCIvPiYjeGE7PHVzZSB5PSIzODQiIHg9IjI4MCIgeGxpbms6aHJlZj0iI3AiLz4mI3hhOzx1c2UgeT0iMzkyIiB4PSIyODAiIHhsaW5rOmhyZWY9IiNwIi8+JiN4YTs8dXNlIHk9IjQwMCIgeD0iMjgwIiB4bGluazpocmVmPSIjcCIvPiYjeGE7PHVzZSB5PSI0MDgiIHg9IjI4MCIgeGxpbms6aHJlZj0iI3AiLz4mI3hhOzx1c2UgeT0iNDE2IiB4PSIyODAiIHhsaW5rOmhyZWY9IiNwIi8+JiN4YTs8dXNlIHk9IjQyNCIgeD0iMjgwIiB4bGluazpocmVmPSIjcCIvPiYjeGE7PHVzZSB5PSI0NjQiIHg9IjI4MCIgeGxpbms6aHJlZj0iI3AiLz4mI3hhOzx1c2UgeT0iNDcyIiB4PSIyODAiIHhsaW5rOmhyZWY9IiNwIi8+JiN4YTs8dXNlIHk9IjQ4MCIgeD0iMjgwIiB4bGluazpocmVmPSIjcCIvPiYjeGE7PHVzZSB5PSIzMiIgeD0iMjg4IiB4bGluazpocmVmPSIjcCIvPiYjeGE7PHVzZSB5PSI0OCIgeD0iMjg4IiB4bGluazpocmVmPSIjcCIvPiYjeGE7PHVzZSB5PSI3MiIgeD0iMjg4IiB4bGluazpocmVmPSIjcCIvPiYjeGE7PHVzZSB5PSI4MCIgeD0iMjg4IiB4bGluazpocmVmPSIjcCIvPiYjeGE7PHVzZSB5PSI5NiIgeD0iMjg4IiB4bGluazpocmVmPSIjcCIvPiYjeGE7PHVzZSB5PSIxMTIiIHg9IjI4OCIgeGxpbms6aHJlZj0iI3AiLz4mI3hhOzx1c2UgeT0iMTM2IiB4PSIyODgiIHhsaW5rOmhyZWY9IiNwIi8+JiN4YTs8dXNlIHk9IjE1MiIgeD0iMjg4IiB4bGluazpocmVmPSIjcCIvPiYjeGE7PHVzZSB5PSIxNjgiIHg9IjI4OCIgeGxpbms6aHJlZj0iI3AiLz4mI3hhOzx1c2UgeT0iMTc2IiB4PSIyODgiIHhsaW5rOmhyZWY9IiNwIi8+JiN4YTs8dXNlIHk9IjE4NCIgeD0iMjg4IiB4bGluazpocmVmPSIjcCIvPiYjeGE7PHVzZSB5PSIxOTIiIHg9IjI4OCIgeGxpbms6aHJlZj0iI3AiLz4mI3hhOzx1c2UgeT0iMjAwIiB4PSIyODgiIHhsaW5rOmhyZWY9IiNwIi8+JiN4YTs8dXNlIHk9IjIwOCIgeD0iMjg4IiB4bGluazpocmVmPSIjcCIvPiYjeGE7PHVzZSB5PSIyMTYiIHg9IjI4OCIgeGxpbms6aHJlZj0iI3AiLz4mI3hhOzx1c2UgeT0iMjI0IiB4PSIyODgiIHhsaW5rOmhyZWY9IiNwIi8+JiN4YTs8dXNlIHk9IjIzMiIgeD0iMjg4IiB4bGluazpocmVmPSIjcCIvPiYjeGE7PHVzZSB5PSIyNDgiIHg9IjI4OCIgeGxpbms6aHJlZj0iI3AiLz4mI3hhOzx1c2UgeT0iMjY0IiB4PSIyODgiIHhsaW5rOmhyZWY9IiNwIi8+JiN4YTs8dXNlIHk9IjI3MiIgeD0iMjg4IiB4bGluazpocmVmPSIjcCIvPiYjeGE7PHVzZSB5PSIyODAiIHg9IjI4OCIgeGxpbms6aHJlZj0iI3AiLz4mI3hhOzx1c2UgeT0iMjg4IiB4PSIyODgiIHhsaW5rOmhyZWY9IiNwIi8+JiN4YTs8dXNlIHk9IjI5NiIgeD0iMjg4IiB4bGluazpocmVmPSIjcCIvPiYjeGE7PHVzZSB5PSIzMDQiIHg9IjI4OCIgeGxpbms6aHJlZj0iI3AiLz4mI3hhOzx1c2UgeT0iMzEyIiB4PSIyODgiIHhsaW5rOmhyZWY9IiNwIi8+JiN4YTs8dXNlIHk9IjMyMCIgeD0iMjg4IiB4bGluazpocmVmPSIjcCIvPiYjeGE7PHVzZSB5PSIzNjgiIHg9IjI4OCIgeGxpbms6aHJlZj0iI3AiLz4mI3hhOzx1c2UgeT0iMzc2IiB4PSIyODgiIHhsaW5rOmhyZWY9IiNwIi8+JiN4YTs8dXNlIHk9IjQwMCIgeD0iMjg4IiB4bGluazpocmVmPSIjcCIvPiYjeGE7PHVzZSB5PSI0MDgiIHg9IjI4OCIgeGxpbms6aHJlZj0iI3AiLz4mI3hhOzx1c2UgeT0iNDI0IiB4PSIyODgiIHhsaW5rOmhyZWY9IiNwIi8+JiN4YTs8dXNlIHk9IjQzMiIgeD0iMjg4IiB4bGluazpocmVmPSIjcCIvPiYjeGE7PHVzZSB5PSI0NDAiIHg9IjI4OCIgeGxpbms6aHJlZj0iI3AiLz4mI3hhOzx1c2UgeT0iNDQ4IiB4PSIyODgiIHhsaW5rOmhyZWY9IiNwIi8+JiN4YTs8dXNlIHk9IjQ3MiIgeD0iMjg4IiB4bGluazpocmVmPSIjcCIvPiYjeGE7PHVzZSB5PSIzMiIgeD0iMjk2IiB4bGluazpocmVmPSIjcCIvPiYjeGE7PHVzZSB5PSI0OCIgeD0iMjk2IiB4bGluazpocmVmPSIjcCIvPiYjeGE7PHVzZSB5PSIxNTIiIHg9IjI5NiIgeGxpbms6aHJlZj0iI3AiLz4mI3hhOzx1c2UgeT0iMTYwIiB4PSIyOTYiIHhsaW5rOmhyZWY9IiNwIi8+JiN4YTs8dXNlIHk9IjE3NiIgeD0iMjk2IiB4bGluazpocmVmPSIjcCIvPiYjeGE7PHVzZSB5PSIxODQiIHg9IjI5NiIgeGxpbms6aHJlZj0iI3AiLz4mI3hhOzx1c2UgeT0iMjAwIiB4PSIyOTYiIHhsaW5rOmhyZWY9IiNwIi8+JiN4YTs8dXNlIHk9IjIxNiIgeD0iMjk2IiB4bGluazpocmVmPSIjcCIvPiYjeGE7PHVzZSB5PSIyMjQiIHg9IjI5NiIgeGxpbms6aHJlZj0iI3AiLz4mI3hhOzx1c2UgeT0iMjMyIiB4PSIyOTYiIHhsaW5rOmhyZWY9IiNwIi8+JiN4YTs8dXNlIHk9IjI0MCIgeD0iMjk2IiB4bGluazpocmVmPSIjcCIvPiYjeGE7PHVzZSB5PSIyODgiIHg9IjI5NiIgeGxpbms6aHJlZj0iI3AiLz4mI3hhOzx1c2UgeT0iMjk2IiB4PSIyOTYiIHhsaW5rOmhyZWY9IiNwIi8+JiN4YTs8dXNlIHk9IjMxMiIgeD0iMjk2IiB4bGluazpocmVmPSIjcCIvPiYjeGE7PHVzZSB5PSIzMjgiIHg9IjI5NiIgeGxpbms6aHJlZj0iI3AiLz4mI3hhOzx1c2UgeT0iMzM2IiB4PSIyOTYiIHhsaW5rOmhyZWY9IiNwIi8+JiN4YTs8dXNlIHk9IjM0NCIgeD0iMjk2IiB4bGluazpocmVmPSIjcCIvPiYjeGE7PHVzZSB5PSIzNjAiIHg9IjI5NiIgeGxpbms6aHJlZj0iI3AiLz4mI3hhOzx1c2UgeT0iMzkyIiB4PSIyOTYiIHhsaW5rOmhyZWY9IiNwIi8+JiN4YTs8dXNlIHk9IjQwOCIgeD0iMjk2IiB4bGluazpocmVmPSIjcCIvPiYjeGE7PHVzZSB5PSI0MTYiIHg9IjI5NiIgeGxpbms6aHJlZj0iI3AiLz4mI3hhOzx1c2UgeT0iNDQ4IiB4PSIyOTYiIHhsaW5rOmhyZWY9IiNwIi8+JiN4YTs8dXNlIHk9IjQ2NCIgeD0iMjk2IiB4bGluazpocmVmPSIjcCIvPiYjeGE7PHVzZSB5PSI0ODAiIHg9IjI5NiIgeGxpbms6aHJlZj0iI3AiLz4mI3hhOzx1c2UgeT0iNDgiIHg9IjMwNCIgeGxpbms6aHJlZj0iI3AiLz4mI3hhOzx1c2UgeT0iNjQiIHg9IjMwNCIgeGxpbms6aHJlZj0iI3AiLz4mI3hhOzx1c2UgeT0iNzIiIHg9IjMwNCIgeGxpbms6aHJlZj0iI3AiLz4mI3hhOzx1c2UgeT0iODAiIHg9IjMwNCIgeGxpbms6aHJlZj0iI3AiLz4mI3hhOzx1c2UgeT0iOTYiIHg9IjMwNCIgeGxpbms6aHJlZj0iI3AiLz4mI3hhOzx1c2UgeT0iMTM2IiB4PSIzMDQiIHhsaW5rOmhyZWY9IiNwIi8+JiN4YTs8dXNlIHk9IjE5MiIgeD0iMzA0IiB4bGluazpocmVmPSIjcCIvPiYjeGE7PHVzZSB5PSIyMDgiIHg9IjMwNCIgeGxpbms6aHJlZj0iI3AiLz4mI3hhOzx1c2UgeT0iMjI0IiB4PSIzMDQiIHhsaW5rOmhyZWY9IiNwIi8+JiN4YTs8dXNlIHk9IjIzMiIgeD0iMzA0IiB4bGluazpocmVmPSIjcCIvPiYjeGE7PHVzZSB5PSIyNTYiIHg9IjMwNCIgeGxpbms6aHJlZj0iI3AiLz4mI3hhOzx1c2UgeT0iMjY0IiB4PSIzMDQiIHhsaW5rOmhyZWY9IiNwIi8+JiN4YTs8dXNlIHk9IjI3MiIgeD0iMzA0IiB4bGluazpocmVmPSIjcCIvPiYjeGE7PHVzZSB5PSIzMDQiIHg9IjMwNCIgeGxpbms6aHJlZj0iI3AiLz4mI3hhOzx1c2UgeT0iMzEyIiB4PSIzMDQiIHhsaW5rOmhyZWY9IiNwIi8+JiN4YTs8dXNlIHk9IjM2MCIgeD0iMzA0IiB4bGluazpocmVmPSIjcCIvPiYjeGE7PHVzZSB5PSIzNjgiIHg9IjMwNCIgeGxpbms6aHJlZj0iI3AiLz4mI3hhOzx1c2UgeT0iMzg0IiB4PSIzMDQiIHhsaW5rOmhyZWY9IiNwIi8+JiN4YTs8dXNlIHk9IjQyNCIgeD0iMzA0IiB4bGluazpocmVmPSIjcCIvPiYjeGE7PHVzZSB5PSI0MzIiIHg9IjMwNCIgeGxpbms6aHJlZj0iI3AiLz4mI3hhOzx1c2UgeT0iNDU2IiB4PSIzMDQiIHhsaW5rOmhyZWY9IiNwIi8+JiN4YTs8dXNlIHk9IjQ3MiIgeD0iMzA0IiB4bGluazpocmVmPSIjcCIvPiYjeGE7PHVzZSB5PSI0ODAiIHg9IjMwNCIgeGxpbms6aHJlZj0iI3AiLz4mI3hhOzx1c2UgeT0iNzIiIHg9IjMxMiIgeGxpbms6aHJlZj0iI3AiLz4mI3hhOzx1c2UgeT0iODgiIHg9IjMxMiIgeGxpbms6aHJlZj0iI3AiLz4mI3hhOzx1c2UgeT0iMTA0IiB4PSIzMTIiIHhsaW5rOmhyZWY9IiNwIi8+JiN4YTs8dXNlIHk9IjEyMCIgeD0iMzEyIiB4bGluazpocmVmPSIjcCIvPiYjeGE7PHVzZSB5PSIxNDQiIHg9IjMxMiIgeGxpbms6aHJlZj0iI3AiLz4mI3hhOzx1c2UgeT0iMTUyIiB4PSIzMTIiIHhsaW5rOmhyZWY9IiNwIi8+JiN4YTs8dXNlIHk9IjE3NiIgeD0iMzEyIiB4bGluazpocmVmPSIjcCIvPiYjeGE7PHVzZSB5PSIxODQiIHg9IjMxMiIgeGxpbms6aHJlZj0iI3AiLz4mI3hhOzx1c2UgeT0iMTkyIiB4PSIzMTIiIHhsaW5rOmhyZWY9IiNwIi8+JiN4YTs8dXNlIHk9IjIwOCIgeD0iMzEyIiB4bGluazpocmVmPSIjcCIvPiYjeGE7PHVzZSB5PSIyMTYiIHg9IjMxMiIgeGxpbms6aHJlZj0iI3AiLz4mI3hhOzx1c2UgeT0iMjMyIiB4PSIzMTIiIHhsaW5rOmhyZWY9IiNwIi8+JiN4YTs8dXNlIHk9IjI3MiIgeD0iMzEyIiB4bGluazpocmVmPSIjcCIvPiYjeGE7PHVzZSB5PSIyODAiIHg9IjMxMiIgeGxpbms6aHJlZj0iI3AiLz4mI3hhOzx1c2UgeT0iMjg4IiB4PSIzMTIiIHhsaW5rOmhyZWY9IiNwIi8+JiN4YTs8dXNlIHk9IjI5NiIgeD0iMzEyIiB4bGluazpocmVmPSIjcCIvPiYjeGE7PHVzZSB5PSIzMTIiIHg9IjMxMiIgeGxpbms6aHJlZj0iI3AiLz4mI3hhOzx1c2UgeT0iMzI4IiB4PSIzMTIiIHhsaW5rOmhyZWY9IiNwIi8+JiN4YTs8dXNlIHk9IjM0NCIgeD0iMzEyIiB4bGluazpocmVmPSIjcCIvPiYjeGE7PHVzZSB5PSIzNTIiIHg9IjMxMiIgeGxpbms6aHJlZj0iI3AiLz4mI3hhOzx1c2UgeT0iMzY4IiB4PSIzMTIiIHhsaW5rOmhyZWY9IiNwIi8+JiN4YTs8dXNlIHk9IjQwMCIgeD0iMzEyIiB4bGluazpocmVmPSIjcCIvPiYjeGE7PHVzZSB5PSI0MDgiIHg9IjMxMiIgeGxpbms6aHJlZj0iI3AiLz4mI3hhOzx1c2UgeT0iNDI0IiB4PSIzMTIiIHhsaW5rOmhyZWY9IiNwIi8+JiN4YTs8dXNlIHk9IjQzMiIgeD0iMzEyIiB4bGluazpocmVmPSIjcCIvPiYjeGE7PHVzZSB5PSI0NDgiIHg9IjMxMiIgeGxpbms6aHJlZj0iI3AiLz4mI3hhOzx1c2UgeT0iNDU2IiB4PSIzMTIiIHhsaW5rOmhyZWY9IiNwIi8+JiN4YTs8dXNlIHk9IjQ4MCIgeD0iMzEyIiB4bGluazpocmVmPSIjcCIvPiYjeGE7PHVzZSB5PSI4MCIgeD0iMzIwIiB4bGluazpocmVmPSIjcCIvPiYjeGE7PHVzZSB5PSIxMjAiIHg9IjMyMCIgeGxpbms6aHJlZj0iI3AiLz4mI3hhOzx1c2UgeT0iMTI4IiB4PSIzMjAiIHhsaW5rOmhyZWY9IiNwIi8+JiN4YTs8dXNlIHk9IjE2OCIgeD0iMzIwIiB4bGluazpocmVmPSIjcCIvPiYjeGE7PHVzZSB5PSIxNzYiIHg9IjMyMCIgeGxpbms6aHJlZj0iI3AiLz4mI3hhOzx1c2UgeT0iMTg0IiB4PSIzMjAiIHhsaW5rOmhyZWY9IiNwIi8+JiN4YTs8dXNlIHk9IjE5MiIgeD0iMzIwIiB4bGluazpocmVmPSIjcCIvPiYjeGE7PHVzZSB5PSIyMDAiIHg9IjMyMCIgeGxpbms6aHJlZj0iI3AiLz4mI3hhOzx1c2UgeT0iMjA4IiB4PSIzMjAiIHhsaW5rOmhyZWY9IiNwIi8+JiN4YTs8dXNlIHk9IjIyNCIgeD0iMzIwIiB4bGluazpocmVmPSIjcCIvPiYjeGE7PHVzZSB5PSIyNDAiIHg9IjMyMCIgeGxpbms6aHJlZj0iI3AiLz4mI3hhOzx1c2UgeT0iMjcyIiB4PSIzMjAiIHhsaW5rOmhyZWY9IiNwIi8+JiN4YTs8dXNlIHk9IjI4MCIgeD0iMzIwIiB4bGluazpocmVmPSIjcCIvPiYjeGE7PHVzZSB5PSIzMDQiIHg9IjMyMCIgeGxpbms6aHJlZj0iI3AiLz4mI3hhOzx1c2UgeT0iMzIwIiB4PSIzMjAiIHhsaW5rOmhyZWY9IiNwIi8+JiN4YTs8dXNlIHk9IjMyOCIgeD0iMzIwIiB4bGluazpocmVmPSIjcCIvPiYjeGE7PHVzZSB5PSIzNDQiIHg9IjMyMCIgeGxpbms6aHJlZj0iI3AiLz4mI3hhOzx1c2UgeT0iMzUyIiB4PSIzMjAiIHhsaW5rOmhyZWY9IiNwIi8+JiN4YTs8dXNlIHk9IjM2MCIgeD0iMzIwIiB4bGluazpocmVmPSIjcCIvPiYjeGE7PHVzZSB5PSIzNzYiIHg9IjMyMCIgeGxpbms6aHJlZj0iI3AiLz4mI3hhOzx1c2UgeT0iMzg0IiB4PSIzMjAiIHhsaW5rOmhyZWY9IiNwIi8+JiN4YTs8dXNlIHk9IjQwOCIgeD0iMzIwIiB4bGluazpocmVmPSIjcCIvPiYjeGE7PHVzZSB5PSI0MTYiIHg9IjMyMCIgeGxpbms6aHJlZj0iI3AiLz4mI3hhOzx1c2UgeT0iNDI0IiB4PSIzMjAiIHhsaW5rOmhyZWY9IiNwIi8+JiN4YTs8dXNlIHk9IjQzMiIgeD0iMzIwIiB4bGluazpocmVmPSIjcCIvPiYjeGE7PHVzZSB5PSI0NjQiIHg9IjMyMCIgeGxpbms6aHJlZj0iI3AiLz4mI3hhOzx1c2UgeT0iNDcyIiB4PSIzMjAiIHhsaW5rOmhyZWY9IiNwIi8+JiN4YTs8dXNlIHk9IjQwIiB4PSIzMjgiIHhsaW5rOmhyZWY9IiNwIi8+JiN4YTs8dXNlIHk9IjQ4IiB4PSIzMjgiIHhsaW5rOmhyZWY9IiNwIi8+JiN4YTs8dXNlIHk9IjY0IiB4PSIzMjgiIHhsaW5rOmhyZWY9IiNwIi8+JiN4YTs8dXNlIHk9Ijk2IiB4PSIzMjgiIHhsaW5rOmhyZWY9IiNwIi8+JiN4YTs8dXNlIHk9IjEwNCIgeD0iMzI4IiB4bGluazpocmVmPSIjcCIvPiYjeGE7PHVzZSB5PSIxMjAiIHg9IjMyOCIgeGxpbms6aHJlZj0iI3AiLz4mI3hhOzx1c2UgeT0iMTI4IiB4PSIzMjgiIHhsaW5rOmhyZWY9IiNwIi8+JiN4YTs8dXNlIHk9IjE0NCIgeD0iMzI4IiB4bGluazpocmVmPSIjcCIvPiYjeGE7PHVzZSB5PSIxNTIiIHg9IjMyOCIgeGxpbms6aHJlZj0iI3AiLz4mI3hhOzx1c2UgeT0iMTYwIiB4PSIzMjgiIHhsaW5rOmhyZWY9IiNwIi8+JiN4YTs8dXNlIHk9IjE3NiIgeD0iMzI4IiB4bGluazpocmVmPSIjcCIvPiYjeGE7PHVzZSB5PSIxODQiIHg9IjMyOCIgeGxpbms6aHJlZj0iI3AiLz4mI3hhOzx1c2UgeT0iMjAwIiB4PSIzMjgiIHhsaW5rOmhyZWY9IiNwIi8+JiN4YTs8dXNlIHk9IjIxNiIgeD0iMzI4IiB4bGluazpocmVmPSIjcCIvPiYjeGE7PHVzZSB5PSIyNDgiIHg9IjMyOCIgeGxpbms6aHJlZj0iI3AiLz4mI3hhOzx1c2UgeT0iMjU2IiB4PSIzMjgiIHhsaW5rOmhyZWY9IiNwIi8+JiN4YTs8dXNlIHk9IjI2NCIgeD0iMzI4IiB4bGluazpocmVmPSIjcCIvPiYjeGE7PHVzZSB5PSIyNzIiIHg9IjMyOCIgeGxpbms6aHJlZj0iI3AiLz4mI3hhOzx1c2UgeT0iMjg4IiB4PSIzMjgiIHhsaW5rOmhyZWY9IiNwIi8+JiN4YTs8dXNlIHk9IjI5NiIgeD0iMzI4IiB4bGluazpocmVmPSIjcCIvPiYjeGE7PHVzZSB5PSIzMTIiIHg9IjMyOCIgeGxpbms6aHJlZj0iI3AiLz4mI3hhOzx1c2UgeT0iMzI4IiB4PSIzMjgiIHhsaW5rOmhyZWY9IiNwIi8+JiN4YTs8dXNlIHk9IjM1MiIgeD0iMzI4IiB4bGluazpocmVmPSIjcCIvPiYjeGE7PHVzZSB5PSIzOTIiIHg9IjMyOCIgeGxpbms6aHJlZj0iI3AiLz4mI3hhOzx1c2UgeT0iNDA4IiB4PSIzMjgiIHhsaW5rOmhyZWY9IiNwIi8+JiN4YTs8dXNlIHk9IjQxNiIgeD0iMzI4IiB4bGluazpocmVmPSIjcCIvPiYjeGE7PHVzZSB5PSI0MzIiIHg9IjMyOCIgeGxpbms6aHJlZj0iI3AiLz4mI3hhOzx1c2UgeT0iNDQwIiB4PSIzMjgiIHhsaW5rOmhyZWY9IiNwIi8+JiN4YTs8dXNlIHk9IjQ0OCIgeD0iMzI4IiB4bGluazpocmVmPSIjcCIvPiYjeGE7PHVzZSB5PSIzMiIgeD0iMzM2IiB4bGluazpocmVmPSIjcCIvPiYjeGE7PHVzZSB5PSI1NiIgeD0iMzM2IiB4bGluazpocmVmPSIjcCIvPiYjeGE7PHVzZSB5PSI2NCIgeD0iMzM2IiB4bGluazpocmVmPSIjcCIvPiYjeGE7PHVzZSB5PSI3MiIgeD0iMzM2IiB4bGluazpocmVmPSIjcCIvPiYjeGE7PHVzZSB5PSI4MCIgeD0iMzM2IiB4bGluazpocmVmPSIjcCIvPiYjeGE7PHVzZSB5PSI5NiIgeD0iMzM2IiB4bGluazpocmVmPSIjcCIvPiYjeGE7PHVzZSB5PSIxMTIiIHg9IjMzNiIgeGxpbms6aHJlZj0iI3AiLz4mI3hhOzx1c2UgeT0iMTIwIiB4PSIzMzYiIHhsaW5rOmhyZWY9IiNwIi8+JiN4YTs8dXNlIHk9IjEzNiIgeD0iMzM2IiB4bGluazpocmVmPSIjcCIvPiYjeGE7PHVzZSB5PSIxNDQiIHg9IjMzNiIgeGxpbms6aHJlZj0iI3AiLz4mI3hhOzx1c2UgeT0iMTUyIiB4PSIzMzYiIHhsaW5rOmhyZWY9IiNwIi8+JiN4YTs8dXNlIHk9IjE2MCIgeD0iMzM2IiB4bGluazpocmVmPSIjcCIvPiYjeGE7PHVzZSB5PSIxODQiIHg9IjMzNiIgeGxpbms6aHJlZj0iI3AiLz4mI3hhOzx1c2UgeT0iMTkyIiB4PSIzMzYiIHhsaW5rOmhyZWY9IiNwIi8+JiN4YTs8dXNlIHk9IjIwMCIgeD0iMzM2IiB4bGluazpocmVmPSIjcCIvPiYjeGE7PHVzZSB5PSIyMzIiIHg9IjMzNiIgeGxpbms6aHJlZj0iI3AiLz4mI3hhOzx1c2UgeT0iMjgwIiB4PSIzMzYiIHhsaW5rOmhyZWY9IiNwIi8+JiN4YTs8dXNlIHk9IjI5NiIgeD0iMzM2IiB4bGluazpocmVmPSIjcCIvPiYjeGE7PHVzZSB5PSIzMjAiIHg9IjMzNiIgeGxpbms6aHJlZj0iI3AiLz4mI3hhOzx1c2UgeT0iMzI4IiB4PSIzMzYiIHhsaW5rOmhyZWY9IiNwIi8+JiN4YTs8dXNlIHk9IjMzNiIgeD0iMzM2IiB4bGluazpocmVmPSIjcCIvPiYjeGE7PHVzZSB5PSIzNDQiIHg9IjMzNiIgeGxpbms6aHJlZj0iI3AiLz4mI3hhOzx1c2UgeT0iMzUyIiB4PSIzMzYiIHhsaW5rOmhyZWY9IiNwIi8+JiN4YTs8dXNlIHk9IjM2OCIgeD0iMzM2IiB4bGluazpocmVmPSIjcCIvPiYjeGE7PHVzZSB5PSIzOTIiIHg9IjMzNiIgeGxpbms6aHJlZj0iI3AiLz4mI3hhOzx1c2UgeT0iNDA4IiB4PSIzMzYiIHhsaW5rOmhyZWY9IiNwIi8+JiN4YTs8dXNlIHk9IjQ1NiIgeD0iMzM2IiB4bGluazpocmVmPSIjcCIvPiYjeGE7PHVzZSB5PSI0MCIgeD0iMzQ0IiB4bGluazpocmVmPSIjcCIvPiYjeGE7PHVzZSB5PSI1NiIgeD0iMzQ0IiB4bGluazpocmVmPSIjcCIvPiYjeGE7PHVzZSB5PSI3MiIgeD0iMzQ0IiB4bGluazpocmVmPSIjcCIvPiYjeGE7PHVzZSB5PSI4OCIgeD0iMzQ0IiB4bGluazpocmVmPSIjcCIvPiYjeGE7PHVzZSB5PSIxMDQiIHg9IjM0NCIgeGxpbms6aHJlZj0iI3AiLz4mI3hhOzx1c2UgeT0iMTQ0IiB4PSIzNDQiIHhsaW5rOmhyZWY9IiNwIi8+JiN4YTs8dXNlIHk9IjE3NiIgeD0iMzQ0IiB4bGluazpocmVmPSIjcCIvPiYjeGE7PHVzZSB5PSIxOTIiIHg9IjM0NCIgeGxpbms6aHJlZj0iI3AiLz4mI3hhOzx1c2UgeT0iMjAwIiB4PSIzNDQiIHhsaW5rOmhyZWY9IiNwIi8+JiN4YTs8dXNlIHk9IjIxNiIgeD0iMzQ0IiB4bGluazpocmVmPSIjcCIvPiYjeGE7PHVzZSB5PSIyMjQiIHg9IjM0NCIgeGxpbms6aHJlZj0iI3AiLz4mI3hhOzx1c2UgeT0iMjMyIiB4PSIzNDQiIHhsaW5rOmhyZWY9IiNwIi8+JiN4YTs8dXNlIHk9IjI0MCIgeD0iMzQ0IiB4bGluazpocmVmPSIjcCIvPiYjeGE7PHVzZSB5PSIyNDgiIHg9IjM0NCIgeGxpbms6aHJlZj0iI3AiLz4mI3hhOzx1c2UgeT0iMjY0IiB4PSIzNDQiIHhsaW5rOmhyZWY9IiNwIi8+JiN4YTs8dXNlIHk9IjI3MiIgeD0iMzQ0IiB4bGluazpocmVmPSIjcCIvPiYjeGE7PHVzZSB5PSIyOTYiIHg9IjM0NCIgeGxpbms6aHJlZj0iI3AiLz4mI3hhOzx1c2UgeT0iMzA0IiB4PSIzNDQiIHhsaW5rOmhyZWY9IiNwIi8+JiN4YTs8dXNlIHk9IjMzNiIgeD0iMzQ0IiB4bGluazpocmVmPSIjcCIvPiYjeGE7PHVzZSB5PSIzNDQiIHg9IjM0NCIgeGxpbms6aHJlZj0iI3AiLz4mI3hhOzx1c2UgeT0iMzUyIiB4PSIzNDQiIHhsaW5rOmhyZWY9IiNwIi8+JiN4YTs8dXNlIHk9IjM2OCIgeD0iMzQ0IiB4bGluazpocmVmPSIjcCIvPiYjeGE7PHVzZSB5PSIzNzYiIHg9IjM0NCIgeGxpbms6aHJlZj0iI3AiLz4mI3hhOzx1c2UgeT0iNDAwIiB4PSIzNDQiIHhsaW5rOmhyZWY9IiNwIi8+JiN4YTs8dXNlIHk9IjQwOCIgeD0iMzQ0IiB4bGluazpocmVmPSIjcCIvPiYjeGE7PHVzZSB5PSI0MjQiIHg9IjM0NCIgeGxpbms6aHJlZj0iI3AiLz4mI3hhOzx1c2UgeT0iNDMyIiB4PSIzNDQiIHhsaW5rOmhyZWY9IiNwIi8+JiN4YTs8dXNlIHk9IjQ0MCIgeD0iMzQ0IiB4bGluazpocmVmPSIjcCIvPiYjeGE7PHVzZSB5PSI0NTYiIHg9IjM0NCIgeGxpbms6aHJlZj0iI3AiLz4mI3hhOzx1c2UgeT0iNDAiIHg9IjM1MiIgeGxpbms6aHJlZj0iI3AiLz4mI3hhOzx1c2UgeT0iNDgiIHg9IjM1MiIgeGxpbms6aHJlZj0iI3AiLz4mI3hhOzx1c2UgeT0iNTYiIHg9IjM1MiIgeGxpbms6aHJlZj0iI3AiLz4mI3hhOzx1c2UgeT0iNzIiIHg9IjM1MiIgeGxpbms6aHJlZj0iI3AiLz4mI3hhOzx1c2UgeT0iODAiIHg9IjM1MiIgeGxpbms6aHJlZj0iI3AiLz4mI3hhOzx1c2UgeT0iODgiIHg9IjM1MiIgeGxpbms6aHJlZj0iI3AiLz4mI3hhOzx1c2UgeT0iOTYiIHg9IjM1MiIgeGxpbms6aHJlZj0iI3AiLz4mI3hhOzx1c2UgeT0iMTI4IiB4PSIzNTIiIHhsaW5rOmhyZWY9IiNwIi8+JiN4YTs8dXNlIHk9IjEzNiIgeD0iMzUyIiB4bGluazpocmVmPSIjcCIvPiYjeGE7PHVzZSB5PSIxNDQiIHg9IjM1MiIgeGxpbms6aHJlZj0iI3AiLz4mI3hhOzx1c2UgeT0iMTc2IiB4PSIzNTIiIHhsaW5rOmhyZWY9IiNwIi8+JiN4YTs8dXNlIHk9IjE4NCIgeD0iMzUyIiB4bGluazpocmVmPSIjcCIvPiYjeGE7PHVzZSB5PSIxOTIiIHg9IjM1MiIgeGxpbms6aHJlZj0iI3AiLz4mI3hhOzx1c2UgeT0iMjE2IiB4PSIzNTIiIHhsaW5rOmhyZWY9IiNwIi8+JiN4YTs8dXNlIHk9IjIyNCIgeD0iMzUyIiB4bGluazpocmVmPSIjcCIvPiYjeGE7PHVzZSB5PSIyNDAiIHg9IjM1MiIgeGxpbms6aHJlZj0iI3AiLz4mI3hhOzx1c2UgeT0iMjY0IiB4PSIzNTIiIHhsaW5rOmhyZWY9IiNwIi8+JiN4YTs8dXNlIHk9IjI4MCIgeD0iMzUyIiB4bGluazpocmVmPSIjcCIvPiYjeGE7PHVzZSB5PSIyODgiIHg9IjM1MiIgeGxpbms6aHJlZj0iI3AiLz4mI3hhOzx1c2UgeT0iMzIwIiB4PSIzNTIiIHhsaW5rOmhyZWY9IiNwIi8+JiN4YTs8dXNlIHk9IjMyOCIgeD0iMzUyIiB4bGluazpocmVmPSIjcCIvPiYjeGE7PHVzZSB5PSIzMzYiIHg9IjM1MiIgeGxpbms6aHJlZj0iI3AiLz4mI3hhOzx1c2UgeT0iMzc2IiB4PSIzNTIiIHhsaW5rOmhyZWY9IiNwIi8+JiN4YTs8dXNlIHk9IjM4NCIgeD0iMzUyIiB4bGluazpocmVmPSIjcCIvPiYjeGE7PHVzZSB5PSIzOTIiIHg9IjM1MiIgeGxpbms6aHJlZj0iI3AiLz4mI3hhOzx1c2UgeT0iNDAwIiB4PSIzNTIiIHhsaW5rOmhyZWY9IiNwIi8+JiN4YTs8dXNlIHk9IjQxNiIgeD0iMzUyIiB4bGluazpocmVmPSIjcCIvPiYjeGE7PHVzZSB5PSI0MzIiIHg9IjM1MiIgeGxpbms6aHJlZj0iI3AiLz4mI3hhOzx1c2UgeT0iNDY0IiB4PSIzNTIiIHhsaW5rOmhyZWY9IiNwIi8+JiN4YTs8dXNlIHk9IjQ4IiB4PSIzNjAiIHhsaW5rOmhyZWY9IiNwIi8+JiN4YTs8dXNlIHk9IjU2IiB4PSIzNjAiIHhsaW5rOmhyZWY9IiNwIi8+JiN4YTs8dXNlIHk9Ijk2IiB4PSIzNjAiIHhsaW5rOmhyZWY9IiNwIi8+JiN4YTs8dXNlIHk9IjEwNCIgeD0iMzYwIiB4bGluazpocmVmPSIjcCIvPiYjeGE7PHVzZSB5PSIxMjAiIHg9IjM2MCIgeGxpbms6aHJlZj0iI3AiLz4mI3hhOzx1c2UgeT0iMTI4IiB4PSIzNjAiIHhsaW5rOmhyZWY9IiNwIi8+JiN4YTs8dXNlIHk9IjEzNiIgeD0iMzYwIiB4bGluazpocmVmPSIjcCIvPiYjeGE7PHVzZSB5PSIxODQiIHg9IjM2MCIgeGxpbms6aHJlZj0iI3AiLz4mI3hhOzx1c2UgeT0iMTkyIiB4PSIzNjAiIHhsaW5rOmhyZWY9IiNwIi8+JiN4YTs8dXNlIHk9IjIwMCIgeD0iMzYwIiB4bGluazpocmVmPSIjcCIvPiYjeGE7PHVzZSB5PSIyNDgiIHg9IjM2MCIgeGxpbms6aHJlZj0iI3AiLz4mI3hhOzx1c2UgeT0iMjk2IiB4PSIzNjAiIHhsaW5rOmhyZWY9IiNwIi8+JiN4YTs8dXNlIHk9IjMwNCIgeD0iMzYwIiB4bGluazpocmVmPSIjcCIvPiYjeGE7PHVzZSB5PSIzMTIiIHg9IjM2MCIgeGxpbms6aHJlZj0iI3AiLz4mI3hhOzx1c2UgeT0iMzI4IiB4PSIzNjAiIHhsaW5rOmhyZWY9IiNwIi8+JiN4YTs8dXNlIHk9IjM4NCIgeD0iMzYwIiB4bGluazpocmVmPSIjcCIvPiYjeGE7PHVzZSB5PSIzOTIiIHg9IjM2MCIgeGxpbms6aHJlZj0iI3AiLz4mI3hhOzx1c2UgeT0iNDA4IiB4PSIzNjAiIHhsaW5rOmhyZWY9IiNwIi8+JiN4YTs8dXNlIHk9IjQxNiIgeD0iMzYwIiB4bGluazpocmVmPSIjcCIvPiYjeGE7PHVzZSB5PSI0MjQiIHg9IjM2MCIgeGxpbms6aHJlZj0iI3AiLz4mI3hhOzx1c2UgeT0iNDQwIiB4PSIzNjAiIHhsaW5rOmhyZWY9IiNwIi8+JiN4YTs8dXNlIHk9IjQ0OCIgeD0iMzYwIiB4bGluazpocmVmPSIjcCIvPiYjeGE7PHVzZSB5PSI0NzIiIHg9IjM2MCIgeGxpbms6aHJlZj0iI3AiLz4mI3hhOzx1c2UgeT0iMzIiIHg9IjM2OCIgeGxpbms6aHJlZj0iI3AiLz4mI3hhOzx1c2UgeT0iNjQiIHg9IjM2OCIgeGxpbms6aHJlZj0iI3AiLz4mI3hhOzx1c2UgeT0iODAiIHg9IjM2OCIgeGxpbms6aHJlZj0iI3AiLz4mI3hhOzx1c2UgeT0iODgiIHg9IjM2OCIgeGxpbms6aHJlZj0iI3AiLz4mI3hhOzx1c2UgeT0iOTYiIHg9IjM2OCIgeGxpbms6aHJlZj0iI3AiLz4mI3hhOzx1c2UgeT0iMTA0IiB4PSIzNjgiIHhsaW5rOmhyZWY9IiNwIi8+JiN4YTs8dXNlIHk9IjEyOCIgeD0iMzY4IiB4bGluazpocmVmPSIjcCIvPiYjeGE7PHVzZSB5PSIxMzYiIHg9IjM2OCIgeGxpbms6aHJlZj0iI3AiLz4mI3hhOzx1c2UgeT0iMTUyIiB4PSIzNjgiIHhsaW5rOmhyZWY9IiNwIi8+JiN4YTs8dXNlIHk9IjE2MCIgeD0iMzY4IiB4bGluazpocmVmPSIjcCIvPiYjeGE7PHVzZSB5PSIxNjgiIHg9IjM2OCIgeGxpbms6aHJlZj0iI3AiLz4mI3hhOzx1c2UgeT0iMjAwIiB4PSIzNjgiIHhsaW5rOmhyZWY9IiNwIi8+JiN4YTs8dXNlIHk9IjIxNiIgeD0iMzY4IiB4bGluazpocmVmPSIjcCIvPiYjeGE7PHVzZSB5PSIyMjQiIHg9IjM2OCIgeGxpbms6aHJlZj0iI3AiLz4mI3hhOzx1c2UgeT0iMjMyIiB4PSIzNjgiIHhsaW5rOmhyZWY9IiNwIi8+JiN4YTs8dXNlIHk9IjI0MCIgeD0iMzY4IiB4bGluazpocmVmPSIjcCIvPiYjeGE7PHVzZSB5PSIyNDgiIHg9IjM2OCIgeGxpbms6aHJlZj0iI3AiLz4mI3hhOzx1c2UgeT0iMjY0IiB4PSIzNjgiIHhsaW5rOmhyZWY9IiNwIi8+JiN4YTs8dXNlIHk9IjI4OCIgeD0iMzY4IiB4bGluazpocmVmPSIjcCIvPiYjeGE7PHVzZSB5PSIyOTYiIHg9IjM2OCIgeGxpbms6aHJlZj0iI3AiLz4mI3hhOzx1c2UgeT0iMzEyIiB4PSIzNjgiIHhsaW5rOmhyZWY9IiNwIi8+JiN4YTs8dXNlIHk9IjMyOCIgeD0iMzY4IiB4bGluazpocmVmPSIjcCIvPiYjeGE7PHVzZSB5PSIzNDQiIHg9IjM2OCIgeGxpbms6aHJlZj0iI3AiLz4mI3hhOzx1c2UgeT0iMzUyIiB4PSIzNjgiIHhsaW5rOmhyZWY9IiNwIi8+JiN4YTs8dXNlIHk9IjM2MCIgeD0iMzY4IiB4bGluazpocmVmPSIjcCIvPiYjeGE7PHVzZSB5PSIzNzYiIHg9IjM2OCIgeGxpbms6aHJlZj0iI3AiLz4mI3hhOzx1c2UgeT0iMzg0IiB4PSIzNjgiIHhsaW5rOmhyZWY9IiNwIi8+JiN4YTs8dXNlIHk9IjM5MiIgeD0iMzY4IiB4bGluazpocmVmPSIjcCIvPiYjeGE7PHVzZSB5PSI0MDgiIHg9IjM2OCIgeGxpbms6aHJlZj0iI3AiLz4mI3hhOzx1c2UgeT0iNDI0IiB4PSIzNjgiIHhsaW5rOmhyZWY9IiNwIi8+JiN4YTs8dXNlIHk9IjQ0MCIgeD0iMzY4IiB4bGluazpocmVmPSIjcCIvPiYjeGE7PHVzZSB5PSI0NDgiIHg9IjM2OCIgeGxpbms6aHJlZj0iI3AiLz4mI3hhOzx1c2UgeT0iNDU2IiB4PSIzNjgiIHhsaW5rOmhyZWY9IiNwIi8+JiN4YTs8dXNlIHk9IjQwIiB4PSIzNzYiIHhsaW5rOmhyZWY9IiNwIi8+JiN4YTs8dXNlIHk9IjU2IiB4PSIzNzYiIHhsaW5rOmhyZWY9IiNwIi8+JiN4YTs8dXNlIHk9IjY0IiB4PSIzNzYiIHhsaW5rOmhyZWY9IiNwIi8+JiN4YTs8dXNlIHk9IjcyIiB4PSIzNzYiIHhsaW5rOmhyZWY9IiNwIi8+JiN4YTs8dXNlIHk9Ijg4IiB4PSIzNzYiIHhsaW5rOmhyZWY9IiNwIi8+JiN4YTs8dXNlIHk9IjExMiIgeD0iMzc2IiB4bGluazpocmVmPSIjcCIvPiYjeGE7PHVzZSB5PSIxMjAiIHg9IjM3NiIgeGxpbms6aHJlZj0iI3AiLz4mI3hhOzx1c2UgeT0iMTM2IiB4PSIzNzYiIHhsaW5rOmhyZWY9IiNwIi8+JiN4YTs8dXNlIHk9IjE1MiIgeD0iMzc2IiB4bGluazpocmVmPSIjcCIvPiYjeGE7PHVzZSB5PSIxNjAiIHg9IjM3NiIgeGxpbms6aHJlZj0iI3AiLz4mI3hhOzx1c2UgeT0iMTY4IiB4PSIzNzYiIHhsaW5rOmhyZWY9IiNwIi8+JiN4YTs8dXNlIHk9IjE4NCIgeD0iMzc2IiB4bGluazpocmVmPSIjcCIvPiYjeGE7PHVzZSB5PSIyMDAiIHg9IjM3NiIgeGxpbms6aHJlZj0iI3AiLz4mI3hhOzx1c2UgeT0iMjY0IiB4PSIzNzYiIHhsaW5rOmhyZWY9IiNwIi8+JiN4YTs8dXNlIHk9IjI5NiIgeD0iMzc2IiB4bGluazpocmVmPSIjcCIvPiYjeGE7PHVzZSB5PSIzMDQiIHg9IjM3NiIgeGxpbms6aHJlZj0iI3AiLz4mI3hhOzx1c2UgeT0iMzIwIiB4PSIzNzYiIHhsaW5rOmhyZWY9IiNwIi8+JiN4YTs8dXNlIHk9IjM1MiIgeD0iMzc2IiB4bGluazpocmVmPSIjcCIvPiYjeGE7PHVzZSB5PSIzNjAiIHg9IjM3NiIgeGxpbms6aHJlZj0iI3AiLz4mI3hhOzx1c2UgeT0iMzc2IiB4PSIzNzYiIHhsaW5rOmhyZWY9IiNwIi8+JiN4YTs8dXNlIHk9IjM5MiIgeD0iMzc2IiB4bGluazpocmVmPSIjcCIvPiYjeGE7PHVzZSB5PSI0MDAiIHg9IjM3NiIgeGxpbms6aHJlZj0iI3AiLz4mI3hhOzx1c2UgeT0iNDA4IiB4PSIzNzYiIHhsaW5rOmhyZWY9IiNwIi8+JiN4YTs8dXNlIHk9IjQxNiIgeD0iMzc2IiB4bGluazpocmVmPSIjcCIvPiYjeGE7PHVzZSB5PSI0NDAiIHg9IjM3NiIgeGxpbms6aHJlZj0iI3AiLz4mI3hhOzx1c2UgeT0iNDQ4IiB4PSIzNzYiIHhsaW5rOmhyZWY9IiNwIi8+JiN4YTs8dXNlIHk9IjQ1NiIgeD0iMzc2IiB4bGluazpocmVmPSIjcCIvPiYjeGE7PHVzZSB5PSI0MCIgeD0iMzg0IiB4bGluazpocmVmPSIjcCIvPiYjeGE7PHVzZSB5PSI0OCIgeD0iMzg0IiB4bGluazpocmVmPSIjcCIvPiYjeGE7PHVzZSB5PSI1NiIgeD0iMzg0IiB4bGluazpocmVmPSIjcCIvPiYjeGE7PHVzZSB5PSI3MiIgeD0iMzg0IiB4bGluazpocmVmPSIjcCIvPiYjeGE7PHVzZSB5PSI4MCIgeD0iMzg0IiB4bGluazpocmVmPSIjcCIvPiYjeGE7PHVzZSB5PSIxMDQiIHg9IjM4NCIgeGxpbms6aHJlZj0iI3AiLz4mI3hhOzx1c2UgeT0iMTEyIiB4PSIzODQiIHhsaW5rOmhyZWY9IiNwIi8+JiN4YTs8dXNlIHk9IjEyOCIgeD0iMzg0IiB4bGluazpocmVmPSIjcCIvPiYjeGE7PHVzZSB5PSIxNDQiIHg9IjM4NCIgeGxpbms6aHJlZj0iI3AiLz4mI3hhOzx1c2UgeT0iMTYwIiB4PSIzODQiIHhsaW5rOmhyZWY9IiNwIi8+JiN4YTs8dXNlIHk9IjIwOCIgeD0iMzg0IiB4bGluazpocmVmPSIjcCIvPiYjeGE7PHVzZSB5PSIyMjQiIHg9IjM4NCIgeGxpbms6aHJlZj0iI3AiLz4mI3hhOzx1c2UgeT0iMjMyIiB4PSIzODQiIHhsaW5rOmhyZWY9IiNwIi8+JiN4YTs8dXNlIHk9IjI1NiIgeD0iMzg0IiB4bGluazpocmVmPSIjcCIvPiYjeGE7PHVzZSB5PSIzMTIiIHg9IjM4NCIgeGxpbms6aHJlZj0iI3AiLz4mI3hhOzx1c2UgeT0iMzIwIiB4PSIzODQiIHhsaW5rOmhyZWY9IiNwIi8+JiN4YTs8dXNlIHk9IjMzNiIgeD0iMzg0IiB4bGluazpocmVmPSIjcCIvPiYjeGE7PHVzZSB5PSIzNTIiIHg9IjM4NCIgeGxpbms6aHJlZj0iI3AiLz4mI3hhOzx1c2UgeT0iMzYwIiB4PSIzODQiIHhsaW5rOmhyZWY9IiNwIi8+JiN4YTs8dXNlIHk9IjM5MiIgeD0iMzg0IiB4bGluazpocmVmPSIjcCIvPiYjeGE7PHVzZSB5PSI0MDAiIHg9IjM4NCIgeGxpbms6aHJlZj0iI3AiLz4mI3hhOzx1c2UgeT0iNDA4IiB4PSIzODQiIHhsaW5rOmhyZWY9IiNwIi8+JiN4YTs8dXNlIHk9IjQxNiIgeD0iMzg0IiB4bGluazpocmVmPSIjcCIvPiYjeGE7PHVzZSB5PSI0MjQiIHg9IjM4NCIgeGxpbms6aHJlZj0iI3AiLz4mI3hhOzx1c2UgeT0iNDQ4IiB4PSIzODQiIHhsaW5rOmhyZWY9IiNwIi8+JiN4YTs8dXNlIHk9IjQ1NiIgeD0iMzg0IiB4bGluazpocmVmPSIjcCIvPiYjeGE7PHVzZSB5PSI0MCIgeD0iMzkyIiB4bGluazpocmVmPSIjcCIvPiYjeGE7PHVzZSB5PSI0OCIgeD0iMzkyIiB4bGluazpocmVmPSIjcCIvPiYjeGE7PHVzZSB5PSI1NiIgeD0iMzkyIiB4bGluazpocmVmPSIjcCIvPiYjeGE7PHVzZSB5PSI3MiIgeD0iMzkyIiB4bGluazpocmVmPSIjcCIvPiYjeGE7PHVzZSB5PSI5NiIgeD0iMzkyIiB4bGluazpocmVmPSIjcCIvPiYjeGE7PHVzZSB5PSIxMDQiIHg9IjM5MiIgeGxpbms6aHJlZj0iI3AiLz4mI3hhOzx1c2UgeT0iMTEyIiB4PSIzOTIiIHhsaW5rOmhyZWY9IiNwIi8+JiN4YTs8dXNlIHk9IjE2OCIgeD0iMzkyIiB4bGluazpocmVmPSIjcCIvPiYjeGE7PHVzZSB5PSIxNzYiIHg9IjM5MiIgeGxpbms6aHJlZj0iI3AiLz4mI3hhOzx1c2UgeT0iMTg0IiB4PSIzOTIiIHhsaW5rOmhyZWY9IiNwIi8+JiN4YTs8dXNlIHk9IjIwMCIgeD0iMzkyIiB4bGluazpocmVmPSIjcCIvPiYjeGE7PHVzZSB5PSIyMTYiIHg9IjM5MiIgeGxpbms6aHJlZj0iI3AiLz4mI3hhOzx1c2UgeT0iMjI0IiB4PSIzOTIiIHhsaW5rOmhyZWY9IiNwIi8+JiN4YTs8dXNlIHk9IjIzMiIgeD0iMzkyIiB4bGluazpocmVmPSIjcCIvPiYjeGE7PHVzZSB5PSIyNDAiIHg9IjM5MiIgeGxpbms6aHJlZj0iI3AiLz4mI3hhOzx1c2UgeT0iMjg4IiB4PSIzOTIiIHhsaW5rOmhyZWY9IiNwIi8+JiN4YTs8dXNlIHk9IjI5NiIgeD0iMzkyIiB4bGluazpocmVmPSIjcCIvPiYjeGE7PHVzZSB5PSIzMDQiIHg9IjM5MiIgeGxpbms6aHJlZj0iI3AiLz4mI3hhOzx1c2UgeT0iMzIwIiB4PSIzOTIiIHhsaW5rOmhyZWY9IiNwIi8+JiN4YTs8dXNlIHk9IjMyOCIgeD0iMzkyIiB4bGluazpocmVmPSIjcCIvPiYjeGE7PHVzZSB5PSIzMzYiIHg9IjM5MiIgeGxpbms6aHJlZj0iI3AiLz4mI3hhOzx1c2UgeT0iMzYwIiB4PSIzOTIiIHhsaW5rOmhyZWY9IiNwIi8+JiN4YTs8dXNlIHk9IjM2OCIgeD0iMzkyIiB4bGluazpocmVmPSIjcCIvPiYjeGE7PHVzZSB5PSIzODQiIHg9IjM5MiIgeGxpbms6aHJlZj0iI3AiLz4mI3hhOzx1c2UgeT0iNDAwIiB4PSIzOTIiIHhsaW5rOmhyZWY9IiNwIi8+JiN4YTs8dXNlIHk9IjQwOCIgeD0iMzkyIiB4bGluazpocmVmPSIjcCIvPiYjeGE7PHVzZSB5PSI0MTYiIHg9IjM5MiIgeGxpbms6aHJlZj0iI3AiLz4mI3hhOzx1c2UgeT0iNDMyIiB4PSIzOTIiIHhsaW5rOmhyZWY9IiNwIi8+JiN4YTs8dXNlIHk9IjQ0OCIgeD0iMzkyIiB4bGluazpocmVmPSIjcCIvPiYjeGE7PHVzZSB5PSI0NTYiIHg9IjM5MiIgeGxpbms6aHJlZj0iI3AiLz4mI3hhOzx1c2UgeT0iNDY0IiB4PSIzOTIiIHhsaW5rOmhyZWY9IiNwIi8+JiN4YTs8dXNlIHk9IjQ3MiIgeD0iMzkyIiB4bGluazpocmVmPSIjcCIvPiYjeGE7PHVzZSB5PSI0ODAiIHg9IjM5MiIgeGxpbms6aHJlZj0iI3AiLz4mI3hhOzx1c2UgeT0iMzIiIHg9IjQwMCIgeGxpbms6aHJlZj0iI3AiLz4mI3hhOzx1c2UgeT0iNDgiIHg9IjQwMCIgeGxpbms6aHJlZj0iI3AiLz4mI3hhOzx1c2UgeT0iNzIiIHg9IjQwMCIgeGxpbms6aHJlZj0iI3AiLz4mI3hhOzx1c2UgeT0iODAiIHg9IjQwMCIgeGxpbms6aHJlZj0iI3AiLz4mI3hhOzx1c2UgeT0iMTA0IiB4PSI0MDAiIHhsaW5rOmhyZWY9IiNwIi8+JiN4YTs8dXNlIHk9IjExMiIgeD0iNDAwIiB4bGluazpocmVmPSIjcCIvPiYjeGE7PHVzZSB5PSIxMjAiIHg9IjQwMCIgeGxpbms6aHJlZj0iI3AiLz4mI3hhOzx1c2UgeT0iMTUyIiB4PSI0MDAiIHhsaW5rOmhyZWY9IiNwIi8+JiN4YTs8dXNlIHk9IjE2MCIgeD0iNDAwIiB4bGluazpocmVmPSIjcCIvPiYjeGE7PHVzZSB5PSIxNjgiIHg9IjQwMCIgeGxpbms6aHJlZj0iI3AiLz4mI3hhOzx1c2UgeT0iMTg0IiB4PSI0MDAiIHhsaW5rOmhyZWY9IiNwIi8+JiN4YTs8dXNlIHk9IjIwMCIgeD0iNDAwIiB4bGluazpocmVmPSIjcCIvPiYjeGE7PHVzZSB5PSIyMDgiIHg9IjQwMCIgeGxpbms6aHJlZj0iI3AiLz4mI3hhOzx1c2UgeT0iMjQ4IiB4PSI0MDAiIHhsaW5rOmhyZWY9IiNwIi8+JiN4YTs8dXNlIHk9IjI1NiIgeD0iNDAwIiB4bGluazpocmVmPSIjcCIvPiYjeGE7PHVzZSB5PSIyNjQiIHg9IjQwMCIgeGxpbms6aHJlZj0iI3AiLz4mI3hhOzx1c2UgeT0iMjg4IiB4PSI0MDAiIHhsaW5rOmhyZWY9IiNwIi8+JiN4YTs8dXNlIHk9IjI5NiIgeD0iNDAwIiB4bGluazpocmVmPSIjcCIvPiYjeGE7PHVzZSB5PSIzMDQiIHg9IjQwMCIgeGxpbms6aHJlZj0iI3AiLz4mI3hhOzx1c2UgeT0iMzEyIiB4PSI0MDAiIHhsaW5rOmhyZWY9IiNwIi8+JiN4YTs8dXNlIHk9IjMyMCIgeD0iNDAwIiB4bGluazpocmVmPSIjcCIvPiYjeGE7PHVzZSB5PSIzNDQiIHg9IjQwMCIgeGxpbms6aHJlZj0iI3AiLz4mI3hhOzx1c2UgeT0iMzUyIiB4PSI0MDAiIHhsaW5rOmhyZWY9IiNwIi8+JiN4YTs8dXNlIHk9IjM2MCIgeD0iNDAwIiB4bGluazpocmVmPSIjcCIvPiYjeGE7PHVzZSB5PSIzNzYiIHg9IjQwMCIgeGxpbms6aHJlZj0iI3AiLz4mI3hhOzx1c2UgeT0iMzkyIiB4PSI0MDAiIHhsaW5rOmhyZWY9IiNwIi8+JiN4YTs8dXNlIHk9IjQwMCIgeD0iNDAwIiB4bGluazpocmVmPSIjcCIvPiYjeGE7PHVzZSB5PSI0NDAiIHg9IjQwMCIgeGxpbms6aHJlZj0iI3AiLz4mI3hhOzx1c2UgeT0iNDQ4IiB4PSI0MDAiIHhsaW5rOmhyZWY9IiNwIi8+JiN4YTs8dXNlIHk9IjQ1NiIgeD0iNDAwIiB4bGluazpocmVmPSIjcCIvPiYjeGE7PHVzZSB5PSI0NzIiIHg9IjQwMCIgeGxpbms6aHJlZj0iI3AiLz4mI3hhOzx1c2UgeT0iMzIiIHg9IjQwOCIgeGxpbms6aHJlZj0iI3AiLz4mI3hhOzx1c2UgeT0iNDAiIHg9IjQwOCIgeGxpbms6aHJlZj0iI3AiLz4mI3hhOzx1c2UgeT0iNDgiIHg9IjQwOCIgeGxpbms6aHJlZj0iI3AiLz4mI3hhOzx1c2UgeT0iNTYiIHg9IjQwOCIgeGxpbms6aHJlZj0iI3AiLz4mI3hhOzx1c2UgeT0iNjQiIHg9IjQwOCIgeGxpbms6aHJlZj0iI3AiLz4mI3hhOzx1c2UgeT0iODgiIHg9IjQwOCIgeGxpbms6aHJlZj0iI3AiLz4mI3hhOzx1c2UgeT0iOTYiIHg9IjQwOCIgeGxpbms6aHJlZj0iI3AiLz4mI3hhOzx1c2UgeT0iMTA0IiB4PSI0MDgiIHhsaW5rOmhyZWY9IiNwIi8+JiN4YTs8dXNlIHk9IjEyMCIgeD0iNDA4IiB4bGluazpocmVmPSIjcCIvPiYjeGE7PHVzZSB5PSIxNjAiIHg9IjQwOCIgeGxpbms6aHJlZj0iI3AiLz4mI3hhOzx1c2UgeT0iMTg0IiB4PSI0MDgiIHhsaW5rOmhyZWY9IiNwIi8+JiN4YTs8dXNlIHk9IjIwMCIgeD0iNDA4IiB4bGluazpocmVmPSIjcCIvPiYjeGE7PHVzZSB5PSIyMDgiIHg9IjQwOCIgeGxpbms6aHJlZj0iI3AiLz4mI3hhOzx1c2UgeT0iMjI0IiB4PSI0MDgiIHhsaW5rOmhyZWY9IiNwIi8+JiN4YTs8dXNlIHk9IjIzMiIgeD0iNDA4IiB4bGluazpocmVmPSIjcCIvPiYjeGE7PHVzZSB5PSIyNDgiIHg9IjQwOCIgeGxpbms6aHJlZj0iI3AiLz4mI3hhOzx1c2UgeT0iMjgwIiB4PSI0MDgiIHhsaW5rOmhyZWY9IiNwIi8+JiN4YTs8dXNlIHk9IjMwNCIgeD0iNDA4IiB4bGluazpocmVmPSIjcCIvPiYjeGE7PHVzZSB5PSIzMjAiIHg9IjQwOCIgeGxpbms6aHJlZj0iI3AiLz4mI3hhOzx1c2UgeT0iMzQ0IiB4PSI0MDgiIHhsaW5rOmhyZWY9IiNwIi8+JiN4YTs8dXNlIHk9IjM1MiIgeD0iNDA4IiB4bGluazpocmVmPSIjcCIvPiYjeGE7PHVzZSB5PSIzNzYiIHg9IjQwOCIgeGxpbms6aHJlZj0iI3AiLz4mI3hhOzx1c2UgeT0iNDAwIiB4PSI0MDgiIHhsaW5rOmhyZWY9IiNwIi8+JiN4YTs8dXNlIHk9IjQxNiIgeD0iNDA4IiB4bGluazpocmVmPSIjcCIvPiYjeGE7PHVzZSB5PSI0MjQiIHg9IjQwOCIgeGxpbms6aHJlZj0iI3AiLz4mI3hhOzx1c2UgeT0iNDMyIiB4PSI0MDgiIHhsaW5rOmhyZWY9IiNwIi8+JiN4YTs8dXNlIHk9IjQ0MCIgeD0iNDA4IiB4bGluazpocmVmPSIjcCIvPiYjeGE7PHVzZSB5PSI0NDgiIHg9IjQwOCIgeGxpbms6aHJlZj0iI3AiLz4mI3hhOzx1c2UgeT0iNDY0IiB4PSI0MDgiIHhsaW5rOmhyZWY9IiNwIi8+JiN4YTs8dXNlIHk9IjQ3MiIgeD0iNDA4IiB4bGluazpocmVmPSIjcCIvPiYjeGE7PHVzZSB5PSI4MCIgeD0iNDE2IiB4bGluazpocmVmPSIjcCIvPiYjeGE7PHVzZSB5PSIxMDQiIHg9IjQxNiIgeGxpbms6aHJlZj0iI3AiLz4mI3hhOzx1c2UgeT0iMTEyIiB4PSI0MTYiIHhsaW5rOmhyZWY9IiNwIi8+JiN4YTs8dXNlIHk9IjEzNiIgeD0iNDE2IiB4bGluazpocmVmPSIjcCIvPiYjeGE7PHVzZSB5PSIxNTIiIHg9IjQxNiIgeGxpbms6aHJlZj0iI3AiLz4mI3hhOzx1c2UgeT0iMTY4IiB4PSI0MTYiIHhsaW5rOmhyZWY9IiNwIi8+JiN4YTs8dXNlIHk9IjE3NiIgeD0iNDE2IiB4bGluazpocmVmPSIjcCIvPiYjeGE7PHVzZSB5PSIxODQiIHg9IjQxNiIgeGxpbms6aHJlZj0iI3AiLz4mI3hhOzx1c2UgeT0iMjAwIiB4PSI0MTYiIHhsaW5rOmhyZWY9IiNwIi8+JiN4YTs8dXNlIHk9IjIxNiIgeD0iNDE2IiB4bGluazpocmVmPSIjcCIvPiYjeGE7PHVzZSB5PSIyMzIiIHg9IjQxNiIgeGxpbms6aHJlZj0iI3AiLz4mI3hhOzx1c2UgeT0iMjQwIiB4PSI0MTYiIHhsaW5rOmhyZWY9IiNwIi8+JiN4YTs8dXNlIHk9IjI0OCIgeD0iNDE2IiB4bGluazpocmVmPSIjcCIvPiYjeGE7PHVzZSB5PSIyNTYiIHg9IjQxNiIgeGxpbms6aHJlZj0iI3AiLz4mI3hhOzx1c2UgeT0iMjY0IiB4PSI0MTYiIHhsaW5rOmhyZWY9IiNwIi8+JiN4YTs8dXNlIHk9IjI3MiIgeD0iNDE2IiB4bGluazpocmVmPSIjcCIvPiYjeGE7PHVzZSB5PSIyODgiIHg9IjQxNiIgeGxpbms6aHJlZj0iI3AiLz4mI3hhOzx1c2UgeT0iMjk2IiB4PSI0MTYiIHhsaW5rOmhyZWY9IiNwIi8+JiN4YTs8dXNlIHk9IjMyOCIgeD0iNDE2IiB4bGluazpocmVmPSIjcCIvPiYjeGE7PHVzZSB5PSIzMzYiIHg9IjQxNiIgeGxpbms6aHJlZj0iI3AiLz4mI3hhOzx1c2UgeT0iMzg0IiB4PSI0MTYiIHhsaW5rOmhyZWY9IiNwIi8+JiN4YTs8dXNlIHk9IjQwMCIgeD0iNDE2IiB4bGluazpocmVmPSIjcCIvPiYjeGE7PHVzZSB5PSI0MTYiIHg9IjQxNiIgeGxpbms6aHJlZj0iI3AiLz4mI3hhOzx1c2UgeT0iNDI0IiB4PSI0MTYiIHhsaW5rOmhyZWY9IiNwIi8+JiN4YTs8dXNlIHk9IjQzMiIgeD0iNDE2IiB4bGluazpocmVmPSIjcCIvPiYjeGE7PHVzZSB5PSI0NDAiIHg9IjQxNiIgeGxpbms6aHJlZj0iI3AiLz4mI3hhOzx1c2UgeT0iNDQ4IiB4PSI0MTYiIHhsaW5rOmhyZWY9IiNwIi8+JiN4YTs8dXNlIHk9IjQ2NCIgeD0iNDE2IiB4bGluazpocmVmPSIjcCIvPiYjeGE7PHVzZSB5PSI0NzIiIHg9IjQxNiIgeGxpbms6aHJlZj0iI3AiLz4mI3hhOzx1c2UgeT0iNDgwIiB4PSI0MTYiIHhsaW5rOmhyZWY9IiNwIi8+JiN4YTs8dXNlIHk9IjEwNCIgeD0iNDI0IiB4bGluazpocmVmPSIjcCIvPiYjeGE7PHVzZSB5PSIxMTIiIHg9IjQyNCIgeGxpbms6aHJlZj0iI3AiLz4mI3hhOzx1c2UgeT0iMTIwIiB4PSI0MjQiIHhsaW5rOmhyZWY9IiNwIi8+JiN4YTs8dXNlIHk9IjEzNiIgeD0iNDI0IiB4bGluazpocmVmPSIjcCIvPiYjeGE7PHVzZSB5PSIxNDQiIHg9IjQyNCIgeGxpbms6aHJlZj0iI3AiLz4mI3hhOzx1c2UgeT0iMTY4IiB4PSI0MjQiIHhsaW5rOmhyZWY9IiNwIi8+JiN4YTs8dXNlIHk9IjIwMCIgeD0iNDI0IiB4bGluazpocmVmPSIjcCIvPiYjeGE7PHVzZSB5PSIyMDgiIHg9IjQyNCIgeGxpbms6aHJlZj0iI3AiLz4mI3hhOzx1c2UgeT0iMjE2IiB4PSI0MjQiIHhsaW5rOmhyZWY9IiNwIi8+JiN4YTs8dXNlIHk9IjI0MCIgeD0iNDI0IiB4bGluazpocmVmPSIjcCIvPiYjeGE7PHVzZSB5PSIyNzIiIHg9IjQyNCIgeGxpbms6aHJlZj0iI3AiLz4mI3hhOzx1c2UgeT0iMjk2IiB4PSI0MjQiIHhsaW5rOmhyZWY9IiNwIi8+JiN4YTs8dXNlIHk9IjMwNCIgeD0iNDI0IiB4bGluazpocmVmPSIjcCIvPiYjeGE7PHVzZSB5PSIzMTIiIHg9IjQyNCIgeGxpbms6aHJlZj0iI3AiLz4mI3hhOzx1c2UgeT0iMzQ0IiB4PSI0MjQiIHhsaW5rOmhyZWY9IiNwIi8+JiN4YTs8dXNlIHk9IjM1MiIgeD0iNDI0IiB4bGluazpocmVmPSIjcCIvPiYjeGE7PHVzZSB5PSIzOTIiIHg9IjQyNCIgeGxpbms6aHJlZj0iI3AiLz4mI3hhOzx1c2UgeT0iNDE2IiB4PSI0MjQiIHhsaW5rOmhyZWY9IiNwIi8+JiN4YTs8dXNlIHk9IjQ0OCIgeD0iNDI0IiB4bGluazpocmVmPSIjcCIvPiYjeGE7PHVzZSB5PSI0NTYiIHg9IjQyNCIgeGxpbms6aHJlZj0iI3AiLz4mI3hhOzx1c2UgeT0iNDgwIiB4PSI0MjQiIHhsaW5rOmhyZWY9IiNwIi8+JiN4YTs8dXNlIHk9IjMyIiB4PSI0MzIiIHhsaW5rOmhyZWY9IiNwIi8+JiN4YTs8dXNlIHk9IjQwIiB4PSI0MzIiIHhsaW5rOmhyZWY9IiNwIi8+JiN4YTs8dXNlIHk9IjQ4IiB4PSI0MzIiIHhsaW5rOmhyZWY9IiNwIi8+JiN4YTs8dXNlIHk9IjU2IiB4PSI0MzIiIHhsaW5rOmhyZWY9IiNwIi8+JiN4YTs8dXNlIHk9IjY0IiB4PSI0MzIiIHhsaW5rOmhyZWY9IiNwIi8+JiN4YTs8dXNlIHk9IjcyIiB4PSI0MzIiIHhsaW5rOmhyZWY9IiNwIi8+JiN4YTs8dXNlIHk9IjgwIiB4PSI0MzIiIHhsaW5rOmhyZWY9IiNwIi8+JiN4YTs8dXNlIHk9IjEwNCIgeD0iNDMyIiB4bGluazpocmVmPSIjcCIvPiYjeGE7PHVzZSB5PSIxMjgiIHg9IjQzMiIgeGxpbms6aHJlZj0iI3AiLz4mI3hhOzx1c2UgeT0iMTM2IiB4PSI0MzIiIHhsaW5rOmhyZWY9IiNwIi8+JiN4YTs8dXNlIHk9IjE0NCIgeD0iNDMyIiB4bGluazpocmVmPSIjcCIvPiYjeGE7PHVzZSB5PSIxNTIiIHg9IjQzMiIgeGxpbms6aHJlZj0iI3AiLz4mI3hhOzx1c2UgeT0iMjAwIiB4PSI0MzIiIHhsaW5rOmhyZWY9IiNwIi8+JiN4YTs8dXNlIHk9IjIxNiIgeD0iNDMyIiB4bGluazpocmVmPSIjcCIvPiYjeGE7PHVzZSB5PSIyMzIiIHg9IjQzMiIgeGxpbms6aHJlZj0iI3AiLz4mI3hhOzx1c2UgeT0iMjQwIiB4PSI0MzIiIHhsaW5rOmhyZWY9IiNwIi8+JiN4YTs8dXNlIHk9IjI1NiIgeD0iNDMyIiB4bGluazpocmVmPSIjcCIvPiYjeGE7PHVzZSB5PSIyNzIiIHg9IjQzMiIgeGxpbms6aHJlZj0iI3AiLz4mI3hhOzx1c2UgeT0iMjg4IiB4PSI0MzIiIHhsaW5rOmhyZWY9IiNwIi8+JiN4YTs8dXNlIHk9IjI5NiIgeD0iNDMyIiB4bGluazpocmVmPSIjcCIvPiYjeGE7PHVzZSB5PSIzMDQiIHg9IjQzMiIgeGxpbms6aHJlZj0iI3AiLz4mI3hhOzx1c2UgeT0iMzUyIiB4PSI0MzIiIHhsaW5rOmhyZWY9IiNwIi8+JiN4YTs8dXNlIHk9IjM2OCIgeD0iNDMyIiB4bGluazpocmVmPSIjcCIvPiYjeGE7PHVzZSB5PSIzOTIiIHg9IjQzMiIgeGxpbms6aHJlZj0iI3AiLz4mI3hhOzx1c2UgeT0iNDAwIiB4PSI0MzIiIHhsaW5rOmhyZWY9IiNwIi8+JiN4YTs8dXNlIHk9IjQwOCIgeD0iNDMyIiB4bGluazpocmVmPSIjcCIvPiYjeGE7PHVzZSB5PSI0MTYiIHg9IjQzMiIgeGxpbms6aHJlZj0iI3AiLz4mI3hhOzx1c2UgeT0iNDMyIiB4PSI0MzIiIHhsaW5rOmhyZWY9IiNwIi8+JiN4YTs8dXNlIHk9IjQ0OCIgeD0iNDMyIiB4bGluazpocmVmPSIjcCIvPiYjeGE7PHVzZSB5PSI0NTYiIHg9IjQzMiIgeGxpbms6aHJlZj0iI3AiLz4mI3hhOzx1c2UgeT0iNDcyIiB4PSI0MzIiIHhsaW5rOmhyZWY9IiNwIi8+JiN4YTs8dXNlIHk9IjQ4MCIgeD0iNDMyIiB4bGluazpocmVmPSIjcCIvPiYjeGE7PHVzZSB5PSIzMiIgeD0iNDQwIiB4bGluazpocmVmPSIjcCIvPiYjeGE7PHVzZSB5PSI4MCIgeD0iNDQwIiB4bGluazpocmVmPSIjcCIvPiYjeGE7PHVzZSB5PSIxMTIiIHg9IjQ0MCIgeGxpbms6aHJlZj0iI3AiLz4mI3hhOzx1c2UgeT0iMTIwIiB4PSI0NDAiIHhsaW5rOmhyZWY9IiNwIi8+JiN4YTs8dXNlIHk9IjE1MiIgeD0iNDQwIiB4bGluazpocmVmPSIjcCIvPiYjeGE7PHVzZSB5PSIxNjgiIHg9IjQ0MCIgeGxpbms6aHJlZj0iI3AiLz4mI3hhOzx1c2UgeT0iMjAwIiB4PSI0NDAiIHhsaW5rOmhyZWY9IiNwIi8+JiN4YTs8dXNlIHk9IjIwOCIgeD0iNDQwIiB4bGluazpocmVmPSIjcCIvPiYjeGE7PHVzZSB5PSIyMTYiIHg9IjQ0MCIgeGxpbms6aHJlZj0iI3AiLz4mI3hhOzx1c2UgeT0iMjMyIiB4PSI0NDAiIHhsaW5rOmhyZWY9IiNwIi8+JiN4YTs8dXNlIHk9IjI0MCIgeD0iNDQwIiB4bGluazpocmVmPSIjcCIvPiYjeGE7PHVzZSB5PSIyNzIiIHg9IjQ0MCIgeGxpbms6aHJlZj0iI3AiLz4mI3hhOzx1c2UgeT0iMjg4IiB4PSI0NDAiIHhsaW5rOmhyZWY9IiNwIi8+JiN4YTs8dXNlIHk9IjI5NiIgeD0iNDQwIiB4bGluazpocmVmPSIjcCIvPiYjeGE7PHVzZSB5PSIzMDQiIHg9IjQ0MCIgeGxpbms6aHJlZj0iI3AiLz4mI3hhOzx1c2UgeT0iMzI4IiB4PSI0NDAiIHhsaW5rOmhyZWY9IiNwIi8+JiN4YTs8dXNlIHk9IjM1MiIgeD0iNDQwIiB4bGluazpocmVmPSIjcCIvPiYjeGE7PHVzZSB5PSIzNjAiIHg9IjQ0MCIgeGxpbms6aHJlZj0iI3AiLz4mI3hhOzx1c2UgeT0iMzg0IiB4PSI0NDAiIHhsaW5rOmhyZWY9IiNwIi8+JiN4YTs8dXNlIHk9IjM5MiIgeD0iNDQwIiB4bGluazpocmVmPSIjcCIvPiYjeGE7PHVzZSB5PSI0MTYiIHg9IjQ0MCIgeGxpbms6aHJlZj0iI3AiLz4mI3hhOzx1c2UgeT0iNDQ4IiB4PSI0NDAiIHhsaW5rOmhyZWY9IiNwIi8+JiN4YTs8dXNlIHk9IjQ1NiIgeD0iNDQwIiB4bGluazpocmVmPSIjcCIvPiYjeGE7PHVzZSB5PSI0ODAiIHg9IjQ0MCIgeGxpbms6aHJlZj0iI3AiLz4mI3hhOzx1c2UgeT0iMzIiIHg9IjQ0OCIgeGxpbms6aHJlZj0iI3AiLz4mI3hhOzx1c2UgeT0iNDgiIHg9IjQ0OCIgeGxpbms6aHJlZj0iI3AiLz4mI3hhOzx1c2UgeT0iNTYiIHg9IjQ0OCIgeGxpbms6aHJlZj0iI3AiLz4mI3hhOzx1c2UgeT0iNjQiIHg9IjQ0OCIgeGxpbms6aHJlZj0iI3AiLz4mI3hhOzx1c2UgeT0iODAiIHg9IjQ0OCIgeGxpbms6aHJlZj0iI3AiLz4mI3hhOzx1c2UgeT0iMTA0IiB4PSI0NDgiIHhsaW5rOmhyZWY9IiNwIi8+JiN4YTs8dXNlIHk9IjExMiIgeD0iNDQ4IiB4bGluazpocmVmPSIjcCIvPiYjeGE7PHVzZSB5PSIxMjgiIHg9IjQ0OCIgeGxpbms6aHJlZj0iI3AiLz4mI3hhOzx1c2UgeT0iMTQ0IiB4PSI0NDgiIHhsaW5rOmhyZWY9IiNwIi8+JiN4YTs8dXNlIHk9IjE1MiIgeD0iNDQ4IiB4bGluazpocmVmPSIjcCIvPiYjeGE7PHVzZSB5PSIxNjgiIHg9IjQ0OCIgeGxpbms6aHJlZj0iI3AiLz4mI3hhOzx1c2UgeT0iMTg0IiB4PSI0NDgiIHhsaW5rOmhyZWY9IiNwIi8+JiN4YTs8dXNlIHk9IjE5MiIgeD0iNDQ4IiB4bGluazpocmVmPSIjcCIvPiYjeGE7PHVzZSB5PSIyMTYiIHg9IjQ0OCIgeGxpbms6aHJlZj0iI3AiLz4mI3hhOzx1c2UgeT0iMjI0IiB4PSI0NDgiIHhsaW5rOmhyZWY9IiNwIi8+JiN4YTs8dXNlIHk9IjIzMiIgeD0iNDQ4IiB4bGluazpocmVmPSIjcCIvPiYjeGE7PHVzZSB5PSIyNDAiIHg9IjQ0OCIgeGxpbms6aHJlZj0iI3AiLz4mI3hhOzx1c2UgeT0iMjQ4IiB4PSI0NDgiIHhsaW5rOmhyZWY9IiNwIi8+JiN4YTs8dXNlIHk9IjI1NiIgeD0iNDQ4IiB4bGluazpocmVmPSIjcCIvPiYjeGE7PHVzZSB5PSIyNjQiIHg9IjQ0OCIgeGxpbms6aHJlZj0iI3AiLz4mI3hhOzx1c2UgeT0iMjcyIiB4PSI0NDgiIHhsaW5rOmhyZWY9IiNwIi8+JiN4YTs8dXNlIHk9IjI4MCIgeD0iNDQ4IiB4bGluazpocmVmPSIjcCIvPiYjeGE7PHVzZSB5PSIyODgiIHg9IjQ0OCIgeGxpbms6aHJlZj0iI3AiLz4mI3hhOzx1c2UgeT0iMjk2IiB4PSI0NDgiIHhsaW5rOmhyZWY9IiNwIi8+JiN4YTs8dXNlIHk9IjMwNCIgeD0iNDQ4IiB4bGluazpocmVmPSIjcCIvPiYjeGE7PHVzZSB5PSIzMjAiIHg9IjQ0OCIgeGxpbms6aHJlZj0iI3AiLz4mI3hhOzx1c2UgeT0iMzQ0IiB4PSI0NDgiIHhsaW5rOmhyZWY9IiNwIi8+JiN4YTs8dXNlIHk9IjM1MiIgeD0iNDQ4IiB4bGluazpocmVmPSIjcCIvPiYjeGE7PHVzZSB5PSIzNjAiIHg9IjQ0OCIgeGxpbms6aHJlZj0iI3AiLz4mI3hhOzx1c2UgeT0iMzkyIiB4PSI0NDgiIHhsaW5rOmhyZWY9IiNwIi8+JiN4YTs8dXNlIHk9IjQwMCIgeD0iNDQ4IiB4bGluazpocmVmPSIjcCIvPiYjeGE7PHVzZSB5PSI0MDgiIHg9IjQ0OCIgeGxpbms6aHJlZj0iI3AiLz4mI3hhOzx1c2UgeT0iNDE2IiB4PSI0NDgiIHhsaW5rOmhyZWY9IiNwIi8+JiN4YTs8dXNlIHk9IjQyNCIgeD0iNDQ4IiB4bGluazpocmVmPSIjcCIvPiYjeGE7PHVzZSB5PSI0MzIiIHg9IjQ0OCIgeGxpbms6aHJlZj0iI3AiLz4mI3hhOzx1c2UgeT0iNDQwIiB4PSI0NDgiIHhsaW5rOmhyZWY9IiNwIi8+JiN4YTs8dXNlIHk9IjQ0OCIgeD0iNDQ4IiB4bGluazpocmVmPSIjcCIvPiYjeGE7PHVzZSB5PSI0NjQiIHg9IjQ0OCIgeGxpbms6aHJlZj0iI3AiLz4mI3hhOzx1c2UgeT0iMzIiIHg9IjQ1NiIgeGxpbms6aHJlZj0iI3AiLz4mI3hhOzx1c2UgeT0iNDgiIHg9IjQ1NiIgeGxpbms6aHJlZj0iI3AiLz4mI3hhOzx1c2UgeT0iNTYiIHg9IjQ1NiIgeGxpbms6aHJlZj0iI3AiLz4mI3hhOzx1c2UgeT0iNjQiIHg9IjQ1NiIgeGxpbms6aHJlZj0iI3AiLz4mI3hhOzx1c2UgeT0iODAiIHg9IjQ1NiIgeGxpbms6aHJlZj0iI3AiLz4mI3hhOzx1c2UgeT0iOTYiIHg9IjQ1NiIgeGxpbms6aHJlZj0iI3AiLz4mI3hhOzx1c2UgeT0iMTIwIiB4PSI0NTYiIHhsaW5rOmhyZWY9IiNwIi8+JiN4YTs8dXNlIHk9IjE0NCIgeD0iNDU2IiB4bGluazpocmVmPSIjcCIvPiYjeGE7PHVzZSB5PSIxNTIiIHg9IjQ1NiIgeGxpbms6aHJlZj0iI3AiLz4mI3hhOzx1c2UgeT0iMTYwIiB4PSI0NTYiIHhsaW5rOmhyZWY9IiNwIi8+JiN4YTs8dXNlIHk9IjE3NiIgeD0iNDU2IiB4bGluazpocmVmPSIjcCIvPiYjeGE7PHVzZSB5PSIxODQiIHg9IjQ1NiIgeGxpbms6aHJlZj0iI3AiLz4mI3hhOzx1c2UgeT0iMjAwIiB4PSI0NTYiIHhsaW5rOmhyZWY9IiNwIi8+JiN4YTs8dXNlIHk9IjI0OCIgeD0iNDU2IiB4bGluazpocmVmPSIjcCIvPiYjeGE7PHVzZSB5PSIyNTYiIHg9IjQ1NiIgeGxpbms6aHJlZj0iI3AiLz4mI3hhOzx1c2UgeT0iMjY0IiB4PSI0NTYiIHhsaW5rOmhyZWY9IiNwIi8+JiN4YTs8dXNlIHk9IjI4MCIgeD0iNDU2IiB4bGluazpocmVmPSIjcCIvPiYjeGE7PHVzZSB5PSIyODgiIHg9IjQ1NiIgeGxpbms6aHJlZj0iI3AiLz4mI3hhOzx1c2UgeT0iMzQ0IiB4PSI0NTYiIHhsaW5rOmhyZWY9IiNwIi8+JiN4YTs8dXNlIHk9IjM3NiIgeD0iNDU2IiB4bGluazpocmVmPSIjcCIvPiYjeGE7PHVzZSB5PSIzODQiIHg9IjQ1NiIgeGxpbms6aHJlZj0iI3AiLz4mI3hhOzx1c2UgeT0iMzkyIiB4PSI0NTYiIHhsaW5rOmhyZWY9IiNwIi8+JiN4YTs8dXNlIHk9IjQwMCIgeD0iNDU2IiB4bGluazpocmVmPSIjcCIvPiYjeGE7PHVzZSB5PSI0MTYiIHg9IjQ1NiIgeGxpbms6aHJlZj0iI3AiLz4mI3hhOzx1c2UgeT0iNDMyIiB4PSI0NTYiIHhsaW5rOmhyZWY9IiNwIi8+JiN4YTs8dXNlIHk9IjQ0MCIgeD0iNDU2IiB4bGluazpocmVmPSIjcCIvPiYjeGE7PHVzZSB5PSI0NDgiIHg9IjQ1NiIgeGxpbms6aHJlZj0iI3AiLz4mI3hhOzx1c2UgeT0iNDU2IiB4PSI0NTYiIHhsaW5rOmhyZWY9IiNwIi8+JiN4YTs8dXNlIHk9IjQ2NCIgeD0iNDU2IiB4bGluazpocmVmPSIjcCIvPiYjeGE7PHVzZSB5PSI0NzIiIHg9IjQ1NiIgeGxpbms6aHJlZj0iI3AiLz4mI3hhOzx1c2UgeT0iMzIiIHg9IjQ2NCIgeGxpbms6aHJlZj0iI3AiLz4mI3hhOzx1c2UgeT0iNDgiIHg9IjQ2NCIgeGxpbms6aHJlZj0iI3AiLz4mI3hhOzx1c2UgeT0iNTYiIHg9IjQ2NCIgeGxpbms6aHJlZj0iI3AiLz4mI3hhOzx1c2UgeT0iNjQiIHg9IjQ2NCIgeGxpbms6aHJlZj0iI3AiLz4mI3hhOzx1c2UgeT0iODAiIHg9IjQ2NCIgeGxpbms6aHJlZj0iI3AiLz4mI3hhOzx1c2UgeT0iOTYiIHg9IjQ2NCIgeGxpbms6aHJlZj0iI3AiLz4mI3hhOzx1c2UgeT0iMTEyIiB4PSI0NjQiIHhsaW5rOmhyZWY9IiNwIi8+JiN4YTs8dXNlIHk9IjEyMCIgeD0iNDY0IiB4bGluazpocmVmPSIjcCIvPiYjeGE7PHVzZSB5PSIxNDQiIHg9IjQ2NCIgeGxpbms6aHJlZj0iI3AiLz4mI3hhOzx1c2UgeT0iMTUyIiB4PSI0NjQiIHhsaW5rOmhyZWY9IiNwIi8+JiN4YTs8dXNlIHk9IjE2OCIgeD0iNDY0IiB4bGluazpocmVmPSIjcCIvPiYjeGE7PHVzZSB5PSIxODQiIHg9IjQ2NCIgeGxpbms6aHJlZj0iI3AiLz4mI3hhOzx1c2UgeT0iMjE2IiB4PSI0NjQiIHhsaW5rOmhyZWY9IiNwIi8+JiN4YTs8dXNlIHk9IjIzMiIgeD0iNDY0IiB4bGluazpocmVmPSIjcCIvPiYjeGE7PHVzZSB5PSIyNDgiIHg9IjQ2NCIgeGxpbms6aHJlZj0iI3AiLz4mI3hhOzx1c2UgeT0iMjcyIiB4PSI0NjQiIHhsaW5rOmhyZWY9IiNwIi8+JiN4YTs8dXNlIHk9IjI4MCIgeD0iNDY0IiB4bGluazpocmVmPSIjcCIvPiYjeGE7PHVzZSB5PSIyOTYiIHg9IjQ2NCIgeGxpbms6aHJlZj0iI3AiLz4mI3hhOzx1c2UgeT0iMzA0IiB4PSI0NjQiIHhsaW5rOmhyZWY9IiNwIi8+JiN4YTs8dXNlIHk9IjMxMiIgeD0iNDY0IiB4bGluazpocmVmPSIjcCIvPiYjeGE7PHVzZSB5PSIzMjgiIHg9IjQ2NCIgeGxpbms6aHJlZj0iI3AiLz4mI3hhOzx1c2UgeT0iMzQ0IiB4PSI0NjQiIHhsaW5rOmhyZWY9IiNwIi8+JiN4YTs8dXNlIHk9IjM2MCIgeD0iNDY0IiB4bGluazpocmVmPSIjcCIvPiYjeGE7PHVzZSB5PSIzNzYiIHg9IjQ2NCIgeGxpbms6aHJlZj0iI3AiLz4mI3hhOzx1c2UgeT0iMzg0IiB4PSI0NjQiIHhsaW5rOmhyZWY9IiNwIi8+JiN4YTs8dXNlIHk9IjQwOCIgeD0iNDY0IiB4bGluazpocmVmPSIjcCIvPiYjeGE7PHVzZSB5PSI0MjQiIHg9IjQ2NCIgeGxpbms6aHJlZj0iI3AiLz4mI3hhOzx1c2UgeT0iNDQwIiB4PSI0NjQiIHhsaW5rOmhyZWY9IiNwIi8+JiN4YTs8dXNlIHk9IjQ1NiIgeD0iNDY0IiB4bGluazpocmVmPSIjcCIvPiYjeGE7PHVzZSB5PSI0NzIiIHg9IjQ2NCIgeGxpbms6aHJlZj0iI3AiLz4mI3hhOzx1c2UgeT0iMzIiIHg9IjQ3MiIgeGxpbms6aHJlZj0iI3AiLz4mI3hhOzx1c2UgeT0iODAiIHg9IjQ3MiIgeGxpbms6aHJlZj0iI3AiLz4mI3hhOzx1c2UgeT0iMTEyIiB4PSI0NzIiIHhsaW5rOmhyZWY9IiNwIi8+JiN4YTs8dXNlIHk9IjEyOCIgeD0iNDcyIiB4bGluazpocmVmPSIjcCIvPiYjeGE7PHVzZSB5PSIxMzYiIHg9IjQ3MiIgeGxpbms6aHJlZj0iI3AiLz4mI3hhOzx1c2UgeT0iMjAwIiB4PSI0NzIiIHhsaW5rOmhyZWY9IiNwIi8+JiN4YTs8dXNlIHk9IjIwOCIgeD0iNDcyIiB4bGluazpocmVmPSIjcCIvPiYjeGE7PHVzZSB5PSIyMjQiIHg9IjQ3MiIgeGxpbms6aHJlZj0iI3AiLz4mI3hhOzx1c2UgeT0iMjMyIiB4PSI0NzIiIHhsaW5rOmhyZWY9IiNwIi8+JiN4YTs8dXNlIHk9IjI1NiIgeD0iNDcyIiB4bGluazpocmVmPSIjcCIvPiYjeGE7PHVzZSB5PSIyNzIiIHg9IjQ3MiIgeGxpbms6aHJlZj0iI3AiLz4mI3hhOzx1c2UgeT0iMzA0IiB4PSI0NzIiIHhsaW5rOmhyZWY9IiNwIi8+JiN4YTs8dXNlIHk9IjMzNiIgeD0iNDcyIiB4bGluazpocmVmPSIjcCIvPiYjeGE7PHVzZSB5PSIzNDQiIHg9IjQ3MiIgeGxpbms6aHJlZj0iI3AiLz4mI3hhOzx1c2UgeT0iMzUyIiB4PSI0NzIiIHhsaW5rOmhyZWY9IiNwIi8+JiN4YTs8dXNlIHk9IjM2MCIgeD0iNDcyIiB4bGluazpocmVmPSIjcCIvPiYjeGE7PHVzZSB5PSIzNzYiIHg9IjQ3MiIgeGxpbms6aHJlZj0iI3AiLz4mI3hhOzx1c2UgeT0iNDAwIiB4PSI0NzIiIHhsaW5rOmhyZWY9IiNwIi8+JiN4YTs8dXNlIHk9IjQwOCIgeD0iNDcyIiB4bGluazpocmVmPSIjcCIvPiYjeGE7PHVzZSB5PSI0MjQiIHg9IjQ3MiIgeGxpbms6aHJlZj0iI3AiLz4mI3hhOzx1c2UgeT0iNDQ4IiB4PSI0NzIiIHhsaW5rOmhyZWY9IiNwIi8+JiN4YTs8dXNlIHk9IjQ2NCIgeD0iNDcyIiB4bGluazpocmVmPSIjcCIvPiYjeGE7PHVzZSB5PSI0NzIiIHg9IjQ3MiIgeGxpbms6aHJlZj0iI3AiLz4mI3hhOzx1c2UgeT0iMzIiIHg9IjQ4MCIgeGxpbms6aHJlZj0iI3AiLz4mI3hhOzx1c2UgeT0iNDAiIHg9IjQ4MCIgeGxpbms6aHJlZj0iI3AiLz4mI3hhOzx1c2UgeT0iNDgiIHg9IjQ4MCIgeGxpbms6aHJlZj0iI3AiLz4mI3hhOzx1c2UgeT0iNTYiIHg9IjQ4MCIgeGxpbms6aHJlZj0iI3AiLz4mI3hhOzx1c2UgeT0iNjQiIHg9IjQ4MCIgeGxpbms6aHJlZj0iI3AiLz4mI3hhOzx1c2UgeT0iNzIiIHg9IjQ4MCIgeGxpbms6aHJlZj0iI3AiLz4mI3hhOzx1c2UgeT0iODAiIHg9IjQ4MCIgeGxpbms6aHJlZj0iI3AiLz4mI3hhOzx1c2UgeT0iMTA0IiB4PSI0ODAiIHhsaW5rOmhyZWY9IiNwIi8+JiN4YTs8dXNlIHk9IjExMiIgeD0iNDgwIiB4bGluazpocmVmPSIjcCIvPiYjeGE7PHVzZSB5PSIxMjgiIHg9IjQ4MCIgeGxpbms6aHJlZj0iI3AiLz4mI3hhOzx1c2UgeT0iMTYwIiB4PSI0ODAiIHhsaW5rOmhyZWY9IiNwIi8+JiN4YTs8dXNlIHk9IjE2OCIgeD0iNDgwIiB4bGluazpocmVmPSIjcCIvPiYjeGE7PHVzZSB5PSIxNzYiIHg9IjQ4MCIgeGxpbms6aHJlZj0iI3AiLz4mI3hhOzx1c2UgeT0iMTg0IiB4PSI0ODAiIHhsaW5rOmhyZWY9IiNwIi8+JiN4YTs8dXNlIHk9IjIwOCIgeD0iNDgwIiB4bGluazpocmVmPSIjcCIvPiYjeGE7PHVzZSB5PSIyMjQiIHg9IjQ4MCIgeGxpbms6aHJlZj0iI3AiLz4mI3hhOzx1c2UgeT0iMjU2IiB4PSI0ODAiIHhsaW5rOmhyZWY9IiNwIi8+JiN4YTs8dXNlIHk9IjI2NCIgeD0iNDgwIiB4bGluazpocmVmPSIjcCIvPiYjeGE7PHVzZSB5PSIyNzIiIHg9IjQ4MCIgeGxpbms6aHJlZj0iI3AiLz4mI3hhOzx1c2UgeT0iMjgwIiB4PSI0ODAiIHhsaW5rOmhyZWY9IiNwIi8+JiN4YTs8dXNlIHk9IjMwNCIgeD0iNDgwIiB4bGluazpocmVmPSIjcCIvPiYjeGE7PHVzZSB5PSIzNTIiIHg9IjQ4MCIgeGxpbms6aHJlZj0iI3AiLz4mI3hhOzx1c2UgeT0iMzYwIiB4PSI0ODAiIHhsaW5rOmhyZWY9IiNwIi8+JiN4YTs8dXNlIHk9IjM2OCIgeD0iNDgwIiB4bGluazpocmVmPSIjcCIvPiYjeGE7PHVzZSB5PSIzODQiIHg9IjQ4MCIgeGxpbms6aHJlZj0iI3AiLz4mI3hhOzx1c2UgeT0iNDAwIiB4PSI0ODAiIHhsaW5rOmhyZWY9IiNwIi8+JiN4YTs8dXNlIHk9IjQwOCIgeD0iNDgwIiB4bGluazpocmVmPSIjcCIvPiYjeGE7PHVzZSB5PSI0NDgiIHg9IjQ4MCIgeGxpbms6aHJlZj0iI3AiLz4mI3hhOzx1c2UgeT0iNDY0IiB4PSI0ODAiIHhsaW5rOmhyZWY9IiNwIi8+JiN4YTs8dXNlIHk9IjQ3MiIgeD0iNDgwIiB4bGluazpocmVmPSIjcCIvPiYjeGE7PC9nPiYjeGE7PGcvPjwvc3ZnPg==;" vertex="1" parent="1">
          <mxGeometry x="-541.08" y="1420" width="310" height="310" as="geometry" />
        </mxCell>
        <mxCell id="F6-qjhK5z2D8PZceFWj1-88" value="" style="rounded=0;whiteSpace=wrap;html=1;fillColor=#eee;strokeColor=#eee;strokeWidth=2;rotation=0;container=0;" vertex="1" parent="1">
          <mxGeometry x="-1653" y="730" width="1643" height="600" as="geometry" />
        </mxCell>
        <mxCell id="F6-qjhK5z2D8PZceFWj1-104" value="" style="shape=image;verticalLabelPosition=bottom;verticalAlign=top;imageAspect=0;aspect=fixed;image=data:image/svg+xml,PHN2ZyB2aWV3Qm94PSIwIDAgNDM4NS4xMjkzOTQ1MzEyNSAxMTc4LjExOTk5NTExNzE4NzUiIHhtbG5zPSJodHRwOi8vd3d3LnczLm9yZy8yMDAwL3N2ZyIgd2lkdGg9IjQzODUuMTI5Mzk0NTMxMjUiIGhlaWdodD0iMTE3OC4xMTk5OTUxMTcxODc1Ij48ZGVmcz48c3R5bGU+LmNscy0xe2ZpbGw6IzAwZTJlZTt9LmNscy0ye2ZpbGw6IzA2YmJmMTt9LmNscy0ze2ZpbGw6IzAwY2VlZDt9LmNscy00e2ZpbGw6I2UwNThlYjt9LmNscy01e2ZpbGw6IzRjNjllNDt9LmNscy02e2ZpbGw6IzI2OTNlYTt9LmNscy03e2ZpbGw6Izk1NjFlODt9LmNscy04e2ZpbGw6IzBiMDU2MDt9PC9zdHlsZT48L2RlZnM+PGcgZGF0YS1uYW1lPSLlm77lsYIgMiIgaWQ9IuWbvuWxgl8yIj48ZyBkYXRhLW5hbWU9IuWbvuWxgiAxIiBpZD0i5Zu+5bGCXzEtMiI+PHBvbHlnb24gcG9pbnRzPSIyMjguNDkgMCAwIDg2LjY4IDI2MC4yNSA3NzIuNjkgNDM1LjU5IDU0NS45MSAyMjguNDkgMCIgY2xhc3M9ImNscy0xIi8+PHBvbHlnb24gcG9pbnRzPSI0MTQuMDUgMTE3OC4xMiA2NDIuNTMgMTA5MS40NCA1MzcuMjYgODEzLjkzIDM2MS45MiAxMDQwLjcxIDQxNC4wNSAxMTc4LjEyIiBjbGFzcz0iY2xzLTEiLz48cG9seWdvbiBwb2ludHM9Ijk2Mi43MyAyNjMuNjUgNzY5LjQgMTE0LjE3IDcyNC4yNSAxNzIuNTcgODg0LjkxIDM2NC4zIDk2Mi43MyAyNjMuNjUiIGNsYXNzPSJjbHMtMiIvPjxwb2x5Z29uIHBvaW50cz0iOTkgOTgxLjI1IDI5Mi4zMyAxMTMwLjczIDM2MS45MiAxMDQwLjcxIDI2MC4yNSA3NzIuNjkgOTkgOTgxLjI1IiBjbGFzcz0iY2xzLTIiLz48cG9seWdvbiBwb2ludHM9IjQzNS41OSA1NDUuOTEgNTM3LjI2IDgxMy45MyA3MzEuOSA1NjIuMTkgNTcxLjI0IDM3MC40NiA0MzUuNTkgNTQ1LjkxIiBjbGFzcz0iY2xzLTIiLz48cG9seWdvbiBwb2ludHM9IjI2MC4yNSA3NzIuNjkgMzYxLjkyIDEwNDAuNzEgNTM3LjI2IDgxMy45MyA0MzUuNTkgNTQ1LjkxIDI2MC4yNSA3NzIuNjkiIGNsYXNzPSJjbHMtMyIvPjxwb2x5Z29uIHBvaW50cz0iMTM2NS4zNCA1MzYuMiAxMjE1LjI4IDM0My4zMiAxMDA0LjY0IDUwNy4xOCAxMTYxLjcxIDY5NC42MSAxMzY1LjM0IDUzNi4yIiBjbGFzcz0iY2xzLTQiLz48cG9seWdvbiBwb2ludHM9IjcxOS4xMiA3MjkuMyA4NjkuMTggOTIyLjE4IDk2OC43IDg0NC43NiA4MTEuNjMgNjU3LjMzIDcxOS4xMiA3MjkuMyIgY2xhc3M9ImNscy00Ii8+PHBvbHlnb24gcG9pbnRzPSI5NjguNyA4NDQuNzYgMTAzOC45NyA5MjguNjMgMTIyNi4yOCA3NzEuNjcgMTE2MS43MSA2OTQuNjEgOTY4LjcgODQ0Ljc2IiBjbGFzcz0iY2xzLTUiLz48cG9seWdvbiBwb2ludHM9IjYyNy42MiA1Ny4yNiA0NDAuMzIgMjE0LjIyIDU3MS4yNCAzNzAuNDYgNzI0LjI1IDE3Mi41NyA2MjcuNjIgNTcuMjYiIGNsYXNzPSJjbHMtNSIvPjxwb2x5Z29uIHBvaW50cz0iODg0LjkxIDM2NC4zIDczMS45IDU2Mi4xOSA4MTEuNjMgNjU3LjMzIDEwMDQuNjQgNTA3LjE4IDg4NC45MSAzNjQuMyIgY2xhc3M9ImNscy01Ii8+PHBvbHlnb24gcG9pbnRzPSI3MjQuMjUgMTcyLjU3IDU3MS4yNCAzNzAuNDYgNzMxLjkgNTYyLjE5IDg4NC45MSAzNjQuMyA3MjQuMjUgMTcyLjU3IiBjbGFzcz0iY2xzLTYiLz48cG9seWdvbiBwb2ludHM9IjEwMDQuNjQgNTA3LjE4IDgxMS42MyA2NTcuMzMgOTY4LjcgODQ0Ljc2IDExNjEuNzEgNjk0LjYxIDEwMDQuNjQgNTA3LjE4IiBjbGFzcz0iY2xzLTciLz48cGF0aCBkPSJNMTg2MC40NywyOTUuMThoODYuMTNjMTA5LjIsMCwxNzIuODgsNTAuNTQsMTcyLjg4LDE1My42LDAsMTU0LjE4LTg5LjgsMjM3LjQ2LTIxNS4xNiwyMzcuNDZIMTc4Mi4yNlptNDIuMDksMzI1Yzc1LjE1LDAsMTMyLjY4LTUyLjIxLDEzMi42OC0xNjYuMjgsMC02NC43OS0zNS45My05Mi43My05MC44My05Mi43M2gtMTUuMTZsLTUxLjQ0LDI1OVoiIGNsYXNzPSJjbHMtOCIvPjxwYXRoIGQ9Ik0yMjAyLDM4OC41Nmg2Ni44MWwtMy42Nyw1OGgyLjRjMjMtMzcuNTYsNTYuNzUtNjUuMTYsOTEtNjUuMTYsMTUuMTEsMCwyNC41LDIuMTksMzEuMTMsNS43OWwtMjcsNzEuMThjLTcuNzctNC4zNy0xOS43LTQuOC0yOS41MS00LjgtMjYuMjYsMC01MC44MiwxOC4zNS03NC4yNSw2MC4yOGwtMzMuNDYsMTcyLjQzaC04Mi4wNloiIGNsYXNzPSJjbHMtOCIvPjxwYXRoIGQ9Ik0yMzc3Ljg4LDU4NC4zMWMwLTExMy4zNyw3Ni44LTIwMi45NSwxNTktMjAyLjk1LDI2LjksMCw1My4wOCwxNS4yNSw2NC43MywzOS4xMUgyNjAzbDEyLjc4LTMxLjkxaDY1LjgxTDI2MjIsNjg2LjI0aC02Ni44MWwxLjI3LTM4Ljg5aC0xLjQxYy0yNywyOC4yNC02Mi4yNiw0Ni4wOS05My4xNyw0Ni4wOUMyNDA5LjUsNjkzLjQ0LDIzNzcuODgsNjU0LjQ4LDIzNzcuODgsNTg0LjMxWm0xODMuMzgtMS45MiwyMS4zMS0xMDUuNTFjLTkuOTQtMTkuODItMjYtMjguNS00MC0yOC41LTQxLjM1LDAtNzkuNjcsNTQuNDEtNzkuNjcsMTI1LjQxLDAsMzYuNDgsMTMuNTUsNTIuNjQsMzQuNzgsNTIuNjRDMjUxNy41MSw2MjYuNDMsMjU0Mi4wNyw2MTYuMjcsMjU2MS4yNiw1ODIuMzlaIiBjbGFzcz0iY2xzLTgiLz48cGF0aCBkPSJNMjY4My4wOSw3NzIuMjFsMzUuNTItNTQuNzJjMjIuNTksMTcuNDMsNDguNDIsMzEuMjYsNzYuNTEsMzEuMjYsMzksMCw2NS0yMS45NCw3Ni43Mi02Mi4zbDE1LjM5LTUyLjhjLTI2LjY4LDI3LjQ2LTU4LjUxLDQzLjEzLTkxLjQsNDMuMTMtNTAuMTksMC04Ni43Ni0zNC04Ni43Ni0xMDQsMC0xMDYuOCw3My44My0xOTEuNDQsMTU1LjM3LTE5MS40NCwyNi43OCwwLDUyLjA5LDE1LjI1LDYzLjczLDM5LjExaDEuNDFsMTIuNzgtMzEuOTFoNjYuODFsLTU4LjY2LDI5Mi44N2MtMTcuODYsODguMTctNzQsMTMyLjM2LTE1Ny41NywxMzIuMzZDMjc1Ny44Niw4MTMuNzksMjcxNyw3OTkuNTQsMjY4My4wOSw3NzIuMjFaTTI4OTAuODMsNTcxLjNsMTguMzUtOTQuNDJjLTEwLjA2LTE5LjgyLTI1LTI4LjUtMzktMjguNS00MC43MiwwLTc2LjA3LDQ5LjQ2LTc2LjA3LDExMy45LDAsMzIuMzEsMTMuMzQsNDcuNDgsMzMuNTksNDcuNDhDMjg0Ny40Myw2MDkuNzYsMjg3MS44NSw2MDAuNTksMjg5MC44Myw1NzEuM1oiIGNsYXNzPSJjbHMtOCIvPjxwYXRoIGQ9Ik0zMDM1LjY3LDU3MC43NmMwLTExNC43Miw4NC44Ni0xODkuNCwxNjYuODItMTg5LjQsNjkuNDYsMCwxMTUuNTYsNDguNzEsMTE1LjU2LDEyMi42OSwwLDExNC43MS04NC44NSwxODkuMzktMTY2LjgxLDE4OS4zOUMzMDgxLjc3LDY5My40NCwzMDM1LjY3LDY0NC43MywzMDM1LjY3LDU3MC43NlpNMzIzNSw1MDUuNjhjMC0zNi4zNC0xNC01OC4yOS00MS42My01OC4yOS00MC4wOCwwLTc0LjY1LDUyLjI5LTc0LjY1LDEyMS43NCwwLDM2LjM0LDE0LDU4LjI5LDQxLjYzLDU4LjI5QzMyMDAuNDMsNjI3LjQyLDMyMzUsNTc1LjEyLDMyMzUsNTA1LjY4WiIgY2xhc3M9ImNscy04Ii8+PHBhdGggZD0iTTM0MDUsMzg4LjU2aDY2LjhsLTEuMjcsMzkuODhoMi40YzI5LjA4LTI1LjI2LDYyLjQ3LTQ3LjA4LDEwMC4yNC00Ny4wOCw0OS4yLDAsNzAuMzgsMjYuODMsNzAuMzgsNzYuNTNhMjA3LjYyLDIwNy42MiwwLDAsMS00LjgsNDIuMzVsLTM3LjIsMTg2aC04Mi4wNmwzNS4yMi0xNzUuNjljMi42MS0xMi4wNyw0LjgtMjAuNDcsNC44LTI4LjUxLDAtMjAuMzktMTAuNjUtMzAuNjktMzAuMjctMzAuNjktMTguNDksMC0zNi42OSwxMi4yNy02Mi41MiwzOC44OGwtMzguMjUsMTk2aC04Mi4wNloiIGNsYXNzPSJjbHMtOCIvPjxwYXRoIGQ9Ik0zNzAzLjE4LDUyOC4wNUMzNzAzLjE4LDM4OS44MiwzNzk2LjA5LDI4OCwzOTAyLDI4OGM4OS4zNywwLDE0Nyw2MS40OCwxNDcsMTY1LjM5LDAsMTM4LjIzLTkyLjksMjQwLjA3LTE5OC44NSwyNDAuMDdDMzc2MC43OSw2OTMuNDQsMzcwMy4xOCw2MzIsMzcwMy4xOCw1MjguMDVabTI2MS41OS02OS4zMWMwLTYyLjEtMjMuNS05OS43OS02Ni45LTk5Ljc5LTU1LjYsMC0xMTAuNDQsNzMuMS0xMTAuNDQsMTYzLjc0LDAsNjIuMSwyMy41LDk5Ljc4LDY2LjksOTkuNzhDMzkwOS45Miw2MjIuNDcsMzk2NC43Nyw1NDkuMzcsMzk2NC43Nyw0NTguNzRaIiBjbGFzcz0iY2xzLTgiLz48cGF0aCBkPSJNNDA2Ny44Myw2MjBsNTguOS00Ni4xOWMyMS4yNCwzMCw1My4yOSw0OS42Miw4Ny4wOSw0OS42MiwzMy4zLDAsNTYuMzctMTcuMTQsNTYuMzctNDUuMjksMC0yMC42Ny0xNy45Mi0zMS4zMy00NS42Ni00OC4zNGwtMzctMjIuNzljLTM1LjM3LTIyLjE3LTU4LjQ1LTUwLjI3LTU4LjQ1LTk3LjcsMC02Ny4xNCw2MC43MS0xMjEuMzYsMTM3LjU5LTEyMS4zNiw0NiwwLDg4LjY2LDIzLDExOC40Niw1OS4yM2wtNTEuNzcsNDguMzdjLTE5LjktMjEtNDEuOTItMzYuNjMtNzAuMjktMzYuNjMtMzIuMjUsMC00OS43NCwxOS43Ni00OS43NCw0Mi4wNSwwLDIwLjExLDE4LjI3LDI5Ljg1LDQ4Ljg0LDQ4LjkxbDM4Ljc1LDIzLjU3YzM3LjY5LDIyLjU5LDU0LjQ5LDQ3LjcyLDU0LjQ5LDkyLjksMCw3MS4wOC01OC4xNywxMjcuMDYtMTQ4LDEyNy4wNkM0MTU2LjUsNjkzLjQ0LDQxMDYuMSw2NzIuNDEsNDA2Ny44Myw2MjBaIiBjbGFzcz0iY2xzLTgiLz48cGF0aCBkPSJNMjYyMC41NCw5MjYuOHEtLjMyLDcuOTEtMS40NywyMC44aDQ3LjQ2YTE4OSwxODksMCwwLDAsMjEuMS0xLjE3djExLjcycS0xMC41Ni0uNTgtMjEuMS0uNTloLTI4LjcxdjUzLjMyYTIxMi4zMSwyMTIuMzEsMCwwLDAsMTQuMDYtMTguNDUsMTAyLjYyLDEwMi42MiwwLDAsMCwxMS4xNC0yMC44LDE0MC42NiwxNDAuNjYsMCwwLDAsMTQuNjQsNS44NSwxMjQsMTI0LDAsMCwwLTE2LjQsMjEuMXEtOC4yMiwxMi45LTIyLjg1LDI1Ljc4Yy0uNCw2LjY1LjA5LDEwLjE1LDEuNDYsMTAuNTVhNTEuNjksNTEuNjksMCwwLDAsNi43NCwxLjE3aDE4Ljc1YzQuNjktLjM5LDgtLjc5LDEwLTEuMTdzMy43MS01LjQ3LDUuMjctMTUuMjRhMjMuNzgsMjMuNzgsMCwwLDAsMTMuNDgsN3EtNS44NywxMi44OC04Ljc5LDE1LjgyYy0yLDItNS4yNywyLjkzLTEwLDIuOTNoLTM0LjU3cS05LjM3LDAtMTEuNzItMi42M3QtMi4zNC0xMC44NGE3Ni4zOCw3Ni4zOCwwLDAsMS0xMC44NCw3bC0xMi42LDdjLTEuMTctMi4zNC00LjEtNS40OC04Ljc5LTkuMzhhMTE0LjYzLDExNC42MywwLDAsMCwxNy41OC04LjIsODUuMzksODUuMzksMCwwLDAsMTQuNjUtMTBWOTU3LjU2aC04LjJBMTk1LjA1LDE5NS4wNSwwLDAsMSwyNjEyLDk4NS4xYTEyMy42MiwxMjMuNjIsMCwwLDEtOC43OSwyMC4yMiwxMTUuMywxMTUuMywwLDAsMS0xMy40OCwxOS4zM3EtOC4yLDkuNjctMjIuODUsMjIsMC0zLjUzLTExLjEzLTEwYTc2LjksNzYuOSwwLDAsMCwxOC40Ni0xMy43NywxMjQuNzgsMTI0Ljc4LDAsMCwwLDE1LjIzLTE4LjQ1LDk0LDk0LDAsMCwwLDEwLjg0LTIxLjY4LDEyNS4xNSwxMjUuMTUsMCwwLDAsNS44Ni0yNS4yaC0yMi44NXEtMTAuNTQsMC0yMS42OC41OVY5NDdxMTEuNzEuNTksMjEuNjguNThoMjQuNjFjLjM4LTQuNjkuNjgtMTAuMzQuODgtMTdhMTQ3LjY0LDE0Ny42NCwwLDAsMC0uODgtMjAuNTFxMTIuMywyLjk0LDE1LjgyLDMuNTJBMjksMjksMCwwLDAsMjYyMC41NCw5MjYuOFptMzcuMiwxNi43YTE1MS42NSwxNTEuNjUsMCwwLDAtMTUuODItMTkuMzQsNzEuMjYsNzEuMjYsMCwwLDAsOC43OS03LjYxLDE0MC4zLDE0MC4zLDAsMCwxLDE2LjQxLDE4Ljc1UTI2NjQuMTgsOTM3LjY0LDI2NTcuNzQsOTQzLjVaIiBjbGFzcz0iY2xzLTgiLz48cGF0aCBkPSJNMjgwMS4zLDkxMS4yN0gyODEzcS0xLjc3LDcuNjItMS4xOCwzMC40Nyw2LjQ1LDAsMTUuMjQtLjU4Vjk1MS43cS05LjM3LS41Ny0xNS4yNC0uNTh2MjUuMTlxNi40NS0yLjMyLDE0LjA3LTUuODZhNjQuNTQsNjQuNTQsMCwwLDAsLjU4LDEwLDEzOS43MywxMzkuNzMsMCwwLDEtMTQuNjUsNi40NXY0Mi4xOXEwLDEwLjU0LTUsMTIuODl0LTE2LjExLDQuNjlhNDYuMDgsNDYuMDgsMCwwLDAtNS4yNy0xMy40OCw5MS4zOCw5MS4zOCwwLDAsMCwxMi44OS0uNTljMi4zNC0uMzgsMy41MS0yLjM0LDMuNTEtNS44NlY5OTFxLTcsMi4zNS0xNy41Nyw5LjM4LTIuMzYtNy00LjY5LTEyLjg5LDctMS4xNywyMi4yNi03Vjk1MS4xMnEtMTEuMTMsMC0xOS45Mi41OFY5NDEuMTZxOC43OS41OCwxOS45Mi41OFEyODAxLjg4LDkxOC4zMSwyODAxLjMsOTExLjI3Wm02My4yOCw3Ni4xOGgxMS4xM3EtLjU5LDYuNDUtLjU4LDEwLjU0LDMyLjgsMCw0Mi4xOC0uNThWMTAwOHEtMTAuNTQtLjU3LTMyLjgxLS41OCwxMS4xMywxOC4xNywzNCwyNGEzNy45MiwzNy45MiwwLDAsMC04Ljc5LDExLjEzcS0yNS44LTEyLjMtMzQuNTctMzQuNTcsMCwyOS45LjU4LDM5Ljg1aC0xMS4xM3EuNTctMTAuNTQuNTgtMzguNjctMTEuNzIsMjAuNS0zNCwzNS43NGE0NS43OCw0NS43OCwwLDAsMC0xMC05LjM4LDcyLjI2LDcyLjI2LDAsMCwwLDMyLjgxLTI4LjEycS0xOS45MiwwLTI4LjcxLDEuMTdWOTk3LjQxcTkuMzguNTgsMzkuODQuNThDMjg2NS4xNiw5OTUuMjYsMjg2NSw5OTEuNzUsMjg2NC41OCw5ODcuNDVabS0zNS4xNi0xLjE4cS41OS04LjE5LjU5LTE1LjgyLDAtOC4xOS0uNTktMTUuODJoMzUuNzRxLS41OSw3LjYyLS41OCwxNS44MiwwLDcuNjIuNTgsMTUuODJabTI1Ljc4LTguNzlWOTYzLjQyaC0xNi40djE0LjA2Wm00MS42MS02My44NnEtLjYsNy42Mi0uNTksMTUuMjN0LjU5LDE1LjgySDI4NDIuOWMuMzgtNS44Ni41OS0xMS4xMy41OS0xNS44MiwwLTUuMDctLjIxLTEwLjE1LS41OS0xNS4yM1ptLTEwLjU1LDIyLjI2VjkyMS44MmgtMzMuNHYxNC4wNlpNMjkxMiw5NTQuNjNxLS41OSw3LjYyLS41OSwxNS44MiwwLDcuNjIuNTksMTUuODJoLTM3LjVjLjM4LTUuNDYuNTktMTAuNzQuNTktMTUuODIsMC01LjQ2LS4yMS0xMC43NC0uNTktMTUuODJabS0xMCwyMi44NVY5NjMuNDJoLTE4LjE3djE0LjA2WiIgY2xhc3M9ImNscy04Ii8+PHBhdGggZD0iTTMwMzkuNzcsOTQyLjMzdjc1cTAsMTguNzUuNTksMjkuODhoLTEzLjQ4cS41OS0xMC41NS41OS0yOS4zVjk2Mi44NGEyMDguNDgsMjA4LjQ4LDAsMCwxLTE1LjgyLDIyLjg1cS00LjctNy04LjItMTAsNy42MS04LjIxLDE4LjQ1LTI3LjI1YTE2Mi44MywxNjIuODMsMCwwLDAsMTYuMTItMzksOTEuODksOTEuODksMCwwLDAsMTUuMjMsNy42MVEzMDQ4LDkyMS4yNCwzMDM5Ljc3LDk0Mi4zM1ptNDEuNjEtNS4yN2gzOC42N3ExMi44OCwwLDIwLjUxLS41OVY5NDdxLTcuNjQtLjU5LTIwLjUxLS41OWgtMjd2MjIuODVoMjRxMTAsMCwxNi40LS41OHYxMS4xM3EtNy42Mi0uNTgtMTYuNC0uNTloLTI0djI2LjM3aDI1LjJxMTEuNzIsMCwxOS4zNC0uNTl2MTEuMTRxLTcuNjQtLjU4LTE4Ljc1LS41OWgtMjUuNzl2MTEuMTNxMCwxNi40MS41OSwyMi4yN2gtMTIuM3EuNTctNi40NS41OC0xNy41OHYtODVoLTUuODZhMjgyLjksMjgyLjksMCwwLDEtMTcsMjYuMzdxLTYuNDUtNS44NS0xMS4xMy03LjYyLDguMTktOC4yLDE3LTIzLjQ0QTE1My4zNywxNTMuMzcsMCwwLDAsMzA3OSw5MDguOTNhOTcuMDksOTcuMDksMCwwLDAsMTUuMjQsNS44NlEzMDg4LjQxLDkxOS40OCwzMDgxLjM4LDkzNy4wNloiIGNsYXNzPSJjbHMtOCIvPjxwYXRoIGQ9Ik0zMjU5Ljc5LDEwMjQuMzZxLTguNDksOC4yMS0xNy4yOCwxNS44MmEzOS44MywzOS44MywwLDAsMC0xMC03LjYycTE2LjM5LTkuOTQsMzAuNDctMjguMTJhMTA5Ljc1LDEwOS43NSwwLDAsMCwxMi4zLDguMlEzMjY4LjI5LDEwMTYuMTUsMzI1OS43OSwxMDI0LjM2Wm05OC4xNS0xMDAuNzhxLTE3LjU4LjU4LTMwLjE4LDJUMzI5Nyw5MjguODVhMjYuODgsMjYuODgsMCwwLDAsOC4yLDUuMjhBMTI0Ljg1LDEyNC44NSwwLDAsMCwzMjkwLjI2LDk0NXEtNy4zNCw2LjE1LTE0LjM1LDExLjQyaDI5LjI5cTE0LjY0LTEwLDI0LjYxLTE4LjE2YTYwLDYwLDAsMCwwLDE0LjA3LDguMnEtOC4yMiwzLjUxLTE1LjgyLDcuNjJUMzMwMy4xNSw5NjlxLTE3LjI4LDEwLjg1LTI5LjU5LDE3Ljg3LDM0LjU4LTEuNzUsNjQuNDYtMi45My0yLjk0LTIuOTItMTUuMjQtMTIuM2EzNS4zNiwzNS4zNiwwLDAsMCwxMC01Ljg2cTcsNS4yNiwxNi4xMiwxMy4xOHQxNy4yOCwxNS41M2E3Ni42LDc2LjYsMCwwLDAtMTEuMTMsNy42MSw3MC42MSw3MC42MSwwLDAsMC04Ljc5LTkuMzdxLTE1LjgyLjU5LTM3LjUsMS43NnYzNS4xNXEwLDExLjEzLTUuNTcsMTMuMTl0LTIwLjIxLDQuMzlhMzYuMjEsMzYuMjEsMCwwLDAtNS4yOC0xMy40OHExMy40OSwwLDE2LjctLjg3YzIuMTUtLjU5LDMuMjMtMi44MywzLjIzLTYuNzRWOTk0LjQ4cS0zNS43NC41OS00OC42NCwyLjkzLTEuNzUtNS44NS00LjEtMTIuMzFhNjcuNTksNjcuNTksMCwwLDAsMjIuODUtNS44NiwxOTQuMSwxOTQuMSwwLDAsMCwyNC0xNC4wNnEtMTMuNDksMC0yMC4yMi41OXQtMTQuOTQsMS43NXEtMS43Ni02LjQzLTMuNTEtMTIuMyw5Ljk1LDAsMTkuOTItNy45MUE1OS4zOCw1OS4zOCwwLDAsMCwzMjg4LjIxLDkzMHEtMzIuODIsMS4xOC00Mi43NywyLjM1YTY3LjQ3LDY3LjQ3LDAsMCwwLTQuMS0xMC41NXEzMi44LDAsNTguNTktMi4zNGEyOTIuNDcsMjkyLjQ3LDAsMCwwLDQ4LjA1LTguMjFBNjUuMjcsNjUuMjcsMCwwLDAsMzM1Ny45NCw5MjMuNThabS05LjM4LDkyLjI4YTEyOC44OSwxMjguODksMCwwLDEsMTUuODIsMTMuMTksMTA0Ljc4LDEwNC43OCwwLDAsMC05LjM3LDkuMzcsMTQwLjc5LDE0MC43OSwwLDAsMC0xNS44Mi0xNC42NXEtOC4yMi02LjQzLTE1LjI0LTExLjEzYTM0LjMxLDM0LjMxLDAsMCwwLDguMjEtOC43OVEzMzM5LjE4LDEwMDkuMTMsMzM0OC41NiwxMDE1Ljg2WiIgY2xhc3M9ImNscy04Ii8+PHBhdGggZD0iTTM0ODMuOTEsOTMzLjU0cS00LjY5LDguMjEtMTQuMDYsMjMuNDQsMTEuMTMtLjU5LDE3LjU4LS41OWExMDMsMTAzLDAsMCwwLDcuNjItMTYuNDEsODcuNTksODcuNTksMCwwLDAsMTMuNDcsN3EtNC4wOSw0LjEtMTEuMTMsMTQuOTR0LTE5LjkyLDMwLjc2cTE3LTEuNzYsMjkuODgtNC4xLTIuOTQsNy0yLjkzLDExLjEzLTUuMjcuNTktMTguNDUsMi4zNGExNTcsMTU3LDAsMCwwLTIzLjE1LDQuNjlxLTEuNzYtNS44NS00LjEtMTEuNzIsNi40NC0xLjc1LDEyLjMtMTAuNTR0MTEuNzItMTkuMzRxLTUuMjYuNTktMTIuMywxLjQ2YTEwMiwxMDIsMCwwLDAtMTEuNzIsMi4wNiwxMDAuMTMsMTAwLjEzLDAsMCwwLTUuMjctMTEuMTRxNy0xLjc1LDE1LjUyLTE4Ljc1dDkuNjctMjQuNjFhMTA1LjQsMTA1LjQsMCwwLDAsMTQuMDYsNS44NkExMTcuNSwxMTcuNSwwLDAsMCwzNDgzLjkxLDkzMy41NFptMjQuNjEsOTEuNDFxLTEzLjQ4LDMuNTEtMjYuNjYsNy4zMmExOTkuNCwxOTkuNCwwLDAsMC0yMC4yMSw2Ljc0LDc2LjQ1LDc2LjQ1LDAsMCwwLTYuNDUtMTIuMzFxMTQuNjQtMi4zMywyNy41NC01LjI3YTIxMy4wNywyMTMuMDcsMCwwLDAsMjUuNzgtNy42MkE1My4xNCw1My4xNCwwLDAsMCwzNTA4LjUyLDEwMjVabTYwLjk0LTkyLjU4cTguNzksMCwxOC43NS0uNTl2MTAuNTVxLTkuMzctLjU4LTE4LjE2LS41OWgtMzIuODFhOTAuMjksOTAuMjksMCwwLDAsMTEuMTMsN0E0OS40Miw0OS40MiwwLDAsMCwzNTM4LjcsOTU5cS01LDYuNzQtMTQuMzYsMTguNDUsMTMuNDgsMCw0Mi4xOS0yLjkyYy0xLjU2LTItNC42OS01LjY2LTkuMzctMTEuMTRhNTcsNTcsMCwwLDAsOS4zNy02LjQ0LDI2MCwyNjAsMCwwLDEsMjEuNjgsMjYuOTUsNTEuMTYsNTEuMTYsMCwwLDAtMTAsNy42MnEtMy41MS00LjY4LTUuODYtOC4yMWE4MS44OCw4MS44OCwwLDAsMC0xMC41NSwxLjE4djQzLjk0cTAsNyw1Ljg2LDdoNS44NnE1LjI4LDAsNy0xNS44MmEzMi42MSwzMi42MSwwLDAsMCwxMi4zMSw1Ljg2cS01LjI4LDE5LjkyLTE0LjY1LDE5LjkyaC0xNS44MnEtMTEuNzMsMC0xMS43Mi0xMi4zVjk4NS42OWExMTAuMjUsMTEwLjI1LDAsMCwwLTExLjEzLDEuMTdxLjU3LDIxLjY5LTUuNTcsMzUuNDV0LTIzLjczLDI3LjI1cS0yLjk0LTQuNzEtMTAuNTQtNy42MmE3Ni42Nyw3Ni42NywwLDAsMCwxNS44Mi0xMi44OSw1MS44NSw1MS44NSwwLDAsMCwxMC0xNS44MnEzLjUxLTguNzksMi45My0yNS4yYTkwLjE5LDkwLjE5LDAsMCwwLTE1LjgyLDIuMzUsNzAuOTEsNzAuOTEsMCwwLDAtNC42OS0xNS4yNHE3LS41NywxNS41My0xMS43MnQxMS40Mi0yMS42OGgtOS4zN3EtNy42MiwwLTE4Ljc1LjU5VjkzMS43OHE5LjM2LjYsMTguMTYuNTlabS0xNS4yMy02LjQ1cS00LjExLDEuNzYtMTEuMTQsNS4yOGE5Ni41LDk2LjUsMCwwLDAtOC43OC0xNyw0NS41Myw0NS41MywwLDAsMCwxMC41NC00LjY4UTM1NTEuMyw5MjAuMDcsMzU1NC4yMyw5MjUuOTJaIiBjbGFzcz0iY2xzLTgiLz48L2c+PC9nPjwvc3ZnPg==;container=0;" vertex="1" parent="1">
          <mxGeometry x="-1552" y="105" width="782.6" height="210" as="geometry" />
        </mxCell>
        <mxCell id="F6-qjhK5z2D8PZceFWj1-83" value="&lt;div style=&quot;line-height: 150%;&quot;&gt;&lt;div&gt;&lt;div&gt;&lt;font style=&quot;line-height: 150%;&quot;&gt;SCUTOSC&lt;/font&gt;&lt;/div&gt;&lt;div&gt;&lt;font style=&quot;line-height: 150%;&quot;&gt;IBM俱乐部&lt;/font&gt;&lt;/div&gt;&lt;div&gt;&lt;font style=&quot;line-height: 150%;&quot;&gt;电脑诊所&lt;/font&gt;&lt;/div&gt;&lt;/div&gt;&lt;/div&gt;" style="text;html=1;resizable=0;points=[];autosize=1;align=right;verticalAlign=top;spacingTop=0;fontSize=70;fontFamily=Verdana;fontColor=#444444;container=0;fontStyle=1" vertex="1" parent="1">
          <mxGeometry x="-481.8399999999999" y="39.99628084375627" width="370" height="330" as="geometry" />
        </mxCell>
        <mxCell id="F6-qjhK5z2D8PZceFWj1-115" value="✖" style="text;html=1;resizable=0;points=[];autosize=1;align=left;verticalAlign=top;spacingTop=-4;fontSize=130;fontFamily=Verdana;fontColor=#444444;" vertex="1" parent="1">
          <mxGeometry x="-671.9999999999998" y="125" width="130" height="160" as="geometry" />
        </mxCell>
        <mxCell id="F6-qjhK5z2D8PZceFWj1-123" value="PICK 你的奖品！" style="text;html=1;resizable=0;points=[];autosize=1;align=center;verticalAlign=top;spacingTop=0;fontSize=70;fontFamily=Verdana;fontColor=#FFFFFF;container=0;fontStyle=1" vertex="1" parent="1">
          <mxGeometry x="-1550" y="1410" width="550" height="100" as="geometry" />
        </mxCell>
        <mxCell id="F6-qjhK5z2D8PZceFWj1-94" value="" style="shape=image;verticalLabelPosition=bottom;labelBackgroundColor=default;verticalAlign=top;aspect=fixed;imageAspect=0;image=https://os.educg.net/img/logo.5daf9029.png;container=0;" vertex="1" parent="1">
          <mxGeometry x="-589.9999999999999" y="402.20000000000005" width="478.16" height="105.6" as="geometry" />
        </mxCell>
        <mxCell id="F6-qjhK5z2D8PZceFWj1-95" value="" style="shape=image;verticalLabelPosition=bottom;labelBackgroundColor=default;verticalAlign=top;aspect=fixed;imageAspect=0;image=https://summer-ospp.ac.cn/assets/Logoc.e61f2c82.png;container=0;" vertex="1" parent="1">
          <mxGeometry x="-530.0099999999999" y="541" width="418.17" height="100" as="geometry" />
        </mxCell>
        <mxCell id="F6-qjhK5z2D8PZceFWj1-82" value="&lt;b&gt;Hackthon 2025&lt;/b&gt;" style="text;html=1;resizable=0;points=[];autosize=1;align=left;verticalAlign=top;spacingTop=-4;fontSize=100;fontFamily=Verdana;fontColor=#444444;labelBackgroundColor=none;container=0;" vertex="1" parent="1">
          <mxGeometry x="-1550" y="390.00303647197757" width="770" height="130" as="geometry" />
        </mxCell>
        <mxCell id="F6-qjhK5z2D8PZceFWj1-118" value="&lt;b&gt;黑客松项目竞赛&lt;/b&gt;" style="text;html=1;resizable=1;points=[];autosize=1;align=left;verticalAlign=top;spacingTop=-4;fontSize=120;fontFamily=Verdana;fontColor=#444444;labelBackgroundColor=none;container=0;movable=1;rotatable=1;deletable=1;editable=1;locked=0;connectable=1;" vertex="1" parent="1">
          <mxGeometry x="-1550" y="500" width="860" height="150" as="geometry" />
        </mxCell>
      </root>
    </mxGraphModel>
  </diagram>
</mxfile>
